<?xml version="1.0" standalone="no"?>
<!DOCTYPE svg PUBLIC "-//W3C//DTD SVG 1.1//EN" "http://www.w3.org/Graphics/SVG/1.1/DTD/svg11.dtd" >
<svg>
<metadata>
Created by FontForge 20110222 at Tue Dec  2 14:41:21 2014
 By deploy user
Copyright (c) 2001 by Frantisek Storm,www.stormtype.com. All rights reserved.
</metadata>
<defs>
<font id="LidoSTFMedium-Italic" horiz-adv-x="511" >
  <font-face 
    font-family="Lido STF Medium"
    font-weight="400"
    font-style="italic"
    font-stretch="normal"
    units-per-em="1000"
    panose-1="2 0 5 3 5 0 0 2 0 3"
    ascent="800"
    descent="-200"
    x-height="469"
    cap-height="678"
    bbox="-159 -301 1595 935"
    underline-thickness="50"
    underline-position="-100"
    slope="-12"
    unicode-range="U+0020-F6D0"
  />
<missing-glyph horiz-adv-x="500" 
 />
    <glyph glyph-name="f_i" unicode="fi" horiz-adv-x="546" 
d="M234 410q-10 -44 -46 -176t-54 -205q-55 -219 -195 -219q-37 0 -57 18t-20 45q0 25 14.5 41t36.5 16q17 0 25.5 -11.5t9.5 -26t6.5 -26t17.5 -11.5q20 0 28.5 18.5t22.5 77.5q3 12 4 18l100 441h-69l5 28q71 7 83 49q28 98 106 152.5t162 54.5q146 0 146 -91
q0 -30 -18 -47t-40 -17q-19 0 -34.5 13t-15.5 37q0 31 -12 45.5t-46 14.5q-54 0 -92 -47t-60 -160q164 16 275 43l7 -7q-4 -13 -37 -114.5t-54.5 -175t-21.5 -96.5q0 -24 18 -24q17 0 32.5 14.5t21.5 37.5l23 -10q-10 -43 -53.5 -80t-94.5 -37q-54 0 -54 53q0 35 44 190
t48 174h-162z" />
    <glyph glyph-name="f_l" unicode="fl" horiz-adv-x="548" 
d="M501 643q8 6 24.5 20t28.5 22t18 8q11 0 11 -7q-108 -314 -162 -529q-12 -48 -12 -65q0 -24 18 -24q16 0 32 14.5t23 37.5q18 -8 22 -10q-10 -43 -52.5 -80t-93.5 -37q-56 0 -56 49q0 16 5.5 45.5t17 73t21.5 79t26 90.5t23 80h-160q-8 -33 -44 -165t-57 -216
q-22 -91 -70.5 -154t-119.5 -63q-82 0 -82 61q0 25 14.5 41t36.5 16q17 0 25.5 -11.5t9.5 -26t6.5 -26t17.5 -11.5q20 0 28.5 18.5t22.5 77.5q3 12 4 18l100 441h-69l5 28q71 7 83 49q26 89 95.5 148t153.5 59q81 0 106 -51zM408 457l22 77q12 45 12 66q0 49 -56 49
q-50 0 -86 -46.5t-58 -160.5q95 6 166 15z" />
    <glyph glyph-name=".notdef" horiz-adv-x="500" 
 />
    <glyph glyph-name=".null" horiz-adv-x="0" 
 />
    <glyph glyph-name="nonmarkingreturn" horiz-adv-x="333" 
 />
    <glyph glyph-name="space" unicode=" " horiz-adv-x="200" 
 />
    <glyph glyph-name="exclam" unicode="!" horiz-adv-x="342" 
d="M344 607q-17 -51 -72 -179t-93 -236h-29q16 117 29 280v18q6 75 13 117q8 43 35 64t62 21q27 0 43.5 -12.5t16.5 -38.5q0 -19 -5 -34zM140 132q29 0 50 -21t21 -50q0 -30 -20.5 -50t-50.5 -20t-51 20t-21 50q0 29 21 50t51 21z" />
    <glyph glyph-name="quotedbl" unicode="&#x22;" horiz-adv-x="422" 
d="M172 396h-35l9 173q8 125 83 125q41 0 41.5 -42.5t-21.5 -82.5zM369 396h-35l9 173q8 125 83 125q41 0 41.5 -42.5t-21.5 -82.5z" />
    <glyph glyph-name="numbersign" unicode="#" horiz-adv-x="529" 
d="M262 415q-6 -13 -29 -67.5t-35 -83.5h134l65 151h-135zM87 0h-66l86 206h-100l15 58h109l64 151h-103l15 58h112l90 213h66l-90 -213h134l92 213h65l-90 -213h95l-15 -58h-103q-13 -29 -64 -151h97l-15 -58h-107q-36 -90 -86 -206h-66q16 38 45.5 109.5t40.5 96.5h-135
q-15 -38 -44.5 -107.5t-41.5 -98.5z" />
    <glyph glyph-name="dollar" unicode="$" horiz-adv-x="543" 
d="M195 17q-80 6 -123.5 44t-43.5 92q0 33 18.5 56t47.5 23q20 0 32 -11t12 -30q0 -12 -3.5 -29.5t-3.5 -27.5q0 -69 73 -76l59 241q-129 66 -129 170q0 78 62 137t160 60l18 75l45 -2l-19 -77q77 -8 116 -42t39 -80q0 -33 -17.5 -54t-49.5 -21q-18 0 -29.5 9.5t-11.5 27.5
q0 8 4 24t4 30q0 57 -65 66l-55 -224q84 -45 118.5 -91t34.5 -104q0 -76 -68.5 -132.5t-180.5 -56.5l-19 -77l-45 3zM249 55q53 0 90.5 31t37.5 86q0 38 -17 62t-57 43zM294 420l51 207q-50 -1 -79.5 -37t-29.5 -82q0 -57 58 -88z" />
    <glyph glyph-name="percent" unicode="%" horiz-adv-x="788" 
d="M721 678h80l-685 -678h-79zM240 336q-62 0 -95 33.5t-33 96.5q0 85 59.5 154.5t145.5 69.5q63 0 96 -39.5t33 -97.5q0 -90 -62.5 -153.5t-143.5 -63.5zM254 371q44 0 72.5 67.5t28.5 143.5q0 73 -48 73q-41 0 -73 -65t-32 -138q0 -81 52 -81zM525 -7q-62 0 -95 33.5
t-33 96.5q0 85 59.5 154t144.5 69q63 0 96 -39t33 -97q0 -91 -62 -154t-143 -63zM539 27q42 0 71 65.5t29 140.5q0 78 -47 78q-43 0 -74 -65t-31 -140q0 -79 52 -79z" />
    <glyph glyph-name="ampersand" unicode="&#x26;" horiz-adv-x="799" 
d="M492 162q62 -94 129 -94q29 0 55.5 16.5t41.5 44.5l23 -10q-25 -65 -71.5 -100t-99.5 -35q-54 0 -93 22t-74 70q-55 -48 -107.5 -70t-122.5 -22t-113.5 43t-43.5 109q0 75 62 143.5t192 110.5q-8 41 -8 89q0 96 49.5 155.5t146.5 59.5q62 0 97.5 -31.5t35.5 -80.5
q0 -54 -50 -102.5t-153 -81.5q39 -128 87 -207q26 30 53.5 82t45.5 89t51.5 66t76.5 29q42 0 64.5 -24.5t22.5 -57.5t-18 -54.5t-44 -21.5q-23 0 -37.5 13.5t-14.5 38.5q0 7 2 18t2 14q0 16 -13 16t-31 -24.5t-35.5 -58.5t-47.5 -78.5t-60 -75.5zM385 100q-72 111 -109 261
q-139 -46 -139 -171q0 -62 31 -102t84 -40q75 0 133 52zM382 427q134 42 134 156q0 74 -64 74q-39 0 -61.5 -31t-22.5 -93q0 -49 14 -106z" />
    <glyph glyph-name="quotesingle" unicode="'" horiz-adv-x="229" 
d="M172 396h-35l9 173q8 125 83 125q41 0 41.5 -42.5t-21.5 -82.5z" />
    <glyph glyph-name="parenleft" unicode="(" horiz-adv-x="382" 
d="M294 -192l-18 -27q-200 106 -200 321q0 68 19 144q44 175 156 293t257 172l5 -27q-101 -45 -171.5 -147t-114.5 -278q-35 -140 -35 -233q0 -154 102 -218z" />
    <glyph glyph-name="parenright" unicode=")" horiz-adv-x="382" 
d="M111 684l18 27q200 -106 200 -322q0 -67 -19 -143q-44 -176 -155.5 -293t-257.5 -172l-5 27q100 44 171 146t115 279q35 139 35 232q0 154 -102 219z" />
    <glyph glyph-name="asterisk" unicode="*" horiz-adv-x="506" 
d="M286 489q-34 13 -74 14q-47 5 -64 13q-21 10 -25 31.5t6 37.5q10 19 27 27t39 -2q21 -11 49 -46q26 -32 55 -51q3 33 -8 75q-11 43 -8 66q3 22 21 31.5t39 6.5q20 -3 33.5 -17.5t10.5 -36.5q-4 -23 -29 -62q-22 -34 -30 -68q33 9 68 32q36 24 60 28q23 3 37.5 -10.5
t17.5 -34.5t-7 -38.5t-32 -20.5q-20 -4 -67 8q-44 12 -75 9q20 -29 53 -56q33 -28 44 -48q9 -23 0.5 -40t-26.5 -26q-17 -10 -37.5 -6t-30.5 24q-10 22 -13 67q-2 42 -14 72q-23 -25 -37 -65q-17 -42 -33 -57q-19 -16 -37 -14t-33 17q-15 14 -17 33.5t13 36.5q15 15 58 33
q41 14 66 37z" />
    <glyph glyph-name="plus" unicode="+" horiz-adv-x="580" 
d="M293 76h-69l57 229h-228q11 41 17 70h228l57 229h69l-57 -229h229q-6 -29 -17 -70h-229z" />
    <glyph glyph-name="comma" unicode="," horiz-adv-x="269" 
d="M-10 -185l-14 32q132 63 132 137q0 19 -25 19q-23 0 -36.5 14.5t-13.5 38.5q0 31 24 54.5t59 23.5q34 0 53.5 -22.5t19.5 -59.5q0 -63 -46.5 -126.5t-152.5 -110.5z" />
    <glyph glyph-name="hyphen" unicode="-" horiz-adv-x="313" 
d="M36 205l24 96h243l-24 -96h-243z" />
    <glyph glyph-name="hyphen" unicode="&#xad;" horiz-adv-x="313" 
d="M36 205l24 96h243l-24 -96h-243z" />
    <glyph glyph-name="period" unicode="." horiz-adv-x="256" 
d="M33 65q0 31 22 53.5t54 22.5q31 0 53.5 -22.5t22.5 -53.5q0 -32 -22 -54t-54 -22t-54 22t-22 54z" />
    <glyph glyph-name="slash" unicode="/" horiz-adv-x="391" 
d="M431 678h79l-483 -678h-79z" />
    <glyph glyph-name="zero" unicode="0" 
d="M359 691q70 0 111 -62t41 -161q0 -118 -50.5 -231t-126.5 -181t-150 -68q-70 0 -110.5 61.5t-40.5 160.5q0 113 48 225.5t124.5 184t153.5 71.5zM350 653q-56 0 -97 -79t-80 -238q-37 -151 -37 -220q0 -95 57 -95q56 0 97.5 81.5t79.5 236.5q38 154 38 221q0 93 -58 93z
" />
    <glyph glyph-name="one" unicode="1" 
d="M393 0h-351v28h48q46 0 64 16.5t31 69.5l102 405q5 20 5 30q0 20 -17 20q-13 0 -36 -9l-94 -36l-8 29q43 16 156.5 67t138.5 69q2 2 8 2q12 0 12 -7q-1 -3 -8 -28t-20.5 -71.5t-30.5 -109t-42 -159t-52 -202.5q-8 -34 -8 -49q0 -21 12.5 -29t44.5 -8h45v-28z" />
    <glyph glyph-name="two" unicode="2" 
d="M-27 25q104 75 171 128.5t129.5 113.5t92 113t29.5 103q0 49 -32.5 80t-88.5 31q-55 0 -94 -34.5t-52 -100.5l-27 3q11 107 83 168.5t158 61.5q77 0 125.5 -42t48.5 -125q0 -90 -89.5 -189t-305.5 -240h149q58 0 91.5 10t47.5 24.5t28 44.5l27 -4l-77 -171h-410
q-10 0 -10 14q0 6 6 11z" />
    <glyph glyph-name="three" unicode="3" 
d="M144 527l-23 9q20 67 74.5 112t131.5 45q69 0 112.5 -40t43.5 -96q0 -118 -165 -187q62 -4 99 -45.5t37 -97.5q0 -96 -84.5 -170t-229.5 -74q-69 0 -101.5 26t-32.5 62q0 32 24 56.5t63 24.5q-1 -6 -1 -18q0 -95 104 -95q66 0 109.5 40.5t43.5 104.5q0 59 -43.5 94.5
t-133.5 35.5q-5 5 -5 17l39 16q81 23 122.5 69t41.5 97q0 45 -28 73.5t-79 28.5q-44 0 -75.5 -25t-43.5 -63z" />
    <glyph glyph-name="four" unicode="4" 
d="M99 240h187l75 301q-133 -133 -262 -301zM394 240h86q0 -14 -7.5 -46t-15.5 -44h-85l-38 -150h-108l38 150h-258q-14 0 -14 16q0 11 8 22q236 304 442 502q8 5 32 5q25 0 37 -5q-3 -10 -11 -38t-20 -72t-26 -100z" />
    <glyph glyph-name="five" unicode="5" 
d="M218 493q113 -30 167.5 -96.5t54.5 -147.5q0 -109 -81.5 -187.5t-213.5 -78.5q-23 0 -41 7q-48 6 -71.5 29.5t-23.5 54.5q0 33 24 56.5t68 23.5q-2 -10 -2 -20q0 -41 24.5 -68t74.5 -27q69 0 110.5 44.5t41.5 109.5q0 73 -55 127.5t-165 79.5q22 47 67 139t67 139h269
l-37 -111h-241q-24 -50 -37 -74z" />
    <glyph glyph-name="six" unicode="6" 
d="M142 126q0 -52 20.5 -78t55.5 -26q42 0 76.5 43t51.5 101t17 114q0 103 -73 103q-63 0 -105.5 -76.5t-42.5 -180.5zM208 377q53 62 126 62q69 0 109 -47t40 -122q0 -67 -33.5 -131.5t-95.5 -107.5t-136 -43q-83 0 -132.5 51t-49.5 142q0 61 19 124q47 159 197.5 273
t328.5 114v-23q-108 -6 -212 -88t-166 -201z" />
    <glyph glyph-name="seven" unicode="7" 
d="M593 659q-65 -79 -112.5 -140.5t-105 -147t-98 -172.5t-61.5 -170q-4 -17 -26.5 -26.5t-48.5 -9.5q-56 0 -56 34q0 8 2 13q27 90 120 217t251 310h-192q-60 0 -89.5 -18.5t-54.5 -62.5l-22 7l83 185h408q7 0 7 -9q0 -5 -5 -10z" />
    <glyph glyph-name="eight" unicode="8" 
d="M244 556q0 -72 89 -155q106 72 106 164q0 42 -24 66.5t-68 24.5q-45 0 -74 -27t-29 -73zM535 547q0 -54 -44.5 -98t-138.5 -70q56 -52 81 -95t25 -98q0 -86 -70.5 -142.5t-166.5 -56.5t-145.5 44t-49.5 108q0 63 49.5 115t148.5 81q-91 82 -91 171q0 77 60 131.5
t164 54.5q85 0 131.5 -43.5t46.5 -101.5zM124 127q0 -47 27 -76.5t73 -29.5q53 0 87 33t34 86q0 91 -103 178q-118 -75 -118 -191z" />
    <glyph glyph-name="nine" unicode="9" 
d="M315 273q-44 -28 -88 -28q-64 0 -105 45t-41 123q0 101 73.5 190t189.5 89q88 0 134.5 -52.5t46.5 -151.5q0 -100 -45 -193t-119 -160t-171.5 -107t-198.5 -40v24q73 1 150.5 45.5t139 116t101.5 171t40 202.5q0 58 -18.5 83.5t-56.5 25.5q-41 0 -76 -40.5t-54 -100
t-19 -119.5q0 -52 20 -79.5t56 -27.5q18 0 33 6z" />
    <glyph glyph-name="colon" unicode=":" horiz-adv-x="261" 
d="M97 400q0 31 22 53.5t53 22.5t53.5 -22.5t22.5 -53.5q0 -32 -22 -54t-54 -22q-31 0 -53 22t-22 54zM20 65q0 31 22 53.5t53 22.5t53.5 -22.5t22.5 -53.5q0 -32 -22 -54t-54 -22q-31 0 -53 22t-22 54z" />
    <glyph glyph-name="semicolon" unicode=";" horiz-adv-x="274" 
d="M100 400q0 31 22 53.5t54 22.5q31 0 53.5 -22.5t22.5 -53.5q0 -32 -22 -54t-54 -22t-54 22t-22 54zM-22 -185l-14 32q132 63 132 137q0 19 -25 19q-23 0 -36.5 14.5t-13.5 38.5q0 31 24 54.5t59 23.5q34 0 53.5 -22.5t19.5 -59.5q0 -63 -46.5 -126.5t-152.5 -110.5z" />
    <glyph glyph-name="less" unicode="&#x3c;" horiz-adv-x="585" 
d="M54 316l12 50l593 228l-18 -72l-472 -180l382 -182l-19 -73z" />
    <glyph glyph-name="equal" unicode="=" horiz-adv-x="582" 
d="M29 212l17 68h529l-17 -68h-529zM76 399q5 23 17 69h529q-12 -46 -17 -69h-529z" />
    <glyph glyph-name="greater" unicode="&#x3e;" horiz-adv-x="585" 
d="M603 365l-13 -50l-593 -228l18 73l471 180q-127 60 -381 182l18 72z" />
    <glyph glyph-name="question" unicode="?" horiz-adv-x="469" 
d="M222 192h-30q1 45 21.5 86t48.5 72.5t56 62t47.5 69t19.5 80.5q0 95 -88 95q-42 0 -63 -18.5t-21 -49.5q0 -16 8 -37t8 -36q0 -29 -20 -46t-47 -17q-29 0 -48.5 19t-19.5 55q0 68 58.5 117.5t152.5 49.5q95 0 148.5 -44.5t53.5 -120.5q0 -48 -28.5 -88.5t-69.5 -69.5
t-82.5 -55t-72 -58t-32.5 -66zM113 61q0 29 21 50t51 21q29 0 50 -21t21 -50q0 -30 -21 -50.5t-50 -20.5q-30 0 -51 20.5t-21 50.5z" />
    <glyph glyph-name="at" unicode="@" horiz-adv-x="949" 
d="M698 -125q-144 -73 -288 -73q-104 0 -186 38.5t-133.5 122.5t-51.5 203q0 121 49 222t127.5 163.5t172 96.5t187.5 34q152 0 245.5 -78t93.5 -223q0 -75 -19.5 -139t-50.5 -107.5t-70.5 -74.5t-79.5 -45t-77 -14q-43 0 -65.5 19t-22.5 52q0 32 16 90l-6 2
q-33 -77 -85.5 -121t-111.5 -44q-48 0 -73.5 31t-25.5 89q0 88 51.5 176t135 144.5t169.5 56.5q27 0 57.5 -5t38.5 -5q13 0 13 -13q-26 -81 -92 -344q-8 -32 -8 -52q0 -32 34 -32q28 0 59.5 19t62.5 56.5t51 106.5t20 157q0 120 -75.5 185t-187.5 65q-181 0 -312.5 -136.5
t-131.5 -337.5q0 -146 89 -230.5t233 -84.5q127 0 235 59zM599 457h-10q-67 0 -122 -49t-83 -117.5t-28 -134.5q0 -76 48 -76q36 0 77.5 48t67.5 143z" />
    <glyph glyph-name="A" unicode="A" horiz-adv-x="622" 
d="M334 526q-18 -37 -71 -123l-94 -149h199l-19 146q-11 86 -15 126zM390 99l-15 112h-232q-4 -6 -31 -49l-15 -24q-26 -43 -26 -74q0 -19 16 -27.5t56 -8.5v-28h-234v28q19 0 40.5 17t69 79.5t119.5 176.5l241 383h47l81 -485q15 -85 24.5 -119t19.5 -43t32 -9v-28h-269v28
q40 0 58.5 10.5t18.5 38.5q0 14 -1 22z" />
    <glyph glyph-name="B" unicode="B" horiz-adv-x="648" 
d="M181 87q0 -28 20 -39t69 -11q88 0 136 46t48 123q0 126 -151 126h-64q-41 -154 -54 -217q-4 -15 -4 -28zM249 371h81q80 0 122 48t42 114q0 47 -29 76.5t-90 29.5q-23 0 -55 -5q-25 -87 -71 -263zM419 359q0 -5 -1 -8q84 -6 126.5 -50t42.5 -104q0 -37 -14 -69.5
t-45.5 -62.5t-92 -47.5t-143.5 -17.5h-304v28h10q23 0 36.5 17.5t25.5 68.5l113 450q9 38 9 56q0 30 -29 30h-10v28h262q111 0 162 -45t51 -111q0 -69 -50 -112.5t-149 -50.5z" />
    <glyph glyph-name="C" unicode="C" horiz-adv-x="603" 
d="M468 694q47 0 83.5 -5t57 -10.5t26.5 -5.5q11 0 11 -11l-50 -215q-2 -6 -14 -6q-14 0 -14 6q8 38 8 69q0 131 -128 131q-79 0 -143.5 -62.5t-97.5 -154t-33 -185.5q0 -93 42.5 -141t112.5 -48q66 0 119 35.5t82 100.5l26 -11q-35 -92 -107.5 -145t-173.5 -53
q-112 0 -176 62.5t-64 171.5q0 123 58.5 233t159 177t215.5 67z" />
    <glyph glyph-name="D" unicode="D" horiz-adv-x="704" 
d="M319 634q-78 -293 -134 -520q-5 -16 -5 -33q0 -23 17.5 -32.5t59.5 -9.5q77 0 136.5 35.5t93 93.5t50 121.5t16.5 128.5q0 103 -46.5 159.5t-139.5 56.5h-48zM-12 0v28h10q23 0 36.5 17.5t25.5 68.5l113 450q9 38 9 56q0 30 -29 30h-10v28h215q172 0 251 -80t79 -208
q0 -80 -27 -149.5t-79.5 -123.5t-138.5 -85.5t-196 -31.5h-259z" />
    <glyph glyph-name="E" unicode="E" horiz-adv-x="627" 
d="M248 365h66q52 0 86 28t51 93h28q-46 -188 -70 -282h-28q8 30 8 54q0 36 -18 52t-67 16h-66q-11 -41 -28 -111.5t-24 -96.5q-5 -18 -5 -31q0 -27 23.5 -37.5t81.5 -10.5q106 0 167.5 41.5t92.5 122.5h28l-60 -203h-526v28h10q23 0 36.5 17.5t25.5 68.5l113 452q8 33 8 56
q0 16 -6.5 22t-21.5 6h-10v28h506l-42 -186h-28q4 28 4 41q0 104 -158 104h-105z" />
    <glyph glyph-name="F" unicode="F" horiz-adv-x="551" 
d="M184 114q-8 -35 -8 -51q0 -19 9 -27t32 -8q1 -3 5 -7v-21h-234v21q4 4 5 7q27 0 40.5 17t26.5 69l117 468q6 24 6 38q0 30 -30 30h-10v28h517l-42 -186h-28q5 22 5 38q0 107 -158 107h-117l-72 -272h71q52 0 86 28t51 93h28q-46 -188 -70 -282h-28q8 30 8 54q0 36 -18 52
t-67 16h-71z" />
    <glyph glyph-name="G" unicode="G" horiz-adv-x="707" 
d="M484 694q50 0 88 -5t61 -11t28 -6q11 0 11 -12l-49 -206q-5 -6 -15 -6t-13 6q4 32 4 46q0 70 -30 108.5t-90 38.5q-133 0 -219.5 -122t-86.5 -292q0 -95 45 -149.5t121 -54.5q90 0 105 58q8 33 38 151q3 12 3 22q0 22 -22 29.5t-82 7.5v28h313v-28q-40 0 -58 -14t-29 -59
l-43 -173q-75 -38 -139 -52.5t-147 -14.5q-117 0 -180.5 66t-63.5 176q0 84 34 167.5t92 150.5t143.5 108.5t180.5 41.5z" />
    <glyph glyph-name="H" unicode="H" horiz-adv-x="746" 
d="M516 325h-278l-58 -228q-5 -20 -5 -38t6.5 -24.5t22.5 -6.5h10v-28h-226v28h10q23 0 36.5 17.5t25.5 68.5l116 466q6 24 6 38q0 32 -29 32h-10v28h230v-28h-10q-23 0 -35.5 -17t-26.5 -69q-40 -147 -51 -193h277l52 209q6 24 6 38q0 32 -29 32h-10v28h230v-28h-10
q-23 0 -36 -17.5t-26 -68.5q-41 -150 -117 -450l-4 -17q-5 -20 -5 -38t6.5 -24.5t22.5 -6.5h10v-28h-226v28h10q23 0 36.5 17.5t25.5 68.5q21 88 53 211z" />
    <glyph glyph-name="I" unicode="I" horiz-adv-x="343" 
d="M301 564q-41 -150 -117 -450q-9 -36 -9 -55q0 -18 6.5 -24.5t22.5 -6.5h10v-28h-226v28h10q23 0 36.5 17.5t25.5 68.5l113 450q9 36 9 54q0 32 -29 32h-10v28h230v-28h-10q-23 0 -36 -17.5t-26 -68.5z" />
    <glyph glyph-name="J" unicode="J" horiz-adv-x="440" 
d="M315 212q-58 -228 -255 -228q-101 0 -101 73q0 26 19 48t49 22q54 0 54 -55q0 -2 -1 -7t-1 -8q0 -29 25 -29q41 0 62 83l113 453q9 38 9 56q0 30 -29 30h-26v28h245v-28h-10q-23 0 -36.5 -17.5t-26.5 -68.5q-43 -163 -90 -352z" />
    <glyph glyph-name="K" unicode="K" horiz-adv-x="680" 
d="M435 0q-32 49 -64 103t-71 123t-56 98l242 219q48 43 48 74q0 15 -11.5 24t-31.5 9v28h262v-28q-76 -4 -175 -86l-217 -185q49 -79 75 -131q77 -129 114.5 -172.5t63.5 -47.5v-28h-179zM301 564q-41 -150 -117 -450q-9 -38 -9 -56q0 -30 29 -30h10v-28h-226v28h10
q23 0 36.5 17.5t25.5 68.5l113 450q9 38 9 56q0 30 -29 30h-10v28h230v-28h-10q-23 0 -36 -17.5t-26 -68.5z" />
    <glyph glyph-name="L" unicode="L" horiz-adv-x="564" 
d="M173 564q9 38 9 56q0 30 -29 30h-10v28h237v-28h-18q-23 0 -36.5 -17.5t-26.5 -68.5q-78 -300 -111 -435q-5 -17 -5 -36q0 -27 19 -38t62 -11q107 0 168 42t100 142h28l-72 -228h-500v28h10q23 0 36.5 17.5t25.5 68.5z" />
    <glyph glyph-name="M" unicode="M" horiz-adv-x="878" 
d="M411 176q35 71 82.5 150.5t122 195.5t99.5 156h193v-28h-10q-23 0 -36 -17.5t-26 -68.5q-78 -302 -116 -453l-3 -16q-6 -34 -6 -37q0 -17 6.5 -23.5t22.5 -6.5h10v-28h-232v28h16q23 0 36.5 16.5t25.5 66.5l93 372q17 70 28 103h-6q-17 -35 -69 -120l-288 -464
q-3 -5 -18 -5q-14 0 -16 5q-6 40 -21 129t-24 145t-19.5 124.5t-15.5 112.5t-5 65v8h-6q-2 -13 -24 -103l-84 -340q-10 -37 -10 -56q0 -32 15 -45.5t48 -13.5h17v-28h-203v28h11q24 0 38.5 23.5t38.5 108.5l104 420q2 7 5 39q0 17 -6.5 24t-21.5 7h-14v28h206l44 -317
q12 -89 18 -185z" />
    <glyph glyph-name="N" unicode="N" horiz-adv-x="700" 
d="M521 209q14 68 27 117l54 217q7 33 7 48q0 59 -73 59h-12v28h226v-28h-10q-24 0 -48 -23t-38 -80l-137 -547q-2 -8 -25 -8q-8 0 -13 3l-200 455q-30 65 -43 109q-5 -28 -27 -119l-73 -293q-9 -37 -9 -60q0 -33 20 -46t64 -13h14v-28h-242v28h10q30 0 51 26.5t37 90.5
l105 421q4 13 4 27q0 29 -16.5 43t-37.5 14h-10v28h197l155 -358q34 -79 43 -111z" />
    <glyph glyph-name="O" unicode="O" horiz-adv-x="715" 
d="M451 647q-52 0 -98 -31.5t-77 -81t-53 -111t-32.5 -122t-10.5 -112.5q0 -79 28.5 -121t78.5 -42q79 0 143.5 76.5t97 183.5t32.5 211q0 73 -28.5 111.5t-80.5 38.5zM454 693q110 0 177.5 -69.5t67.5 -190.5q0 -111 -55.5 -214.5t-153 -169t-208.5 -65.5
q-109 0 -176.5 63.5t-67.5 184.5q0 126 61 233.5t156.5 167.5t198.5 60z" />
    <glyph glyph-name="P" unicode="P" horiz-adv-x="604" 
d="M229 293l-45 -179q-9 -38 -9 -57q0 -29 28 -29h23v-28h-239v28h10q23 0 37 18t26 68l112 450q9 38 9 56q0 30 -28 30h-10v28h258q121 0 178.5 -49.5t57.5 -124.5q0 -101 -84.5 -164t-213.5 -63q-62 0 -110 16zM236 320q36 -6 62 -6q101 0 154.5 57t53.5 140
q0 58 -32.5 92.5t-95.5 34.5q-30 0 -60 -6q-48 -177 -82 -312z" />
    <glyph glyph-name="Q" unicode="Q" horiz-adv-x="714" 
d="M208 -7q-79 19 -124.5 79.5t-45.5 159.5q0 96 37 183t96 147t133 95.5t147 35.5q112 0 179.5 -69.5t67.5 -190.5q0 -150 -101.5 -283.5t-246.5 -158.5q33 -79 102.5 -121t144.5 -42v-28q-108 0 -182 21t-122 62t-85 110zM303 568q-59 -71 -91 -177t-32 -202
q0 -79 28.5 -121t78.5 -42q78 0 142.5 76.5t97.5 183.5t33 211q0 73 -29 111.5t-81 38.5q-81 0 -147 -79z" />
    <glyph glyph-name="R" unicode="R" horiz-adv-x="673" 
d="M232 305l-48 -191q-9 -38 -9 -57q0 -29 29 -29h13v-28h-229v28h10q23 0 36.5 17.5t25.5 68.5l113 450q9 38 9 56q0 30 -29 30h-10v28h257q238 0 238 -176q0 -65 -57 -119.5t-157 -66.5q45 -118 101 -211q20 -34 36.5 -51t26.5 -21t27 -5v-28h-182q-51 89 -126 300
q-38 0 -75 5zM242 342q37 -5 73 -5q93 0 143 51t50 127q0 55 -32 89t-97 34q-26 0 -59 -5q-31 -108 -78 -291z" />
    <glyph glyph-name="S" unicode="S" horiz-adv-x="549" 
d="M213 -16q-47 0 -89.5 7t-73.5 16t-38 10q-11 2 -11 11l48 191h30q-4 -28 -4 -40q0 -72 37.5 -112t103.5 -40q55 0 92.5 27.5t37.5 84.5q0 44 -23.5 75.5t-82.5 79.5t-90 92t-31 104q0 81 65 142.5t173 61.5q63 0 120.5 -11t59.5 -11q11 0 11 -12l-52 -194q-2 -8 -16 -8
q-13 0 -13 8q4 30 4 43q0 69 -32.5 105.5t-89.5 36.5q-51 0 -82 -30.5t-31 -78.5q0 -42 21.5 -72t77.5 -77q75 -62 109 -108t34 -101q0 -86 -68.5 -143t-196.5 -57z" />
    <glyph glyph-name="T" unicode="T" horiz-adv-x="592" 
d="M315 634q-117 -3 -170 -42t-71 -108h-28l52 194h580l-44 -194h-28q6 24 6 47q0 47 -38 73.5t-132 29.5q-72 -273 -133 -520q-8 -32 -8 -57q0 -29 27 -29h10v-28h-226v28h10q23 0 37 18t26 68q97 390 130 520z" />
    <glyph glyph-name="U" unicode="U" horiz-adv-x="701" 
d="M677 532q-20 -76 -76 -304q-29 -114 -117.5 -179t-204.5 -65q-92 0 -154 49t-62 135q0 26 8 60l87 352q6 24 6 39q0 31 -29 31h-10v28h239v-28h-20q-23 0 -36.5 -17.5t-26.5 -68.5q-17 -65 -46 -181t-39 -154q-5 -19 -5 -49q0 -60 41.5 -92t102.5 -32q72 0 132 45.5
t83 137.5q42 167 71 286q10 40 10 68q0 57 -51 57h-21v28h211v-28h-10q-21 0 -44 -26.5t-39 -91.5z" />
    <glyph glyph-name="V" unicode="V" horiz-adv-x="606" 
d="M283 297q10 -85 15 -141q34 65 57 101l29 46l146 237q24 38 26 73q0 20 -16 28.5t-54 8.5v28h227v-28q-28 0 -74.5 -54t-149.5 -220l-236 -382h-45l-80 493q-14 80 -23.5 113t-19 41.5t-30.5 8.5v28h265v-28q-79 0 -79 -49q0 -3 0.5 -9.5t0.5 -10.5z" />
    <glyph glyph-name="W" unicode="W" horiz-adv-x="954" 
d="M514 466l-258 -473h-50l-80 520q-14 92 -26 114.5t-41 22.5v28h260v-28q-45 0 -63 -12.5t-14 -45.5l40 -307q9 -76 12 -135q28 61 69 135l204 374h46l35 -374q7 -72 6 -133q42 84 70 131l155 255q27 46 27 73q0 39 -54 39v28h213v-28q-34 0 -73 -42t-111 -167l-269 -448
h-48z" />
    <glyph glyph-name="X" unicode="X" horiz-adv-x="702" 
d="M601 545l-169 -165l117 -272q20 -46 36 -62.5t43 -17.5v-28h-286v28q67 0 67 47q0 24 -13 54l-63 153l-162 -161q-40 -40 -40 -63q0 -30 58 -30v-28h-229v28q30 2 62.5 23t100.5 86q191 185 193 187q-14 30 -43.5 100.5t-46.5 107.5l-21 45q-19 41 -35.5 57t-45.5 16v28
h292v-28q-69 0 -69 -49q0 -10 4.5 -26t13 -37.5t15.5 -38.5t19 -42.5t16 -35.5l137 135q39 39 39 62q0 32 -66 32v28h242v-28q-31 -1 -66.5 -21.5t-99.5 -83.5z" />
    <glyph glyph-name="Y" unicode="Y" horiz-adv-x="617" 
d="M369 291q-3 -13 -15 -58t-18.5 -72t-13 -59t-6.5 -45q0 -29 29 -29h13v-28h-232v28h13q23 0 36.5 17.5t25.5 68.5l42 167l-108 296q-16 39 -34 56t-44 17v28h276v-28q-65 -1 -65 -47q0 -14 8 -35l81 -224l179 210q28 34 28 60q0 36 -60 36v28h229v-28q-26 -1 -57 -21
t-88 -86z" />
    <glyph glyph-name="Z" unicode="Z" horiz-adv-x="629" 
d="M-36 0q-3 3 -3 10q0 2 0.5 5t0.5 4l550 616h-173q-67 0 -126.5 -55t-81.5 -131q-5 0 -14 0.5t-13 0.5l70 228h516q2 -4 2 -11v-6l-549 -617h190q81 0 143.5 51t85.5 120l27 -3q-15 -48 -68 -212h-557z" />
    <glyph glyph-name="bracketleft" unicode="[" horiz-adv-x="350" 
d="M246 -162l-10 -41h-239l224 897h239l-11 -43h-140l-203 -813h140z" />
    <glyph glyph-name="backslash" unicode="\" horiz-adv-x="391" 
d="M196 678q49 -226 145 -678h-79q-96 452 -145 678h79z" />
    <glyph glyph-name="bracketright" unicode="]" horiz-adv-x="350" 
d="M126 651l10 43h239q-33 -133 -108.5 -435l-115.5 -462h-238l10 42h140q123 486 203 812h-140z" />
    <glyph glyph-name="asciicircum" unicode="^" horiz-adv-x="502" 
d="M331 684h47l105 -362h-70l-80 281l-219 -281h-70z" />
    <glyph glyph-name="underscore" unicode="_" horiz-adv-x="505" 
d="M422 -135h-506l16 62h505z" />
    <glyph glyph-name="grave" unicode="`" horiz-adv-x="255" 
d="M56 653q-6 7 -6 14q2 11 17 11h81l57 -150l-23 -7z" />
    <glyph glyph-name="a" unicode="a" horiz-adv-x="512" 
d="M491 111q-9 -43 -52 -81t-84 -38q-51 0 -51 61q0 41 18 97l-7 2q-33 -77 -87 -121.5t-113 -44.5q-47 0 -73 31t-26 89q0 88 52 176.5t136.5 145.5t170.5 57q28 0 58.5 -5t38.5 -5q13 0 13 -13q-29 -87 -88 -319q-8 -32 -8 -52q0 -25 23 -25q17 0 34 15t23 40
q4 -2 11.5 -5t10.5 -5zM375 445h-11q-66 0 -122 -49.5t-84.5 -118t-28.5 -134.5q0 -76 48 -76q37 0 80 48.5t68 143.5z" />
    <glyph glyph-name="b" unicode="b" horiz-adv-x="496" 
d="M122 28q4 -1 13 -1q90 0 163 98.5t73 207.5q0 75 -47 75q-38 0 -78.5 -47t-69.5 -136q-13 -38 -54 -197zM193 332q30 64 81 108.5t111 44.5q49 0 74 -30.5t25 -81.5q0 -83 -49 -171.5t-135.5 -150.5t-180.5 -62q-30 0 -55 3.5t-37.5 7.5t-12.5 8v1q1 1 1 2q30 84 147 593
q1 3 1 15q0 23 -28 23h-15l5 28q131 16 150 20q6 2 9 2q12 0 12 -7q-1 -4 -46.5 -151.5t-63.5 -199.5z" />
    <glyph glyph-name="c" unicode="c" horiz-adv-x="392" 
d="M406 396q0 -36 -18.5 -55.5t-43.5 -19.5q-47 0 -47 55q0 36 -5.5 48.5t-26.5 12.5q-47 0 -93 -78t-46 -185q0 -53 23.5 -78.5t61.5 -25.5q34 0 66 22t51 65l21 -11q-24 -75 -77.5 -117t-115.5 -42q-61 0 -97.5 39.5t-36.5 118.5q0 85 40 164t106 127.5t137 48.5
q51 0 76 -24t25 -65z" />
    <glyph glyph-name="d" unicode="d" 
d="M385 484l30 121q2 10 2 14q0 24 -29 24h-14l4 28q132 17 150 20q8 2 10 2q11 0 13 -7q-12 -31 -63.5 -209t-90.5 -334q-8 -32 -8 -52q0 -25 23 -25q17 0 34 15t23 40q4 -2 11.5 -5t10.5 -5q-9 -43 -52 -81t-84 -38q-51 0 -51 60q0 41 18 98l-7 2q-33 -77 -87 -121.5
t-113 -44.5q-47 0 -73 31t-26 89q0 93 55 181.5t141 142.5t173 54zM375 445h-11q-66 0 -122 -49.5t-84.5 -118t-28.5 -134.5q0 -76 48 -76q37 0 80 48.5t68 143.5z" />
    <glyph glyph-name="e" unicode="e" horiz-adv-x="396" 
d="M272 440q-42 0 -78 -38.5t-58 -114.5q87 0 132 36t45 75q0 18 -11 30t-30 12zM130 260q-8 -38 -8 -86q0 -54 24.5 -80.5t62.5 -26.5q33 0 64.5 19t46.5 51l20 -10q-21 -67 -73 -104t-109 -37q-65 0 -102 41.5t-37 113.5q0 53 21 112t58 111.5t96 86.5t127 34
q42 0 65 -22.5t23 -56.5q0 -24 -11.5 -47.5t-36.5 -47t-75.5 -38t-119.5 -14.5q-24 0 -36 1z" />
    <glyph glyph-name="f" unicode="f" horiz-adv-x="298" 
d="M-28 -145q18 0 28.5 18t21.5 70l105 467h-69l5 28q74 7 83 49q42 207 187 207q46 0 65.5 -21t19.5 -51q0 -29 -18.5 -47t-38.5 -18q-18 0 -32 13t-14 34q0 36 -28 36q-26 0 -37.5 -31.5t-11.5 -76.5q0 -33 7 -63h99l-13 -59h-96q-8 -33 -44 -165t-57 -216
q-55 -219 -195 -219q-39 0 -58 17.5t-19 45.5q0 25 14.5 41t36.5 16q17 0 25.5 -11.5t9.5 -26t6.5 -26t17.5 -11.5z" />
    <glyph glyph-name="g" unicode="g" horiz-adv-x="475" 
d="M90 10q-45 -16 -45 -56q0 -36 44 -62t121 -26q57 0 93.5 21.5t36.5 53.5q0 21 -18.5 32.5t-65.5 15.5q-123 10 -166 21zM279 483q24 0 63.5 -8t76.5 -8q22 0 51 3t32 3q5 0 5 -14q0 -16 -6 -35t-14 -19q-71 0 -114 16q21 -17 35 -47.5t14 -60.5q0 -64 -53 -111.5
t-155 -47.5q-106 0 -106 -36q0 -10 9 -16.5t31 -10.5t39 -6t54 -4.5t55 -4.5q63 -6 88.5 -29.5t25.5 -66.5q0 -67 -71 -124t-188 -57q-88 0 -141.5 31.5t-53.5 80.5q0 35 31 66.5t81 44.5q-45 15 -45 60q0 32 35 58t97 37q-82 37 -82 124q0 71 55.5 126.5t150.5 55.5z
M270 445q-45 0 -72 -51t-27 -116q0 -91 60 -91q40 0 68.5 51.5t28.5 118.5q0 88 -58 88z" />
    <glyph glyph-name="h" unicode="h" horiz-adv-x="525" 
d="M195 327q43 72 102 115t117 43q35 0 56 -21.5t21 -61.5q0 -37 -44 -155.5t-44 -150.5q0 -29 21 -29q16 0 31 15t21 38l23 -10q-10 -43 -52.5 -80t-92.5 -37q-29 0 -42 12.5t-13 40.5q0 32 24 113q4 14 21.5 65.5t27.5 88.5t10 59q0 43 -33 43q-37 0 -89.5 -57t-82.5 -145
l-12 -38q-10 -34 -38 -162q-3 -15 -53 -15t-50 15l149 592q2 10 2 14q0 24 -29 24h-15l5 28q131 16 150 20q6 2 9 2q12 0 12 -7q-72 -215 -112 -359z" />
    <glyph glyph-name="i" unicode="i" horiz-adv-x="266" 
d="M243 478q-104 -342 -104 -386q0 -24 18 -24q17 0 32.5 14.5t21.5 37.5l23 -10q-10 -43 -53.5 -80t-94.5 -37q-54 0 -54 53q0 32 37 177t41 168v8q0 28 -44 28l5 29q55 9 165 29zM224 682q24 0 41 -16.5t17 -40.5t-17 -41t-41 -17t-40.5 17t-16.5 41t16.5 40.5t40.5 16.5z
" />
    <glyph glyph-name="j" unicode="j" horiz-adv-x="255" 
d="M244 478q-27 -77 -100 -365q-13 -51 -22.5 -82t-24 -70.5t-30.5 -63t-38 -45.5t-50 -32t-63 -10q-34 0 -54.5 19t-20.5 42q0 25 14 39.5t33 14.5q17 0 29 -11.5t12 -32.5q0 -16 5 -21.5t18 -5.5q6 0 11 2t9 6t7 8.5t6.5 13t5.5 15.5t5 18.5t5 20t5.5 23t5.5 24.5
q13 54 49 197t48 199q2 16 2 18q0 28 -44 28l5 29q55 9 165 29zM224 682q24 0 41 -16.5t17 -40.5t-17 -41t-41 -17t-40.5 17t-16.5 41t16.5 40.5t40.5 16.5z" />
    <glyph glyph-name="k" unicode="k" horiz-adv-x="472" 
d="M166 613v7q0 23 -28 23h-15l5 28q131 16 150 20q6 2 9 2q12 0 12 -7q-8 -24 -37 -125.5t-72.5 -264.5t-70.5 -283q-3 -15 -53 -15t-50 15l141 562zM293 0q-19 35 -39.5 76.5t-43 90t-32.5 69.5l144 133q23 22 23 42q0 30 -33 30l4 28h188l-2 -28q-36 -2 -91 -49
l-139 -120q24 -44 46 -88l33 -66q44 -90 79 -90l-3 -28h-134z" />
    <glyph glyph-name="l" unicode="l" horiz-adv-x="262" 
d="M136 92q0 -24 18 -24q17 0 32.5 14.5t21.5 37.5l23 -10q-10 -43 -53 -80t-94 -37q-55 0 -55 53q0 31 17 96l117 463q2 10 2 14q0 24 -29 24h-15l5 28q131 16 150 20q6 2 9 2q12 0 12 -7q-17 -49 -65 -213t-88 -330q-8 -34 -8 -51z" />
    <glyph glyph-name="m" unicode="m" horiz-adv-x="765" 
d="M470 404q0 -24 -7 -50q35 61 85.5 96t103.5 35q35 0 56.5 -22t21.5 -62q0 -27 -15 -69l-48 -133q-25 -67 -26 -103q0 -28 19 -28q17 0 32.5 14.5t21.5 37.5l23 -10q-10 -43 -52.5 -80t-92.5 -37q-29 0 -42 12.5t-13 40.5q0 36 31 135l19 61q35 112 35 129q0 44 -33 44
q-41 0 -91 -64.5t-76 -153.5q-39 -139 -48 -184q-3 -15 -48 -15q-48 0 -48 15q11 41 39.5 148t43.5 166l7 29q2 10 2 15q0 44 -33 44q-37 0 -88 -61.5t-79 -159.5q-20 -69 -43 -181q-3 -15 -53 -15t-50 15l94 375q1 3 1 10q0 17 -10.5 23t-33.5 6l5 29q58 11 149 29l8 -6
q-15 -37 -40 -142q39 63 94.5 105.5t103.5 42.5q36 0 55.5 -21.5t19.5 -59.5z" />
    <glyph glyph-name="n" unicode="n" horiz-adv-x="527" 
d="M424 67q16 0 31 15t21 38l23 -10q-10 -43 -52.5 -80t-92.5 -37q-29 0 -42 12.5t-13 40.5q0 29 31 135l18 61q3 10 13.5 43.5t15.5 53.5t5 33q0 43 -33 43q-40 0 -96.5 -65t-83.5 -162q-21 -72 -42 -175q-3 -15 -53 -15t-50 15l94 376q1 3 1 9q0 17 -10.5 23t-33.5 6l5 29
q58 11 149 29l8 -6q-20 -47 -41 -150q42 71 101 113.5t117 42.5q35 0 56 -21.5t21 -61.5q0 -27 -13 -65l-61 -174q-14 -39 -14 -67q0 -29 21 -29z" />
    <glyph glyph-name="o" unicode="o" horiz-adv-x="454" 
d="M307 485q68 0 103 -44t35 -114q0 -51 -20.5 -109t-56 -110.5t-92 -87t-120.5 -34.5q-70 0 -105 43.5t-35 114.5q0 127 87.5 234t203.5 107zM270 436q-55 0 -98.5 -87.5t-43.5 -197.5q0 -121 59 -121q56 0 99.5 88.5t43.5 197.5q0 120 -60 120z" />
    <glyph glyph-name="p" unicode="p" horiz-adv-x="500" 
d="M192 331l15 20q33 60 80.5 97t101.5 37q49 0 74.5 -31.5t25.5 -84.5q0 -57 -27 -121.5t-73 -121.5t-117.5 -94.5t-150.5 -37.5q-23 -97 -23 -127q0 -17 9 -23t38 -6q14 -4 20 -7q0 -3 -0.5 -10t-0.5 -11h-226q0 4 0.5 14t0.5 14q36 0 47 32q15 45 74 279.5t59 249.5
q0 28 -44 28l6 29q49 9 147 29l7 -6q-17 -44 -43 -148zM131 32h7q67 0 123.5 48.5t85.5 115.5t29 131q0 76 -45 76q-43 0 -81 -49.5t-65.5 -128t-53.5 -193.5z" />
    <glyph glyph-name="q" unicode="q" horiz-adv-x="481" 
d="M485 462q-19 -52 -85 -301.5t-66 -290.5q0 -19 9 -25.5t37 -6.5l-2 -28h-224q0 4 0.5 14t0.5 14q36 0 49.5 7.5t22.5 31.5q5 14 18 55t32.5 103t35.5 111l-6 2q-30 -71 -86 -115.5t-112 -44.5q-93 0 -93 118q0 66 32 135t82 122.5t116 87.5t130 34q28 0 58 -5t38 -5
q13 0 13 -13zM375 445h-10q-51 0 -97 -30t-76 -76t-47 -98t-17 -99q0 -34 12.5 -54t35.5 -20q34 0 76.5 47t65.5 130z" />
    <glyph glyph-name="r" unicode="r" horiz-adv-x="399" 
d="M308 407q-24 0 -66 -62t-67 -151q-25 -85 -43 -181q-3 -15 -53 -15t-50 15l91 359q5 22 5 26q0 29 -45 29l5 29q58 11 149 29l8 -6q-15 -35 -40 -140q87 144 165 144q29 0 45 -18.5t16 -50.5q0 -38 -21 -65t-49 -27q-17 0 -28.5 12t-11.5 32q0 5 1 13.5t1 11.5
q0 16 -12 16z" />
    <glyph glyph-name="s" unicode="s" horiz-adv-x="377" 
d="M372 455l-27 -134q-1 -5 -13 -5q-15 0 -15 17q1 5 1 13q0 45 -22.5 72.5t-58.5 27.5q-29 0 -47 -17t-18 -47q0 -26 24 -56t52.5 -54.5t52.5 -62t24 -76.5q0 -71 -50 -108.5t-132 -37.5q-24 0 -70.5 7t-63.5 7q-9 0 -9 9q0 5 1 9q22 107 31 145h27q-3 -16 -3 -32
q0 -49 27 -79t69 -30q37 0 57.5 19t20.5 53q0 22 -15.5 44t-37 42.5t-43.5 43t-37.5 52.5t-15.5 63q0 64 46.5 104.5t118.5 40.5q28 0 67.5 -8.5t45.5 -8.5q13 0 13 -11v-2z" />
    <glyph glyph-name="t" unicode="t" horiz-adv-x="319" 
d="M302 139q-24 -55 -77 -101.5t-113 -46.5q-31 0 -50 19.5t-19 58.5q0 13 5 35l74 306h-77l6 28q141 22 207 167h30q-30 -87 -43 -136h107l-13 -59h-111q-78 -269 -78 -304q0 -34 32 -34q25 0 52 20.5t47 57.5z" />
    <glyph glyph-name="u" unicode="u" horiz-adv-x="520" 
d="M320 145q-34 -69 -93 -110.5t-110 -41.5q-77 0 -77 85q2 29 40.5 151.5t38.5 166.5q0 30 -47 30l5 29l166 30l7 -6l-74 -256q-25 -87 -25 -118q0 -39 33 -39q36 0 86 58t79 161q25 90 43 177q3 16 53 16t50 -16l-89 -326q-7 -24 -7 -44q0 -25 24 -25q17 0 33.5 14.5
t22.5 39.5q3 -2 10.5 -5t11.5 -5q-8 -42 -51.5 -80.5t-87.5 -38.5q-55 0 -55 57q0 39 13 96z" />
    <glyph glyph-name="v" unicode="v" horiz-adv-x="397" 
d="M343 483q30 0 50 -19.5t20 -57.5q0 -42 -34 -97q-25 -45 -56 -92t-53.5 -77.5t-57.5 -77.5t-51 -68h-40q-32 321 -68 413q-12 34 -38 34l4 28h129q19 -73 36.5 -180.5t20.5 -181.5q48 68 83 138t35 102q0 21 -21 40.5t-21 39.5q0 25 18 40.5t44 15.5z" />
    <glyph glyph-name="w" unicode="w" horiz-adv-x="630" 
d="M576 483q30 0 49.5 -19.5t19.5 -57.5t-34 -96q-26 -47 -57 -94.5t-52.5 -77.5t-56.5 -76t-51 -68h-40q-3 109 -23 242q-21 -34 -45 -69t-40 -57.5t-43.5 -59.5t-41.5 -56h-40q-30 305 -75 420q-11 27 -23 27l3 28h120q20 -76 38 -182t21 -179q41 50 74.5 123.5
t33.5 128.5q0 41 -12 60.5t-29 20.5l3 28h108q19 -71 36 -178.5t19 -182.5q48 67 83 137t35 102q0 20 -21 39.5t-21 40.5q0 25 18 40.5t44 15.5z" />
    <glyph glyph-name="x" unicode="x" horiz-adv-x="443" 
d="M386 483q24 0 39 -14.5t15 -44.5q0 -39 -46.5 -88t-124.5 -86q10 -34 20 -71t14 -53.5t10 -32.5t12.5 -21t15.5 -5q23 0 41.5 18.5t25.5 43.5l20 -10q-4 -39 -45 -83t-96 -44q-13 0 -22.5 4t-17 13.5t-13 20.5t-11.5 30.5t-11 37.5t-13.5 48.5t-16.5 56.5
q-95 -58 -95 -112q0 -15 8.5 -29t8.5 -28q0 -22 -16 -35t-41 -13q-54 0 -54 56q0 43 46.5 92.5t134.5 95.5q-32 99 -56.5 147.5t-37 56t-33.5 8.5l3 27h139q35 -69 73 -189q93 61 93 100q0 10 -11.5 24t-11.5 32q0 20 14.5 33.5t39.5 13.5z" />
    <glyph glyph-name="y" unicode="y" horiz-adv-x="398" 
d="M344 483q30 0 50 -18t20 -55q0 -34 -42.5 -130.5t-103 -201.5t-138 -186.5t-137.5 -81.5q-38 0 -56.5 18.5t-18.5 43.5q0 24 15 42.5t38 18.5q16 0 24 -9t10 -19.5t9 -19.5t21 -9q38 0 69 49t31 133q0 73 -19.5 164t-47.5 155t-51 64q1 5 2 14t2 14h125q73 -190 80 -386
q41 58 68.5 143t27.5 123q0 19 -20 38t-20 41q0 25 18 40t44 15z" />
    <glyph glyph-name="z" unicode="z" horiz-adv-x="420" 
d="M355 170h29l-37 -170h-350q-7 0 -7 11q0 5 2 7l322 365h-109q-58 0 -79.5 -17.5t-34.5 -68.5h-28l37 172h333q8 0 8 -12q0 -4 -2 -6l-320 -366h105q58 0 86.5 15t44.5 70z" />
    <glyph glyph-name="braceleft" unicode="{" horiz-adv-x="380" 
d="M246 -193l-11 -26q-83 10 -127.5 51t-33.5 117q3 35 33 99.5t33 90.5q11 83 -87 91l8 31q113 7 136 100q5 20 7.5 75.5t8.5 82.5q18 71 87.5 125.5t166.5 64.5l-3 -26q-62 -9 -93 -35.5t-42 -72.5q-6 -27 -7 -79.5t-8 -77.5q-15 -62 -70 -112.5t-129 -59.5
q65 -12 94.5 -53t21.5 -96q-3 -39 -34 -103t-34 -92q-6 -38 11.5 -62.5t71.5 -32.5z" />
    <glyph glyph-name="bar" unicode="|" horiz-adv-x="360" 
d="M244 678h110l-216 -868h-110z" />
    <glyph glyph-name="braceright" unicode="}" horiz-adv-x="380" 
d="M156 683l11 26q83 -11 127.5 -52t33.5 -116q-4 -36 -33.5 -100t-32.5 -90q-6 -38 14.5 -62.5t71.5 -28.5l-8 -31q-112 -7 -135 -100q-5 -20 -7.5 -75.5t-8.5 -82.5q-18 -71 -87.5 -125.5t-166.5 -64.5l2 26q62 9 93 35.5t43 72.5q6 27 7 79.5t8 77.5q15 62 70 112.5
t129 59.5q-65 12 -94.5 53t-21.5 96q3 39 34 102.5t34 91.5q6 38 -11.5 62.5t-71.5 33.5z" />
    <glyph glyph-name="asciitilde" unicode="~" horiz-adv-x="566" 
d="M560 351h27q-20 -76 -66 -118.5t-105 -42.5q-36 0 -73 14.5t-62.5 32t-59 32t-63.5 14.5q-77 0 -115 -88h-27q23 80 69 120.5t102 40.5q49 0 92 -23.5t81.5 -47t77.5 -23.5q90 0 122 89z" />
    <glyph glyph-name="nbspace" unicode="&#xa0;" horiz-adv-x="184" 
 />
    <glyph glyph-name="exclamdown" unicode="&#xa1;" horiz-adv-x="342" 
d="M27 -132q17 51 72 178.5t93 235.5h29q-16 -116 -29 -279v-18q-6 -75 -13 -117q-8 -43 -35 -64t-62 -21q-26 0 -43 12.5t-17 37.5q0 20 5 35zM231 342q-29 0 -50 21t-21 50q0 30 20.5 50.5t50.5 20.5t51 -20.5t21 -50.5q0 -29 -21 -50t-51 -21z" />
    <glyph glyph-name="cent" unicode="&#xa2;" horiz-adv-x="426" 
d="M446 500q0 -36 -19.5 -56.5t-43.5 -20.5q-21 0 -34 14.5t-13 42.5v24l-141 -306q22 -23 56 -23q35 0 68 23t52 66l22 -11q-23 -70 -80.5 -113.5t-120.5 -43.5q-22 0 -39 9l-47 -105h-42l55 122q-54 39 -54 130q0 119 76 222t188 112l42 92h42l-42 -94q75 -10 75 -84z
M169 281q0 -24 4 -39l136 299q-55 6 -97.5 -82t-42.5 -178z" />
    <glyph glyph-name="sterling" unicode="&#xa3;" horiz-adv-x="612" 
d="M174 98q-34 12 -62 12q-26 0 -42.5 -12.5t-16.5 -29.5q0 -29 33 -29q51 0 88 59zM411 648q-60 0 -90.5 -42t-30.5 -139q0 -27 7 -106h117l-8 -57h-110q-1 -43 -19.5 -93t-46.5 -88q83 -34 170 -34q106 0 133 94l23 -4q-28 -194 -170 -194q-38 0 -66 14t-62.5 44t-50.5 41
q-27 -42 -62.5 -65t-69.5 -23q-31 0 -49 18.5t-18 44.5q0 35 28.5 62t77.5 27q44 0 82 -14q21 57 21 103q0 29 -11 67h-109l9 57h88q0 2 -6 29.5t-8.5 49.5t-2.5 47q0 86 65.5 145t178.5 59q93 0 141 -31t48 -87q0 -40 -20.5 -63t-52.5 -23q-22 0 -37 13.5t-15 38.5
q0 10 3 25t3 23q0 31 -18 46t-62 15z" />
    <glyph glyph-name="currency" unicode="&#xa4;" horiz-adv-x="584" 
d="M524 457q27 -49 11 -116q-16 -69 -70 -117l55 -74l-66 -52l-56 75q-60 -32 -121 -32t-106 34l-95 -76l-38 51l92 74q-27 48 -11 117q16 65 67 114l-55 73l65 53l58 -75q59 32 122 32t107 -32l92 75l39 -52zM360 474q-54 0 -96.5 -38.5t-56.5 -94.5q-15 -58 8.5 -97
t77.5 -39t96.5 39t57.5 97q14 56 -9.5 94.5t-77.5 38.5z" />
    <glyph glyph-name="yen" unicode="&#xa5;" horiz-adv-x="646" 
d="M258 165h-173l16 65h172l13 51l-22 63h-138l16 65h99q-12 31 -24.5 67t-19.5 56.5t-16 43t-15.5 34t-16 22t-19.5 14.5t-23 4v28h264v-28q-34 -2 -47.5 -12.5t-13.5 -37.5q2 -16 7 -32l77 -220l177 216q20 29 20 49q0 37 -59 37v28h217v-28q-24 -1 -54 -21.5t-85 -85.5
l-112 -134h104l-16 -65h-142l-36 -43l-3 -13q-5 -24 -14 -58h165l-15 -65h-165q-1 -6 -6 -23.5t-7 -27.5l-3 -17q-5 -27 -5 -38q0 -18 6 -24.5t21 -6.5h12v-28h-219v28h12q22 0 34.5 18t24.5 68z" />
    <glyph glyph-name="brokenbar" unicode="&#xa6;" horiz-adv-x="360" 
d="M104 119h110l-76 -309h-110zM286 406h-110l68 272h110z" />
    <glyph glyph-name="section" unicode="&#xa7;" horiz-adv-x="534" 
d="M327 60q30 -42 30 -86q0 -68 -54 -119t-143 -51q-72 0 -114 27.5t-42 73.5q0 35 20.5 55t47.5 20q20 0 33.5 -12t13.5 -34q0 -4 -2.5 -19t-2.5 -23q0 -54 61 -54q37 0 62.5 24.5t25.5 64.5q0 30 -22 61t-53.5 59t-63 57.5t-53.5 67.5t-22 78q0 67 44 114t116 65
q-29 42 -29 87q0 65 52.5 118t141.5 53q65 0 110 -25.5t45 -79.5q0 -31 -18 -51t-49 -20q-21 0 -35 12t-14 34q0 8 3 22t3 22q0 22 -14 36.5t-41 14.5q-39 0 -64 -22.5t-25 -65.5q0 -30 22 -61t53 -59t62 -57t53 -68t22 -80q0 -73 -47 -119.5t-113 -59.5zM309 83
q37 13 58 45t21 68q0 37 -25 70.5t-72 75.5t-66 65q-36 -13 -55.5 -45t-19.5 -70q0 -37 23.5 -70.5t71 -76t64.5 -62.5z" />
    <glyph glyph-name="dieresis" unicode="&#xa8;" horiz-adv-x="415" 
d="M109 652q23 0 39 -17.5t15 -41.5t-18 -41.5t-40 -17.5t-39.5 17.5t-15.5 41.5q2 24 19 41.5t40 17.5zM310 652q23 0 39 -17.5t15 -41.5t-18 -41.5t-40 -17.5t-39.5 17.5t-15.5 41.5q2 24 19 41.5t40 17.5z" />
    <glyph glyph-name="copyright" unicode="&#xa9;" horiz-adv-x="798" 
d="M569 561v-161q0 -6 -13 -6q-12 0 -12 6q-2 66 -35.5 107t-86.5 41q-66 0 -104 -55t-38 -152t43.5 -148.5t113.5 -51.5q52 0 86.5 28t45.5 75l21 -8q-10 -60 -56.5 -102.5t-125.5 -42.5q-99 0 -164 68.5t-65 174.5q0 103 69.5 177.5t175.5 74.5q23 0 43.5 -2t37.5 -5.5
t27 -6t23 -7t14 -4.5zM409 687q145 0 247.5 -102t102.5 -247t-102.5 -247t-247.5 -102t-247.5 102t-102.5 247t102.5 247t247.5 102zM409 648q-126 0 -214 -90t-88 -220t88 -220.5t214 -90.5q125 0 213 90.5t88 220.5t-87.5 220t-213.5 90z" />
    <glyph glyph-name="ordfeminine" unicode="&#xaa;" horiz-adv-x="394" 
d="M341 656q-73 0 -123 -67t-50 -145q0 -53 34 -53q26 0 55.5 34t48.5 101q7 27 35 130zM422 422q-7 -31 -36.5 -57.5t-58.5 -26.5q-36 0 -36 43q0 25 12 68q-1 0 -2 0.5t-2 0.5q-23 -54 -61 -85t-79 -31q-69 0 -69 84q0 95 79.5 180t170.5 85q77 0 77 -16q-14 -43 -61 -223
q-6 -26 -6 -36q0 -18 17 -18q11 0 23 10.5t16 27.5z" />
    <glyph glyph-name="guillemotleft" unicode="&#xab;" horiz-adv-x="546" 
d="M186 253l66 -232l-24 -19l-160 202q-13 18 -9 35q4 16 27 34l259 199l15 -18zM395 253l66 -232l-24 -19l-160 202q-13 19 -9 35t28 34l259 199l15 -18z" />
    <glyph glyph-name="logicalnot" unicode="&#xac;" horiz-adv-x="595" 
d="M66 373l16 66h545l-57 -229h-64l41 163h-481z" />
    <glyph glyph-name="registered" unicode="&#xae;" horiz-adv-x="554" 
d="M245 455v-65q0 -20 3.5 -27t12.5 -7h6v-17h-92v17h4q9 0 12.5 7t3.5 27v169q0 21 -3.5 27.5t-12.5 6.5h-4v17h133q40 -3 61.5 -24t21.5 -51q0 -26 -19 -46t-49 -27q26 -40 49.5 -66t34 -32.5t16.5 -7.5v-17h-68q-41 51 -82 115h-10q-13 0 -18 1zM245 476q18 -2 26 -2
q64 0 64 59q0 56 -64 56q-8 0 -24 -2q0 -9 -0.5 -26t-1 -42t-0.5 -43zM287 660q-80 0 -134.5 -56t-54.5 -137t54.5 -137.5t134.5 -56.5t134 56.5t54 137.5t-54 137t-134 56zM287 694q95 0 161 -66t66 -161t-66 -161t-161 -66t-161 66t-66 161t66 161t161 66z" />
    <glyph glyph-name="macron" unicode="&#xaf;" horiz-adv-x="360" 
d="M66 635h244l-16 -76h-244z" />
    <glyph glyph-name="macron" unicode="&#x2c9;" horiz-adv-x="360" 
d="M66 635h244l-16 -76h-244z" />
    <glyph glyph-name="degree" unicode="&#xb0;" horiz-adv-x="422" 
d="M250 336q-62 0 -95 33.5t-33 96.5q0 85 59.5 154.5t144.5 69.5q63 0 96 -39.5t33 -97.5q0 -90 -62 -153.5t-143 -63.5zM264 371q42 0 71 65.5t29 139.5q0 79 -47 79q-42 0 -73.5 -65.5t-31.5 -139.5q0 -79 52 -79z" />
    <glyph glyph-name="plusminus" unicode="&#xb1;" horiz-adv-x="573" 
d="M306 143h-69l56 225h-224q6 29 17 70h224l57 225h69l-57 -225h226q-11 -41 -17 -70h-226zM496 0h-519l18 69h519z" />
    <glyph glyph-name="twosuperior" unicode="&#xb2;" horiz-adv-x="408" 
d="M98 355q119 76 171 124.5t52 96.5q0 27 -16 42t-40 15q-52 0 -73 -64l-22 3q7 51 43 83t84 32q44 0 71.5 -23.5t27.5 -65.5q0 -55 -47 -99t-147 -102h67q41 0 57 9.5t30 37.5l22 -2l-42 -102h-235q-3 3 -3 12v3z" />
    <glyph glyph-name="threesuperior" unicode="&#xb3;" horiz-adv-x="396" 
d="M203 604q-12 5 -15 8q39 75 121 75q39 0 59.5 -18t20.5 -44q0 -60 -89 -99q31 -1 49 -22t18 -50q0 -51 -52 -93t-120 -42q-74 0 -74 47q0 19 16 34.5t41 16.5q-1 -5 -1 -14q0 -47 43 -47q38 0 59.5 25.5t21.5 51.5q0 62 -87 62l5 21q49 7 74 29t25 54q0 19 -12 31.5
t-36 12.5q-34 0 -58 -26z" />
    <glyph glyph-name="acute" unicode="&#xb4;" horiz-adv-x="315" 
d="M254 654l-180 -133l-24 7l113 150h90q12 0 12 -10q-1 -7 -11 -14z" />
    <glyph glyph-name="mu" unicode="&#xb5;" horiz-adv-x="543" 
d="M92 0q-13 -122 -14 -126q-21 -77 -82 -77q-37 0 -37 43q0 20 10 47q68 171 103 286q55 181 55 223q0 30 -47 30l5 29l166 30l7 -6l-74 -256q-25 -87 -25 -118q0 -39 33 -39q36 0 86 58t79 161q25 90 43 177q3 16 53 16t50 -16l-89 -326q-7 -24 -7 -44q0 -25 24 -25
q17 0 33.5 14.5t22.5 39.5q3 -2 10.5 -5t11.5 -5q-8 -42 -51.5 -80.5t-87.5 -38.5q-55 0 -55 57q0 39 13 96q-34 -69 -93 -110.5t-110 -41.5q-17 0 -33 7z" />
    <glyph glyph-name="mu" unicode="&#x3bc;" horiz-adv-x="543" 
d="M92 0q-13 -122 -14 -126q-21 -77 -82 -77q-37 0 -37 43q0 20 10 47q68 171 103 286q55 181 55 223q0 30 -47 30l5 29l166 30l7 -6l-74 -256q-25 -87 -25 -118q0 -39 33 -39q36 0 86 58t79 161q25 90 43 177q3 16 53 16t50 -16l-89 -326q-7 -24 -7 -44q0 -25 24 -25
q17 0 33.5 14.5t22.5 39.5q3 -2 10.5 -5t11.5 -5q-8 -42 -51.5 -80.5t-87.5 -38.5q-55 0 -55 57q0 39 13 96q-34 -69 -93 -110.5t-110 -41.5q-17 0 -33 7z" />
    <glyph glyph-name="paragraph" unicode="&#xb6;" horiz-adv-x="481" 
d="M568 635h-46l-205 -825h-59l206 825h-71l-205 -825h-59l122 491q-219 10 -175 190q21 82 86 134.5t174 52.5h243z" />
    <glyph glyph-name="periodcentered" unicode="&#xb7;" horiz-adv-x="256" 
d="M57 256q0 31 22 53.5t54 22.5q31 0 53.5 -22t22.5 -54q0 -31 -22 -53t-54 -22t-54 21.5t-22 53.5z" />
    <glyph glyph-name="periodcentered" unicode="&#x2219;" horiz-adv-x="256" 
d="M57 256q0 31 22 53.5t54 22.5q31 0 53.5 -22t22.5 -54q0 -31 -22 -53t-54 -22t-54 21.5t-22 53.5z" />
    <glyph glyph-name="cedilla" unicode="&#xb8;" horiz-adv-x="324" 
d="M132 -83l64 83h41l-49 -53q43 0 66 -22t19 -54q-5 -40 -46.5 -68t-112.5 -28q-47 0 -64 11l17 25q16 -7 44 -7q77 0 84 53q2 16 -11.5 27.5t-41.5 11.5q-17 0 -17 10q1 3 7 11z" />
    <glyph glyph-name="onesuperior" unicode="&#xb9;" horiz-adv-x="397" 
d="M344 337h-187v25h27q23 0 31.5 8t15.5 34q7 29 22 87.5t22 87.5q3 15 3 17q0 10 -9 10q-7 0 -65 -23l-5 25q134 57 162 74q1 1 4 1q6 0 6 -3q-23 -74 -73 -276l-2 -7q-2 -8 -2 -19q0 -16 28 -16h22v-25z" />
    <glyph glyph-name="ordmasculine" unicode="&#xba;" horiz-adv-x="389" 
d="M310 687q48 0 72 -30.5t24 -79.5t-23 -102.5t-71.5 -95t-107.5 -41.5q-49 0 -73.5 30.5t-24.5 80.5q0 89 61.5 163.5t142.5 74.5zM284 653q-38 0 -68.5 -60.5t-30.5 -137.5q0 -86 41 -86q38 0 69 60.5t31 134.5q0 89 -42 89z" />
    <glyph glyph-name="guillemotright" unicode="&#xbb;" horiz-adv-x="546" 
d="M389 221l-66 232l24 19l160 -203q14 -17 9 -34q-4 -17 -27 -34l-259 -199l-16 18zM180 221l-66 232l24 19l159 -203q13 -16 10 -34q-4 -18 -28 -34l-259 -199l-16 18z" />
    <glyph glyph-name="onequarter" unicode="&#xbc;" horiz-adv-x="654" 
d="M371 122h96l39 153q-74 -72 -135 -153zM531 122h46l-13 -52h-46l-17 -70h-64l17 70h-152q-3 6 -3 11t3 10q99 124 244 273q6 2 20 2q12 0 28 -2q-3 -10 -11 -37.5t-19 -69t-23 -96.5zM649 678h70l-655 -678h-70zM279 337h-187v25h27q23 0 31.5 8t15.5 34q7 29 22 87.5
t22 87.5q3 15 3 17q0 10 -9 10q-8 0 -65 -23l-5 25q134 57 162 74q1 1 4 1q6 0 6 -3q-23 -74 -73 -276l-2 -7q-2 -8 -2 -19q0 -16 28 -16h22v-25z" />
    <glyph glyph-name="onehalf" unicode="&#xbd;" horiz-adv-x="654" 
d="M649 678h70l-655 -678h-70zM307 15q118 76 170 124.5t52 95.5q0 28 -15.5 43t-39.5 15q-52 0 -73 -64l-23 3q7 51 43.5 83t83.5 32q45 0 72.5 -23.5t27.5 -65.5q0 -54 -47.5 -98.5t-147.5 -102.5h68q40 0 56.5 9.5t30.5 37.5l21 -2l-42 -102h-235q-2 2 -2 11v4zM279 337
h-187v25h27q23 0 31.5 8t15.5 34q7 29 22 87.5t22 87.5q3 15 3 17q0 10 -9 10q-8 0 -65 -23l-5 25q134 57 162 74q1 1 4 1q6 0 6 -3q-23 -74 -73 -276l-2 -7q-2 -8 -2 -19q0 -16 28 -16h22v-25z" />
    <glyph glyph-name="threequarters" unicode="&#xbe;" horiz-adv-x="654" 
d="M166 604q-12 5 -15 8q37 75 120 75q39 0 60 -18t21 -45q0 -59 -89 -98q30 -1 48 -22t18 -50q0 -51 -51.5 -93t-119.5 -42q-74 0 -74 46q0 20 15 35.5t41 16.5q-1 -5 -1 -14q0 -47 44 -47q37 0 58.5 24.5t21.5 51.5q0 63 -87 63l6 21q49 8 74 30t25 54q0 19 -12.5 31
t-35.5 12q-34 0 -58 -26zM653 678h70l-655 -678h-69q96 100 205 213t242.5 251.5t206.5 213.5zM371 122h96l39 153q-74 -72 -135 -153zM531 122h46l-13 -52h-46l-17 -70h-64l17 70h-152q-3 6 -3 11t3 10q99 124 244 273q8 2 21 2q11 0 27 -2q-3 -10 -11 -37.5t-19 -69
t-23 -96.5z" />
    <glyph glyph-name="questiondown" unicode="&#xbf;" horiz-adv-x="469" 
d="M304 283h31q-1 -45 -21.5 -85.5t-48.5 -72t-56 -62.5t-47.5 -69.5t-19.5 -80.5q0 -95 87 -95q43 0 63.5 19t20.5 50q0 15 -8 36t-8 36q0 29 20.5 46t47.5 17q28 0 47.5 -19t19.5 -55q0 -68 -58 -117t-152 -49q-96 0 -149 44t-53 121q0 48 28.5 88.5t69.5 69t82.5 54.5
t71.5 58t32 66zM413 414q0 -29 -20.5 -50t-50.5 -21q-29 0 -50 21t-21 50q0 30 20.5 50.5t50.5 20.5t50.5 -20.5t20.5 -50.5z" />
    <glyph glyph-name="Agrave" unicode="&#xc0;" horiz-adv-x="622" 
d="M334 526q-18 -37 -71 -123l-94 -149h199l-19 146q-11 86 -15 126zM390 99l-15 112h-232q-4 -6 -31 -49l-15 -24q-26 -43 -26 -74q0 -19 16 -27.5t56 -8.5v-28h-234v28q19 0 40.5 17t69 79.5t119.5 176.5l241 383h47l81 -485q15 -85 24.5 -119t19.5 -43t32 -9v-28h-269v28
q40 0 58.5 10.5t18.5 38.5q0 14 -1 22zM293 811q-8 6 -8 14q0 11 15 11h90l77 -128l-24 -6z" />
    <glyph glyph-name="Aacute" unicode="&#xc1;" horiz-adv-x="622" 
d="M334 526q-18 -37 -71 -123l-94 -149h199l-19 146q-11 86 -15 126zM390 99l-15 112h-232q-4 -6 -31 -49l-15 -24q-26 -43 -26 -74q0 -19 16 -27.5t56 -8.5v-28h-234v28q19 0 40.5 17t69 79.5t119.5 176.5l241 383h47l81 -485q15 -85 24.5 -119t19.5 -43t32 -9v-28h-269v28
q40 0 58.5 10.5t18.5 38.5q0 14 -1 22zM550 813l-206 -112l-24 6l125 129h103q13 0 13 -10q-2 -6 -11 -13z" />
    <glyph glyph-name="Acircumflex" unicode="&#xc2;" horiz-adv-x="622" 
d="M334 526q-18 -37 -71 -123l-94 -149h199l-19 146q-11 86 -15 126zM390 99l-15 112h-232q-4 -6 -31 -49l-15 -24q-26 -43 -26 -74q0 -19 16 -27.5t56 -8.5v-28h-234v28q19 0 40.5 17t69 79.5t119.5 176.5l241 383h47l81 -485q15 -85 24.5 -119t19.5 -43t32 -9v-28h-269v28
q40 0 58.5 10.5t18.5 38.5q0 14 -1 22zM274 712l119 121q16 16 45 16q28 0 35 -15l69 -122l-25 -4l-100 68l-122 -68z" />
    <glyph glyph-name="Atilde" unicode="&#xc3;" horiz-adv-x="622" 
d="M334 526q-18 -37 -71 -123l-94 -149h199l-19 146q-11 86 -15 126zM390 99l-15 112h-232q-4 -6 -31 -49l-15 -24q-26 -43 -26 -74q0 -19 16 -27.5t56 -8.5v-28h-234v28q19 0 40.5 17t69 79.5t119.5 176.5l241 383h47l81 -485q15 -85 24.5 -119t19.5 -43t32 -9v-28h-269v28
q40 0 58.5 10.5t18.5 38.5q0 14 -1 22zM264 714h-27q12 53 44 89t72 36q36 0 73 -33.5t56 -33.5q24 0 42.5 18.5t23.5 46.5h26q-12 -67 -46.5 -97t-74.5 -30q-32 0 -69.5 33.5t-55.5 33.5q-22 0 -40 -16.5t-24 -46.5z" />
    <glyph glyph-name="Adieresis" unicode="&#xc4;" horiz-adv-x="622" 
d="M334 526q-18 -37 -71 -123l-94 -149h199l-19 146q-11 86 -15 126zM390 99l-15 112h-232q-4 -6 -31 -49l-15 -24q-26 -43 -26 -74q0 -19 16 -27.5t56 -8.5v-28h-234v28q19 0 40.5 17t69 79.5t119.5 176.5l241 383h47l81 -485q15 -85 24.5 -119t19.5 -43t32 -9v-28h-269v28
q40 0 58.5 10.5t18.5 38.5q0 14 -1 22zM304 825q23 0 40 -17t17 -42q0 -24 -17 -41t-40 -17t-39.5 17t-16.5 41q0 25 16.5 42t39.5 17zM518 825q23 0 39.5 -17t16.5 -42q0 -24 -16.5 -41t-39.5 -17t-40 17t-17 41q0 25 17 42t40 17z" />
    <glyph glyph-name="Aring" unicode="&#xc5;" horiz-adv-x="622" 
d="M439 862q41 0 65.5 -27.5t16.5 -65.5q-7 -32 -33.5 -56.5t-61.5 -32.5l81 -481q15 -85 24.5 -119t19.5 -43t32 -9v-28h-269v28q40 0 58.5 10.5t18.5 38.5q0 14 -1 22l-15 112h-232q-4 -6 -31 -49l-15 -24q-26 -43 -26 -74q0 -19 16 -27.5t56 -8.5v-28h-234v28
q19 0 40.5 17t69 79.5t119.5 176.5l238 378q-32 8 -49 33t-10 57q8 38 44.5 65.5t77.5 27.5zM334 526q-18 -37 -71 -123l-94 -149h199l-19 146q-11 86 -15 126zM431 828q-20 0 -35.5 -16.5t-20.5 -42.5t3 -42t28 -16q21 0 36.5 16t20.5 42t-3 42.5t-29 16.5z" />
    <glyph glyph-name="AE" unicode="&#xc6;" horiz-adv-x="969" 
d="M437 254l69 279q-36 -43 -93 -104l-167 -175h191zM426 211h-218l-60 -63q-55 -57 -55 -90q0 -30 56 -30v-28h-241v28q28 0 92.5 54t221.5 219q44 45 94.5 96t112 112.5t94.5 95.5q1 6 1 16q0 17 -7 23t-22 6h-10v28h505l-42 -186h-28q4 19 4 40q0 105 -157 105h-106
q-55 -208 -71 -272h65q52 0 87 28t51 93h28q-24 -94 -70 -282h-28q9 38 9 57q0 65 -86 65h-66q-33 -127 -53 -208q-5 -20 -5 -31q0 -26 23.5 -37t81.5 -11q107 0 168.5 41t92.5 123h28l-60 -203h-527v28h10q10 0 18 3.5t15 13t11.5 18.5t10.5 28t9.5 33t10.5 41.5t12 45.5z
" />
    <glyph glyph-name="Ccedilla" unicode="&#xc7;" horiz-adv-x="603" 
d="M263 -17q-106 4 -167 66t-61 168q0 123 58.5 233t159 177t215.5 67q47 0 83.5 -5t57 -10.5t26.5 -5.5q11 0 11 -11l-50 -215q-2 -6 -14 -6q-14 0 -14 6q8 38 8 69q0 131 -128 131q-79 0 -143.5 -62.5t-97.5 -154t-33 -185.5q0 -93 42.5 -141t112.5 -48q66 0 119 35.5
t82 100.5l26 -11q-32 -85 -97.5 -137.5t-156.5 -59.5l-35 -37q44 0 66.5 -22t18.5 -54q-5 -40 -46 -68t-113 -28q-45 0 -64 11l17 25q16 -7 45 -7q77 0 84 53q2 16 -12 27.5t-41 11.5q-9 0 -13.5 2.5t-3.5 7.5q0 3 6 11z" />
    <glyph glyph-name="Egrave" unicode="&#xc8;" horiz-adv-x="627" 
d="M248 365h66q52 0 86 28t51 93h28q-46 -188 -70 -282h-28q8 30 8 54q0 36 -18 52t-67 16h-66q-11 -41 -28 -111.5t-24 -96.5q-5 -18 -5 -31q0 -27 23.5 -37.5t81.5 -10.5q106 0 167.5 41.5t92.5 122.5h28l-60 -203h-526v28h10q23 0 36.5 17.5t25.5 68.5l113 452q8 33 8 56
q0 16 -6.5 22t-21.5 6h-10v28h506l-42 -186h-28q4 28 4 41q0 104 -158 104h-105zM326 811q-9 6 -9 14q0 11 16 11h89q67 -111 77 -128l-24 -6z" />
    <glyph glyph-name="Eacute" unicode="&#xc9;" horiz-adv-x="627" 
d="M248 365h66q52 0 86 28t51 93h28q-46 -188 -70 -282h-28q8 30 8 54q0 36 -18 52t-67 16h-66q-11 -41 -28 -111.5t-24 -96.5q-5 -18 -5 -31q0 -27 23.5 -37.5t81.5 -10.5q106 0 167.5 41.5t92.5 122.5h28l-60 -203h-526v28h10q23 0 36.5 17.5t25.5 68.5l113 452q8 33 8 56
q0 16 -6.5 22t-21.5 6h-10v28h506l-42 -186h-28q4 28 4 41q0 104 -158 104h-105zM594 813l-206 -112l-24 6l125 129h103q13 0 13 -10q-2 -6 -11 -13z" />
    <glyph glyph-name="Ecircumflex" unicode="&#xca;" horiz-adv-x="627" 
d="M248 365h66q52 0 86 28t51 93h28q-46 -188 -70 -282h-28q8 30 8 54q0 36 -18 52t-67 16h-66q-11 -41 -28 -111.5t-24 -96.5q-5 -18 -5 -31q0 -27 23.5 -37.5t81.5 -10.5q106 0 167.5 41.5t92.5 122.5h28l-60 -203h-526v28h10q23 0 36.5 17.5t25.5 68.5l113 452q8 33 8 56
q0 16 -6.5 22t-21.5 6h-10v28h506l-42 -186h-28q4 28 4 41q0 104 -158 104h-105zM291 712l119 121q16 16 45 16q27 0 35 -15l69 -122l-25 -4l-100 68l-122 -68z" />
    <glyph glyph-name="Edieresis" unicode="&#xcb;" horiz-adv-x="627" 
d="M248 365h66q52 0 86 28t51 93h28q-46 -188 -70 -282h-28q8 30 8 54q0 36 -18 52t-67 16h-66q-11 -41 -28 -111.5t-24 -96.5q-5 -18 -5 -31q0 -27 23.5 -37.5t81.5 -10.5q106 0 167.5 41.5t92.5 122.5h28l-60 -203h-526v28h10q23 0 36.5 17.5t25.5 68.5l113 452q8 33 8 56
q0 16 -6.5 22t-21.5 6h-10v28h506l-42 -186h-28q4 28 4 41q0 104 -158 104h-105zM315 825q23 0 40 -17t17 -42q0 -24 -17 -41t-40 -17t-39.5 17t-16.5 41q0 25 16.5 42t39.5 17zM529 825q23 0 39.5 -17t16.5 -42q0 -24 -16.5 -41t-39.5 -17t-40 17t-17 41q0 25 17 42t40 17z
" />
    <glyph glyph-name="Igrave" unicode="&#xcc;" horiz-adv-x="343" 
d="M301 564q-41 -150 -117 -450q-9 -36 -9 -55q0 -18 6.5 -24.5t22.5 -6.5h10v-28h-226v28h10q23 0 36.5 17.5t25.5 68.5l113 450q9 36 9 54q0 32 -29 32h-10v28h230v-28h-10q-23 0 -36 -17.5t-26 -68.5zM199 811q-9 6 -9 14q0 11 16 11h89q67 -111 77 -128l-24 -6z" />
    <glyph glyph-name="Iacute" unicode="&#xcd;" horiz-adv-x="343" 
d="M301 564q-41 -150 -117 -450q-9 -36 -9 -55q0 -18 6.5 -24.5t22.5 -6.5h10v-28h-226v28h10q23 0 36.5 17.5t25.5 68.5l113 450q9 36 9 54q0 32 -29 32h-10v28h230v-28h-10q-23 0 -36 -17.5t-26 -68.5zM409 813q-174 -95 -205 -112l-25 6l125 129h104q12 0 12 -8
q0 -7 -11 -15z" />
    <glyph glyph-name="Icircumflex" unicode="&#xce;" horiz-adv-x="343" 
d="M301 564q-41 -150 -117 -450q-9 -36 -9 -55q0 -18 6.5 -24.5t22.5 -6.5h10v-28h-226v28h10q23 0 36.5 17.5t25.5 68.5l113 450q9 36 9 54q0 32 -29 32h-10v28h230v-28h-10q-23 0 -36 -17.5t-26 -68.5zM132 712l119 121q16 16 45 16q28 0 35 -15l69 -122l-25 -4l-100 68
l-122 -68z" />
    <glyph glyph-name="Idieresis" unicode="&#xcf;" horiz-adv-x="343" 
d="M301 564q-41 -150 -117 -450q-9 -36 -9 -55q0 -18 6.5 -24.5t22.5 -6.5h10v-28h-226v28h10q23 0 36.5 17.5t25.5 68.5l113 450q9 36 9 54q0 32 -29 32h-10v28h230v-28h-10q-23 0 -36 -17.5t-26 -68.5zM160 825q23 0 40 -17t17 -42q0 -24 -17 -41t-40 -17t-39.5 17
t-16.5 41q0 25 16.5 42t39.5 17zM374 825q23 0 39.5 -17t16.5 -42q0 -24 -16.5 -41t-39.5 -17t-40 17t-17 41q0 25 17 42t40 17z" />
    <glyph glyph-name="Eth" unicode="&#xd0;" horiz-adv-x="704" 
d="M110 313h-81l17 70h81l46 181q9 38 9 56q0 30 -29 30h-10v28h215q172 0 251 -80t79 -208q0 -80 -27 -149.5t-79.5 -123.5t-138.5 -85.5t-196 -31.5h-259v28h10q23 0 36.5 17.5t25.5 68.5zM235 313q-29 -109 -50 -199q-5 -16 -5 -33q0 -23 17.5 -32.5t59.5 -9.5
q77 0 136.5 35.5t93 93.5t50 121.5t16.5 128.5q0 103 -46.5 159.5t-139.5 56.5h-48l-66 -251h131l-17 -70h-132z" />
    <glyph glyph-name="Ntilde" unicode="&#xd1;" horiz-adv-x="700" 
d="M521 209q14 68 27 117l54 217q7 33 7 48q0 59 -73 59h-12v28h226v-28h-10q-24 0 -48 -23t-38 -80l-137 -547q-2 -8 -25 -8q-8 0 -13 3l-200 455q-30 65 -43 109q-5 -28 -27 -119l-73 -293q-9 -37 -9 -60q0 -33 20 -46t64 -13h14v-28h-242v28h10q30 0 51 26.5t37 90.5
l105 421q4 13 4 27q0 29 -16.5 43t-37.5 14h-10v28h197l155 -358q34 -79 43 -111zM312 714h-27q12 53 44 89t72 36q36 0 73 -33.5t56 -33.5q24 0 42.5 18.5t23.5 46.5h26q-12 -67 -46.5 -97t-74.5 -30q-32 0 -69.5 33.5t-55.5 33.5q-22 0 -40 -16.5t-24 -46.5z" />
    <glyph glyph-name="Ograve" unicode="&#xd2;" horiz-adv-x="715" 
d="M313 581q-63 -69 -98 -180.5t-35 -211.5q0 -79 28.5 -121t78.5 -42q79 0 143.5 76.5t97 183.5t32.5 211q0 73 -28.5 111.5t-80.5 38.5q-75 0 -138 -66zM699 433q0 -111 -55.5 -214.5t-153 -169t-208.5 -65.5q-109 0 -176.5 63.5t-67.5 184.5q0 126 61 233.5t156.5 167.5
t198.5 60q110 0 177.5 -69.5t67.5 -190.5zM384 811q-8 6 -8 14q0 11 15 11h90q10 -17 77 -128l-24 -6z" />
    <glyph glyph-name="Oacute" unicode="&#xd3;" horiz-adv-x="715" 
d="M313 581q-63 -69 -98 -180.5t-35 -211.5q0 -79 28.5 -121t78.5 -42q79 0 143.5 76.5t97 183.5t32.5 211q0 73 -28.5 111.5t-80.5 38.5q-75 0 -138 -66zM699 433q0 -111 -55.5 -214.5t-153 -169t-208.5 -65.5q-109 0 -176.5 63.5t-67.5 184.5q0 126 61 233.5t156.5 167.5
t198.5 60q110 0 177.5 -69.5t67.5 -190.5zM591 815q-31 -17 -205 -112l-25 6l125 128h104q12 0 12 -8q0 -9 -11 -14z" />
    <glyph glyph-name="Ocircumflex" unicode="&#xd4;" horiz-adv-x="715" 
d="M313 581q-63 -69 -98 -180.5t-35 -211.5q0 -79 28.5 -121t78.5 -42q79 0 143.5 76.5t97 183.5t32.5 211q0 73 -28.5 111.5t-80.5 38.5q-75 0 -138 -66zM699 433q0 -111 -55.5 -214.5t-153 -169t-208.5 -65.5q-109 0 -176.5 63.5t-67.5 184.5q0 126 61 233.5t156.5 167.5
t198.5 60q110 0 177.5 -69.5t67.5 -190.5zM318 712l119 121q16 16 45 16q28 0 35 -15l69 -122l-25 -4l-100 68l-122 -68z" />
    <glyph glyph-name="Otilde" unicode="&#xd5;" horiz-adv-x="715" 
d="M313 581q-63 -69 -98 -180.5t-35 -211.5q0 -79 28.5 -121t78.5 -42q79 0 143.5 76.5t97 183.5t32.5 211q0 73 -28.5 111.5t-80.5 38.5q-75 0 -138 -66zM699 433q0 -111 -55.5 -214.5t-153 -169t-208.5 -65.5q-109 0 -176.5 63.5t-67.5 184.5q0 126 61 233.5t156.5 167.5
t198.5 60q110 0 177.5 -69.5t67.5 -190.5zM335 714h-27q12 53 44 89t72 36q36 0 73 -33.5t56 -33.5q24 0 42.5 18.5t23.5 46.5h26q-12 -67 -46.5 -97t-74.5 -30q-32 0 -69.5 33.5t-55.5 33.5q-22 0 -40 -16.5t-24 -46.5z" />
    <glyph glyph-name="Odieresis" unicode="&#xd6;" horiz-adv-x="715" 
d="M313 581q-63 -69 -98 -180.5t-35 -211.5q0 -79 28.5 -121t78.5 -42q79 0 143.5 76.5t97 183.5t32.5 211q0 73 -28.5 111.5t-80.5 38.5q-75 0 -138 -66zM699 433q0 -111 -55.5 -214.5t-153 -169t-208.5 -65.5q-109 0 -176.5 63.5t-67.5 184.5q0 126 61 233.5t156.5 167.5
t198.5 60q110 0 177.5 -69.5t67.5 -190.5zM351 825q23 0 39.5 -17t16.5 -42q0 -24 -16.5 -41t-39.5 -17t-40 17t-17 41q0 25 17 42t40 17zM564 825q23 0 40 -17t17 -42q0 -24 -17 -41t-40 -17t-39.5 17t-16.5 41q0 25 16.5 42t39.5 17z" />
    <glyph glyph-name="multiply" unicode="&#xd7;" horiz-adv-x="580" 
d="M109 130l-36 49l202 162l-122 161l62 49l121 -161l202 161l36 -49l-202 -161l122 -162q-29 -24 -61 -49l-122 162z" />
    <glyph glyph-name="Oslash" unicode="&#xd8;" horiz-adv-x="715" 
d="M559 515l-371 -397q21 -92 99 -92q81 0 145.5 80t95.5 190t31 219zM181 182l367 393q-26 72 -98 72q-65 0 -119 -47t-85 -119.5t-48 -150.5t-17 -148zM114 39l-37 -39h-67l71 76q-43 60 -43 156q0 95 36 181.5t94 147t133.5 96.5t152.5 36q94 0 157 -51l33 36h68l-66 -71
q52 -69 52 -174q0 -111 -54.5 -214t-152 -169t-209.5 -66q-103 0 -168 55z" />
    <glyph glyph-name="Ugrave" unicode="&#xd9;" horiz-adv-x="701" 
d="M677 532q-20 -76 -76 -304q-29 -114 -117.5 -179t-204.5 -65q-92 0 -154 49t-62 135q0 26 8 60l87 352q6 24 6 39q0 31 -29 31h-10v28h239v-28h-20q-23 0 -36.5 -17.5t-26.5 -68.5q-17 -65 -46 -181t-39 -154q-5 -19 -5 -49q0 -60 41.5 -92t102.5 -32q72 0 132 45.5
t83 137.5q42 167 71 286q10 40 10 68q0 57 -51 57h-21v28h211v-28h-10q-21 0 -44 -26.5t-39 -91.5zM363 811q-8 6 -8 14q0 11 15 11h90q10 -17 77 -128l-24 -6z" />
    <glyph glyph-name="Uacute" unicode="&#xda;" horiz-adv-x="701" 
d="M677 532q-20 -76 -76 -304q-29 -114 -117.5 -179t-204.5 -65q-92 0 -154 49t-62 135q0 26 8 60l87 352q6 24 6 39q0 31 -29 31h-10v28h239v-28h-20q-23 0 -36.5 -17.5t-26.5 -68.5q-17 -65 -46 -181t-39 -154q-5 -19 -5 -49q0 -60 41.5 -92t102.5 -32q72 0 132 45.5
t83 137.5q42 167 71 286q10 40 10 68q0 57 -51 57h-21v28h211v-28h-10q-21 0 -44 -26.5t-39 -91.5zM618 813l-206 -112l-24 6l125 129h103q13 0 13 -10q-2 -6 -11 -13z" />
    <glyph glyph-name="Ucircumflex" unicode="&#xdb;" horiz-adv-x="701" 
d="M677 532q-20 -76 -76 -304q-29 -114 -117.5 -179t-204.5 -65q-92 0 -154 49t-62 135q0 26 8 60l87 352q6 24 6 39q0 31 -29 31h-10v28h239v-28h-20q-23 0 -36.5 -17.5t-26.5 -68.5q-17 -65 -46 -181t-39 -154q-5 -19 -5 -49q0 -60 41.5 -92t102.5 -32q72 0 132 45.5
t83 137.5q42 167 71 286q10 40 10 68q0 57 -51 57h-21v28h211v-28h-10q-21 0 -44 -26.5t-39 -91.5zM327 712l120 121q16 16 44 16q27 0 35 -15l69 -122l-24 -4l-100 68l-122 -68z" />
    <glyph glyph-name="Udieresis" unicode="&#xdc;" horiz-adv-x="701" 
d="M677 532q-20 -76 -76 -304q-29 -114 -117.5 -179t-204.5 -65q-92 0 -154 49t-62 135q0 26 8 60l87 352q6 24 6 39q0 31 -29 31h-10v28h239v-28h-20q-23 0 -36.5 -17.5t-26.5 -68.5q-17 -65 -46 -181t-39 -154q-5 -19 -5 -49q0 -60 41.5 -92t102.5 -32q72 0 132 45.5
t83 137.5q42 167 71 286q10 40 10 68q0 57 -51 57h-21v28h211v-28h-10q-21 0 -44 -26.5t-39 -91.5zM358 825q23 0 40 -17t17 -42q0 -24 -17 -41t-40 -17t-39.5 17t-16.5 41q0 25 16.5 42t39.5 17zM572 825q23 0 39.5 -17t16.5 -42q0 -24 -16.5 -41t-39.5 -17t-40 17t-17 41
q0 25 17 42t40 17z" />
    <glyph glyph-name="Yacute" unicode="&#xdd;" horiz-adv-x="617" 
d="M586 813l-206 -112l-24 6l125 129h103q13 0 13 -10q-2 -6 -11 -13zM369 291q-3 -13 -15 -58t-18.5 -72t-13 -59t-6.5 -45q0 -29 29 -29h13v-28h-232v28h13q23 0 36.5 17.5t25.5 68.5l42 167l-108 296q-16 39 -34 56t-44 17v28h276v-28q-65 -1 -65 -47q0 -14 8 -35
l81 -224l179 210q28 34 28 60q0 36 -60 36v28h229v-28q-26 -1 -57 -21t-88 -86z" />
    <glyph glyph-name="Thorn" unicode="&#xde;" horiz-adv-x="604" 
d="M294 541h69q121 0 178.5 -49t57.5 -124q0 -101 -84.5 -164.5t-213.5 -63.5q-59 0 -107 15l-10 -41q-12 -52 -7.5 -69t27.5 -17h10v-28h-226v28h10q23 0 36.5 17.5t25.5 68.5l113 450q12 52 7.5 69t-27.5 17h-10v28h230v-28h-10q-23 0 -36 -17.5t-26 -68.5q-3 -13 -7 -23z
M283 496q-28 -103 -82 -313q30 -5 59 -5q101 0 154.5 56.5t53.5 139.5q0 58 -32.5 93t-95.5 35q-27 0 -57 -6z" />
    <glyph glyph-name="germandbls" unicode="&#xdf;" horiz-adv-x="533" 
d="M526 594q0 -31 -15.5 -55.5t-38 -40t-44.5 -30t-37.5 -33t-15.5 -41.5q0 -25 21 -57t45.5 -59.5t45.5 -67t21 -76.5q0 -60 -44.5 -104t-119.5 -44q-131 0 -131 86q0 30 15.5 47.5t36.5 17.5q19 0 31 -12t12 -35q0 -2 -1.5 -7.5t-1.5 -9.5q0 -24 11 -36t38 -12q65 0 65 67
q0 26 -20.5 60t-45 62t-45 66t-20.5 72t22 64t48 49.5t48 51t22 68.5q0 63 -64 63q-56 0 -84.5 -51t-28.5 -128q-45 -147 -117 -440q-55 -219 -195 -219q-37 0 -57 18t-20 45q0 25 14.5 41t36.5 16q17 0 25.5 -11.5t9.5 -26t6.5 -26t17.5 -11.5q20 0 28.5 18.5t22.5 77.5
q3 12 4 18l99 436h-69l5 28q29 2 54.5 17.5t29.5 36.5q20 94 81.5 150.5t153.5 56.5q71 0 108 -26.5t37 -73.5z" />
    <glyph glyph-name="agrave" unicode="&#xe0;" horiz-adv-x="512" 
d="M491 111q-9 -43 -52 -81t-84 -38q-51 0 -51 61q0 41 18 97l-7 2q-33 -77 -87 -121.5t-113 -44.5q-47 0 -73 31t-26 89q0 88 52 176.5t136.5 145.5t170.5 57q28 0 58.5 -5t38.5 -5q13 0 13 -13q-29 -87 -88 -319q-8 -32 -8 -52q0 -25 23 -25q17 0 34 15t23 40
q4 -2 11.5 -5t10.5 -5zM375 445h-11q-66 0 -122 -49.5t-84.5 -118t-28.5 -134.5q0 -76 48 -76q37 0 80 48.5t68 143.5zM297 653q-6 6 -6 11q0 14 16 14h81l57 -150l-22 -7z" />
    <glyph glyph-name="aacute" unicode="&#xe1;" horiz-adv-x="512" 
d="M491 111q-9 -43 -52 -81t-84 -38q-51 0 -51 61q0 41 18 97l-7 2q-33 -77 -87 -121.5t-113 -44.5q-47 0 -73 31t-26 89q0 88 52 176.5t136.5 145.5t170.5 57q28 0 58.5 -5t38.5 -5q13 0 13 -13q-29 -87 -88 -319q-8 -32 -8 -52q0 -25 23 -25q17 0 34 15t23 40
q4 -2 11.5 -5t10.5 -5zM375 445h-11q-66 0 -122 -49.5t-84.5 -118t-28.5 -134.5q0 -76 48 -76q37 0 80 48.5t68 143.5zM507 654q-60 -45 -180 -133l-24 7l113 150h90q12 0 12 -10q-1 -7 -11 -14z" />
    <glyph glyph-name="acircumflex" unicode="&#xe2;" horiz-adv-x="512" 
d="M491 111q-9 -43 -52 -81t-84 -38q-51 0 -51 61q0 41 18 97l-7 2q-33 -77 -87 -121.5t-113 -44.5q-47 0 -73 31t-26 89q0 88 52 176.5t136.5 145.5t170.5 57q28 0 58.5 -5t38.5 -5q13 0 13 -13q-29 -87 -88 -319q-8 -32 -8 -52q0 -25 23 -25q17 0 34 15t23 40
q4 -2 11.5 -5t10.5 -5zM375 445h-11q-66 0 -122 -49.5t-84.5 -118t-28.5 -134.5q0 -76 48 -76q37 0 80 48.5t68 143.5zM249 529l118 135q15 18 43 18q26 0 33 -17l61 -136l-23 -6q-31 26 -93 76q-104 -67 -118 -76z" />
    <glyph glyph-name="atilde" unicode="&#xe3;" horiz-adv-x="512" 
d="M491 111q-9 -43 -52 -81t-84 -38q-51 0 -51 61q0 41 18 97l-7 2q-33 -77 -87 -121.5t-113 -44.5q-47 0 -73 31t-26 89q0 88 52 176.5t136.5 145.5t170.5 57q28 0 58.5 -5t38.5 -5q13 0 13 -13q-29 -87 -88 -319q-8 -32 -8 -52q0 -25 23 -25q17 0 34 15t23 40
q4 -2 11.5 -5t10.5 -5zM375 445h-11q-66 0 -122 -49.5t-84.5 -118t-28.5 -134.5q0 -76 48 -76q37 0 80 48.5t68 143.5zM237 544h-26q12 54 44 92.5t74 38.5q27 0 48 -17.5t38.5 -34.5t33.5 -17q23 0 41.5 19.5t23.5 47.5h25q-14 -66 -46.5 -99.5t-75.5 -33.5
q-32 0 -65.5 34.5t-51.5 34.5q-22 0 -39 -17t-24 -48z" />
    <glyph glyph-name="adieresis" unicode="&#xe4;" horiz-adv-x="512" 
d="M491 111q-9 -43 -52 -81t-84 -38q-51 0 -51 61q0 41 18 97l-7 2q-33 -77 -87 -121.5t-113 -44.5q-47 0 -73 31t-26 89q0 88 52 176.5t136.5 145.5t170.5 57q28 0 58.5 -5t38.5 -5q13 0 13 -13q-29 -87 -88 -319q-8 -32 -8 -52q0 -25 23 -25q17 0 34 15t23 40
q4 -2 11.5 -5t10.5 -5zM375 445h-11q-66 0 -122 -49.5t-84.5 -118t-28.5 -134.5q0 -76 48 -76q37 0 80 48.5t68 143.5zM262 652q22 0 38 -17t16 -40q0 -25 -17.5 -43t-41.5 -18q-23 0 -38.5 16.5t-15.5 40.5q0 25 17.5 43t41.5 18zM463 652q22 0 38 -17t16 -40
q0 -25 -17.5 -43t-41.5 -18q-23 0 -38.5 16.5t-15.5 40.5q0 25 17.5 43t41.5 18z" />
    <glyph glyph-name="aring" unicode="&#xe5;" horiz-adv-x="512" 
d="M491 111q-9 -43 -52 -81t-84 -38q-51 0 -51 61q0 41 18 97l-7 2q-33 -77 -87 -121.5t-113 -44.5q-47 0 -73 31t-26 89q0 88 52 176.5t136.5 145.5t170.5 57q28 0 58.5 -5t38.5 -5q13 0 13 -13q-29 -87 -88 -319q-8 -32 -8 -52q0 -25 23 -25q17 0 34 15t23 40
q4 -2 11.5 -5t10.5 -5zM375 445h-11q-66 0 -122 -49.5t-84.5 -118t-28.5 -134.5q0 -76 48 -76q37 0 80 48.5t68 143.5zM410 695q36 0 60 -22t24 -54q0 -44 -39 -76.5t-85 -32.5q-36 0 -60 21t-24 54q0 43 39 76.5t85 33.5zM402 661q-24 0 -41 -24t-17 -54q0 -39 33 -39
q25 0 42 22.5t17 54.5q0 40 -34 40z" />
    <glyph glyph-name="ae" unicode="&#xe6;" horiz-adv-x="679" 
d="M434 420q-26 13 -70 13q-65 0 -121 -49.5t-85 -115.5t-29 -125q0 -76 48 -76q33 0 71.5 39t61.5 114q43 133 124 200zM472 448q61 37 132 37q42 0 65 -22.5t23 -56.5q0 -24 -11.5 -47.5t-36.5 -47t-75.5 -38t-119.5 -14.5q-24 0 -36 1q-8 -38 -8 -86q0 -54 24.5 -80.5
t62.5 -26.5q33 0 64.5 19t46.5 51l20 -10q-21 -67 -73 -104t-109 -37q-61 0 -97.5 37.5t-40.5 103.5q-35 -66 -84.5 -103.5t-103.5 -37.5q-47 0 -73 31t-26 89q0 89 54.5 175t137.5 138t164 52q61 0 100 -23zM555 440q-42 0 -78 -38.5t-58 -114.5q87 0 132 36t45 75
q0 18 -11 30t-30 12z" />
    <glyph glyph-name="ccedilla" unicode="&#xe7;" horiz-adv-x="392" 
d="M136 -11q-53 6 -83.5 45t-30.5 111q0 85 40 164t106 127.5t137 48.5q51 0 76 -24t25 -65q0 -36 -18.5 -55.5t-43.5 -19.5q-47 0 -47 55q0 36 -5.5 48.5t-26.5 12.5q-47 0 -93 -78t-46 -185q0 -53 23.5 -78.5t61.5 -25.5q34 0 66 22t51 65l21 -11q-22 -70 -69.5 -111
t-105.5 -47l-38 -41q43 0 66 -22t19 -54q-5 -40 -46.5 -68t-112.5 -28q-47 0 -64 11l17 25q16 -7 44 -7q77 0 84 53q2 16 -11.5 27.5t-41.5 11.5q-17 0 -17 10q1 3 7 11z" />
    <glyph glyph-name="egrave" unicode="&#xe8;" horiz-adv-x="396" 
d="M272 440q-42 0 -78 -38.5t-58 -114.5q87 0 132 36t45 75q0 18 -11 30t-30 12zM130 260q-8 -38 -8 -86q0 -54 24.5 -80.5t62.5 -26.5q33 0 64.5 19t46.5 51l20 -10q-21 -67 -73 -104t-109 -37q-65 0 -102 41.5t-37 113.5q0 53 21 112t58 111.5t96 86.5t127 34
q42 0 65 -22.5t23 -56.5q0 -24 -11.5 -47.5t-36.5 -47t-75.5 -38t-119.5 -14.5q-24 0 -36 1zM234 653q-7 7 -6 14q0 11 16 11h81l57 -150l-22 -7z" />
    <glyph glyph-name="eacute" unicode="&#xe9;" horiz-adv-x="396" 
d="M272 440q-42 0 -78 -38.5t-58 -114.5q87 0 132 36t45 75q0 18 -11 30t-30 12zM130 260q-8 -38 -8 -86q0 -54 24.5 -80.5t62.5 -26.5q33 0 64.5 19t46.5 51l20 -10q-21 -67 -73 -104t-109 -37q-65 0 -102 41.5t-37 113.5q0 53 21 112t58 111.5t96 86.5t127 34
q42 0 65 -22.5t23 -56.5q0 -24 -11.5 -47.5t-36.5 -47t-75.5 -38t-119.5 -14.5q-24 0 -36 1zM448 654l-180 -133l-24 7l113 150h90q12 0 12 -10q-1 -7 -11 -14z" />
    <glyph glyph-name="ecircumflex" unicode="&#xea;" horiz-adv-x="396" 
d="M272 440q-42 0 -78 -38.5t-58 -114.5q87 0 132 36t45 75q0 18 -11 30t-30 12zM130 260q-8 -38 -8 -86q0 -54 24.5 -80.5t62.5 -26.5q33 0 64.5 19t46.5 51l20 -10q-21 -67 -73 -104t-109 -37q-65 0 -102 41.5t-37 113.5q0 53 21 112t58 111.5t96 86.5t127 34
q42 0 65 -22.5t23 -56.5q0 -24 -11.5 -47.5t-36.5 -47t-75.5 -38t-119.5 -14.5q-24 0 -36 1zM183 529l118 135q15 18 43 18q26 0 33 -17l61 -136l-23 -6l-93 76l-118 -76z" />
    <glyph glyph-name="edieresis" unicode="&#xeb;" horiz-adv-x="396" 
d="M272 440q-42 0 -78 -38.5t-58 -114.5q87 0 132 36t45 75q0 18 -11 30t-30 12zM130 260q-8 -38 -8 -86q0 -54 24.5 -80.5t62.5 -26.5q33 0 64.5 19t46.5 51l20 -10q-21 -67 -73 -104t-109 -37q-65 0 -102 41.5t-37 113.5q0 53 21 112t58 111.5t96 86.5t127 34
q42 0 65 -22.5t23 -56.5q0 -24 -11.5 -47.5t-36.5 -47t-75.5 -38t-119.5 -14.5q-24 0 -36 1zM213 652q23 0 39 -17.5t15 -41.5t-18 -41.5t-40 -17.5t-39.5 17.5t-15.5 41.5q2 24 19 41.5t40 17.5zM414 652q23 0 39 -17.5t15 -41.5t-18 -41.5t-40 -17.5t-39.5 17.5
t-15.5 41.5q2 24 19 41.5t40 17.5z" />
    <glyph glyph-name="igrave" unicode="&#xec;" horiz-adv-x="266" 
d="M243 478q-104 -342 -104 -386q0 -24 18 -24q17 0 32.5 14.5t21.5 37.5l23 -10q-10 -43 -53.5 -80t-94.5 -37q-54 0 -54 53q0 32 37 177t41 168v8q0 28 -44 28l5 29q55 9 165 29zM112 653q-6 7 -6 14q2 11 17 11h81l57 -150l-23 -7z" />
    <glyph glyph-name="iacute" unicode="&#xed;" horiz-adv-x="266" 
d="M243 478q-104 -342 -104 -386q0 -24 18 -24q17 0 32.5 14.5t21.5 37.5l23 -10q-10 -43 -53.5 -80t-94.5 -37q-54 0 -54 53q0 32 37 177t41 168v8q0 28 -44 28l5 29q55 9 165 29zM317 654q-60 -45 -180 -133l-24 7l113 150h90q12 0 12 -10q-1 -7 -11 -14z" />
    <glyph glyph-name="icircumflex" unicode="&#xee;" horiz-adv-x="266" 
d="M243 478q-104 -342 -104 -386q0 -24 18 -24q17 0 32.5 14.5t21.5 37.5l23 -10q-10 -43 -53.5 -80t-94.5 -37q-54 0 -54 53q0 32 37 177t41 168v8q0 28 -44 28l5 29q55 9 165 29zM56 529l118 135q15 18 43 18q26 0 33 -17l61 -136l-23 -6q-31 26 -93 76q-104 -67 -118 -76
z" />
    <glyph glyph-name="idieresis" unicode="&#xef;" horiz-adv-x="266" 
d="M243 478q-104 -342 -104 -386q0 -24 18 -24q17 0 32.5 14.5t21.5 37.5l23 -10q-10 -43 -53.5 -80t-94.5 -37q-54 0 -54 53q0 32 37 177t41 168v8q0 28 -44 28l5 29q55 9 165 29zM292 652q22 0 38 -16.5t16 -39.5q0 -25 -17 -43.5t-41 -18.5q-23 0 -39 17t-16 40
q0 25 18 43t41 18zM91 652q22 0 38 -16.5t16 -39.5q0 -25 -17 -43.5t-41 -18.5q-23 0 -39 17t-16 40q0 25 18 43t41 18z" />
    <glyph glyph-name="eth" unicode="&#xf0;" horiz-adv-x="518" 
d="M379 299q0 42 -17.5 65t-49.5 23q-49 0 -91 -55t-61.5 -118.5t-19.5 -109.5q0 -40 19 -62t47 -22q63 0 118 97.5t55 181.5zM445 576q66 -86 66 -205q0 -61 -19.5 -126.5t-55 -123.5t-95 -95.5t-131.5 -37.5q-83 0 -127 48.5t-44 124.5q0 104 70.5 191.5t176.5 87.5
q85 0 111 -75l5 2q0 109 -41 181l-135 -43l-14 50q52 16 118 38q-59 68 -144 77l8 22q125 0 211 -75l119 39l15 -50z" />
    <glyph glyph-name="ntilde" unicode="&#xf1;" horiz-adv-x="527" 
d="M424 67q16 0 31 15t21 38l23 -10q-10 -43 -52.5 -80t-92.5 -37q-29 0 -42 12.5t-13 40.5q0 29 31 135l18 61q34 102 34 130q0 43 -33 43q-40 0 -96.5 -65t-83.5 -162q-21 -72 -42 -175q-3 -15 -53 -15t-50 15l95 377v8q0 17 -10.5 23t-33.5 6l5 29q58 11 149 29l8 -6
q-20 -47 -41 -150q42 71 101 113.5t117 42.5q35 0 56 -21.5t21 -61.5q0 -27 -13 -65l-61 -174q-14 -39 -14 -67q0 -29 21 -29zM222 544h-26q12 54 44 92.5t73 38.5q27 0 48.5 -17.5t38.5 -34.5t33 -17q24 0 42.5 19.5t23.5 47.5h25q-14 -66 -46.5 -99.5t-76.5 -33.5
q-25 0 -45.5 17t-37.5 34.5t-34 17.5q-21 0 -38 -17t-24 -48z" />
    <glyph glyph-name="ograve" unicode="&#xf2;" horiz-adv-x="454" 
d="M307 485q68 0 103 -44t35 -114q0 -51 -20.5 -109t-56 -110.5t-92 -87t-120.5 -34.5q-70 0 -105 43.5t-35 114.5q0 127 87.5 234t203.5 107zM270 436q-55 0 -98.5 -87.5t-43.5 -197.5q0 -121 59 -121q56 0 99.5 88.5t43.5 197.5q0 120 -60 120zM245 653q-6 7 -6 14
q2 11 17 11h81l57 -150l-23 -7z" />
    <glyph glyph-name="oacute" unicode="&#xf3;" horiz-adv-x="454" 
d="M307 485q68 0 103 -44t35 -114q0 -51 -20.5 -109t-56 -110.5t-92 -87t-120.5 -34.5q-70 0 -105 43.5t-35 114.5q0 127 87.5 234t203.5 107zM270 436q-55 0 -98.5 -87.5t-43.5 -197.5q0 -121 59 -121q56 0 99.5 88.5t43.5 197.5q0 120 -60 120zM445 654q-60 -45 -180 -133
l-24 7l113 150h90q12 0 12 -10q-1 -7 -11 -14z" />
    <glyph glyph-name="ocircumflex" unicode="&#xf4;" horiz-adv-x="454" 
d="M307 485q68 0 103 -44t35 -114q0 -51 -20.5 -109t-56 -110.5t-92 -87t-120.5 -34.5q-70 0 -105 43.5t-35 114.5q0 127 87.5 234t203.5 107zM270 436q-55 0 -98.5 -87.5t-43.5 -197.5q0 -121 59 -121q56 0 99.5 88.5t43.5 197.5q0 120 -60 120zM184 529l118 135
q15 18 43 18q26 0 33 -17l61 -136l-23 -6q-31 26 -93 76q-104 -67 -118 -76z" />
    <glyph glyph-name="otilde" unicode="&#xf5;" horiz-adv-x="454" 
d="M307 485q68 0 103 -44t35 -114q0 -51 -20.5 -109t-56 -110.5t-92 -87t-120.5 -34.5q-70 0 -105 43.5t-35 114.5q0 127 87.5 234t203.5 107zM270 436q-55 0 -98.5 -87.5t-43.5 -197.5q0 -121 59 -121q56 0 99.5 88.5t43.5 197.5q0 120 -60 120zM184 544h-26q12 54 44 92.5
t73 38.5q27 0 48.5 -17.5t38.5 -34.5t33 -17q24 0 42.5 19.5t23.5 47.5h25q-14 -66 -46.5 -99.5t-76.5 -33.5q-25 0 -45.5 17t-37.5 34.5t-34 17.5q-21 0 -38 -17t-24 -48z" />
    <glyph glyph-name="odieresis" unicode="&#xf6;" horiz-adv-x="454" 
d="M307 485q68 0 103 -44t35 -114q0 -51 -20.5 -109t-56 -110.5t-92 -87t-120.5 -34.5q-70 0 -105 43.5t-35 114.5q0 127 87.5 234t203.5 107zM270 436q-55 0 -98.5 -87.5t-43.5 -197.5q0 -121 59 -121q56 0 99.5 88.5t43.5 197.5q0 120 -60 120zM214 652q22 0 38 -17
t16 -40q0 -25 -17.5 -43t-41.5 -18q-23 0 -38.5 16.5t-15.5 40.5q0 25 17.5 43t41.5 18zM415 652q22 0 38 -17t16 -40q0 -25 -17.5 -43t-41.5 -18q-23 0 -38.5 16.5t-15.5 40.5q0 25 17.5 43t41.5 18z" />
    <glyph glyph-name="divide" unicode="&#xf7;" horiz-adv-x="555" 
d="M537 217h-511l18 70h511zM186 91q8 29 33 50t54 21t44.5 -21t8.5 -50t-33 -49t-55 -20t-44.5 20t-7.5 49zM266 414q8 29 33.5 50t54.5 21t44.5 -21t7.5 -50q-7 -29 -32.5 -49t-54.5 -20t-44.5 20t-8.5 49z" />
    <glyph glyph-name="oslash" unicode="&#xf8;" horiz-adv-x="454" 
d="M411 439l31 30h56l-67 -65q14 -36 14 -77q0 -51 -20.5 -109t-56 -110.5t-92 -87t-120.5 -34.5q-69 0 -105 44l-30 -30h-55l64 64q-14 36 -14 80q0 127 87.5 234t203.5 107q69 0 104 -46zM330 304l-200 -197q10 -77 57 -77q56 0 95.5 81t47.5 193zM129 161l200 197
q-10 78 -59 78q-55 0 -94.5 -82t-46.5 -193z" />
    <glyph glyph-name="ugrave" unicode="&#xf9;" horiz-adv-x="520" 
d="M320 145q-34 -69 -93 -110.5t-110 -41.5q-77 0 -77 85q2 29 40.5 151.5t38.5 166.5q0 30 -47 30l5 29l166 30l7 -6l-74 -256q-25 -87 -25 -118q0 -39 33 -39q36 0 86 58t79 161q25 90 43 177q3 16 53 16t50 -16l-89 -326q-7 -24 -7 -44q0 -25 24 -25q17 0 33.5 14.5
t22.5 39.5q3 -2 10.5 -5t11.5 -5q-8 -42 -51.5 -80.5t-87.5 -38.5q-55 0 -55 57q0 39 13 96zM249 653q-6 7 -6 14q2 11 17 11h81l57 -150l-23 -7z" />
    <glyph glyph-name="uacute" unicode="&#xfa;" horiz-adv-x="520" 
d="M320 145q-34 -69 -93 -110.5t-110 -41.5q-77 0 -77 85q2 29 40.5 151.5t38.5 166.5q0 30 -47 30l5 29l166 30l7 -6l-74 -256q-25 -87 -25 -118q0 -39 33 -39q36 0 86 58t79 161q25 90 43 177q3 16 53 16t50 -16l-89 -326q-7 -24 -7 -44q0 -25 24 -25q17 0 33.5 14.5
t22.5 39.5q3 -2 10.5 -5t11.5 -5q-8 -42 -51.5 -80.5t-87.5 -38.5q-55 0 -55 57q0 39 13 96zM480 654q-16 -12 -181 -133l-24 7l114 150h89q12 0 12 -8q0 -7 -10 -16z" />
    <glyph glyph-name="ucircumflex" unicode="&#xfb;" horiz-adv-x="520" 
d="M320 145q-34 -69 -93 -110.5t-110 -41.5q-77 0 -77 85q2 29 40.5 151.5t38.5 166.5q0 30 -47 30l5 29l166 30l7 -6l-74 -256q-25 -87 -25 -118q0 -39 33 -39q36 0 86 58t79 161q25 90 43 177q3 16 53 16t50 -16l-89 -326q-7 -24 -7 -44q0 -25 24 -25q17 0 33.5 14.5
t22.5 39.5q3 -2 10.5 -5t11.5 -5q-8 -42 -51.5 -80.5t-87.5 -38.5q-55 0 -55 57q0 39 13 96zM202 529l118 135q15 18 43 18q26 0 33 -17l61 -136l-23 -6q-31 26 -93 76q-104 -67 -118 -76z" />
    <glyph glyph-name="udieresis" unicode="&#xfc;" horiz-adv-x="520" 
d="M320 145q-34 -69 -93 -110.5t-110 -41.5q-77 0 -77 85q2 29 40.5 151.5t38.5 166.5q0 30 -47 30l5 29l166 30l7 -6l-74 -256q-25 -87 -25 -118q0 -39 33 -39q36 0 86 58t79 161q25 90 43 177q3 16 53 16t50 -16l-89 -326q-7 -24 -7 -44q0 -25 24 -25q17 0 33.5 14.5
t22.5 39.5q3 -2 10.5 -5t11.5 -5q-8 -42 -51.5 -80.5t-87.5 -38.5q-55 0 -55 57q0 39 13 96zM441 652q22 0 38 -16.5t16 -39.5q0 -25 -17 -43.5t-41 -18.5q-23 0 -39 17t-16 40q0 25 18 43t41 18zM240 652q22 0 38 -16.5t16 -39.5q0 -25 -17 -43.5t-41 -18.5q-23 0 -39 17
t-16 40q0 25 18 43t41 18z" />
    <glyph glyph-name="yacute" unicode="&#xfd;" horiz-adv-x="398" 
d="M414 410q0 -34 -42.5 -130.5t-103 -201.5t-138 -186.5t-137.5 -81.5q-38 0 -56.5 18.5t-18.5 43.5q0 24 15 42.5t38 18.5q19 0 29 -18.5t19 -20.5v-3q0 -15 16 -15q38 0 69 49t31 133q0 72 -19.5 163.5t-47.5 155.5t-51 64q1 5 2 14t2 14h125q73 -190 80 -386
q41 58 68.5 143t27.5 123q0 19 -20 38t-20 41q0 25 18 40t44 15q29 0 49.5 -19t20.5 -54zM403 654q-16 -12 -181 -133l-24 7l114 150h89q12 0 12 -8q0 -7 -10 -16z" />
    <glyph glyph-name="thorn" unicode="&#xfe;" horiz-adv-x="500" 
d="M304 686q-40 -114 -108 -342q-1 -6 -1 -14q34 70 84.5 112.5t109.5 42.5q49 0 74.5 -31.5t25.5 -84.5q0 -57 -27 -121.5t-73 -121.5t-117.5 -94.5t-150.5 -37.5q-23 -97 -23 -127q0 -17 9 -23t38 -6q14 -4 20 -7q0 -3 -0.5 -10t-0.5 -11h-226q0 4 0.5 14t0.5 14
q36 0 47 32q5 16 24.5 93t48 191t43.5 173l68 278q2 10 2 14q0 24 -29 24h-15l5 28q131 16 150 20q6 2 9 2q12 0 12 -7zM131 32h7q67 0 123.5 48.5t85.5 115.5t29 131q0 76 -45 76q-43 0 -81 -49.5t-65.5 -128t-53.5 -193.5z" />
    <glyph glyph-name="ydieresis" unicode="&#xff;" horiz-adv-x="398" 
d="M414 410q0 -34 -42.5 -130.5t-103 -201.5t-138 -186.5t-137.5 -81.5q-38 0 -56.5 18.5t-18.5 43.5q0 24 15 42.5t38 18.5q19 0 29 -18.5t19 -20.5v-3q0 -15 16 -15q38 0 69 49t31 133q0 72 -19.5 163.5t-47.5 155.5t-51 64q1 5 2 14t2 14h125q73 -190 80 -386
q41 58 68.5 143t27.5 123q0 19 -20 38t-20 41q0 25 18 40t44 15q29 0 49.5 -19t20.5 -54zM353 652q22 0 38 -17t16 -40q0 -25 -17.5 -43t-41.5 -18q-23 0 -38.5 16.5t-15.5 40.5q0 25 17.5 43t41.5 18zM152 652q22 0 38 -17t16 -40q0 -25 -17.5 -43t-41.5 -18
q-23 0 -38.5 16.5t-15.5 40.5q0 25 17.5 43t41.5 18z" />
    <glyph glyph-name="Amacron" unicode="&#x100;" horiz-adv-x="622" 
d="M334 526q-18 -37 -71 -123l-94 -149h199l-19 146q-11 86 -15 126zM390 99l-15 112h-232q-4 -6 -31 -49l-15 -24q-26 -43 -26 -74q0 -19 16 -27.5t56 -8.5v-28h-234v28q19 0 40.5 17t69 79.5t119.5 176.5l241 383h47l81 -485q15 -85 24.5 -119t19.5 -43t32 -9v-28h-269v28
q40 0 58.5 10.5t18.5 38.5q0 14 -1 22zM309 786h232l-15 -68h-232z" />
    <glyph glyph-name="amacron" unicode="&#x101;" horiz-adv-x="512" 
d="M491 111q-9 -43 -52 -81t-84 -38q-51 0 -51 61q0 41 18 97l-7 2q-33 -77 -87 -121.5t-113 -44.5q-47 0 -73 31t-26 89q0 88 52 176.5t136.5 145.5t170.5 57q28 0 58.5 -5t38.5 -5q13 0 13 -13q-29 -87 -88 -319q-8 -32 -8 -52q0 -25 23 -25q17 0 34 15t23 40
q4 -2 11.5 -5t10.5 -5zM375 445h-11q-66 0 -122 -49.5t-84.5 -118t-28.5 -134.5q0 -76 48 -76q37 0 80 48.5t68 143.5zM266 635h244l-16 -76h-244z" />
    <glyph glyph-name="Abreve" unicode="&#x102;" horiz-adv-x="622" 
d="M334 526q-18 -37 -71 -123l-94 -149h199l-19 146q-11 86 -15 126zM390 99l-15 112h-232q-4 -6 -31 -49l-15 -24q-26 -43 -26 -74q0 -19 16 -27.5t56 -8.5v-28h-234v28q19 0 40.5 17t69 79.5t119.5 176.5l241 383h47l81 -485q15 -85 24.5 -119t19.5 -43t32 -9v-28h-269v28
q40 0 58.5 10.5t18.5 38.5q0 14 -1 22zM547 852q-16 -67 -58.5 -102.5t-91.5 -35.5q-41 0 -66.5 24t-25.5 73q0 16 5 41h29q-1 -6 -1 -16q0 -54 75 -54q88 0 105 70h29z" />
    <glyph glyph-name="abreve" unicode="&#x103;" horiz-adv-x="512" 
d="M491 111q-9 -43 -52 -81t-84 -38q-51 0 -51 61q0 41 18 97l-7 2q-33 -77 -87 -121.5t-113 -44.5q-47 0 -73 31t-26 89q0 88 52 176.5t136.5 145.5t170.5 57q28 0 58.5 -5t38.5 -5q13 0 13 -13q-29 -87 -88 -319q-8 -32 -8 -52q0 -25 23 -25q17 0 34 15t23 40
q4 -2 11.5 -5t10.5 -5zM375 445h-11q-66 0 -122 -49.5t-84.5 -118t-28.5 -134.5q0 -76 48 -76q37 0 80 48.5t68 143.5zM508 678q-15 -68 -58.5 -108.5t-91.5 -40.5q-41 0 -66 28t-25 79q0 22 4 42h30q-2 -10 -2 -14q0 -30 20.5 -45.5t54.5 -15.5q38 0 67.5 18.5t37.5 56.5
h29z" />
    <glyph glyph-name="Aogonek" unicode="&#x104;" horiz-adv-x="622" 
d="M390 99l-15 112h-232q-4 -6 -31 -49l-15 -24q-26 -43 -26 -74q0 -19 16 -27.5t56 -8.5v-28h-234v28q19 0 40.5 17t69 79.5t119.5 176.5l241 383h47l81 -485q15 -85 24.5 -119t19.5 -43t32 -9v-28h-70q-71 -37 -71 -100q0 -25 19 -41t51 -16q33 0 53 11l6 -18
q-60 -40 -122 -40q-36 0 -56.5 19.5t-20.5 49.5q0 40 27.5 78.5t78.5 56.5h-164v28q40 0 58.5 10.5t18.5 38.5q0 14 -1 22zM334 526q-18 -37 -71 -123l-94 -149h199l-19 146q-11 86 -15 126z" />
    <glyph glyph-name="aogonek" unicode="&#x105;" horiz-adv-x="512" 
d="M326 0q-22 15 -22 52q0 41 18 98l-7 2q-33 -77 -87 -121.5t-113 -44.5q-47 0 -73 31t-26 89q0 88 52 176.5t136.5 145.5t170.5 57q28 0 58.5 -5t38.5 -5q13 0 13 -13q-29 -87 -88 -319q-8 -32 -8 -52q0 -25 23 -25q17 0 34 15t23 40q4 -2 11.5 -5t10.5 -5
q-10 -48 -54.5 -83t-89.5 -35q-58 -37 -58 -90q0 -26 18.5 -43t51.5 -17t53 11l6 -18q-60 -40 -122 -40q-37 0 -57 20t-20 51q0 39 28.5 77.5t78.5 55.5zM375 445h-11q-66 0 -122 -49.5t-84.5 -118t-28.5 -134.5q0 -76 48 -76q37 0 80 48.5t68 143.5z" />
    <glyph glyph-name="Cacute" unicode="&#x106;" horiz-adv-x="603" 
d="M468 694q47 0 83.5 -5t57 -10.5t26.5 -5.5q11 0 11 -11l-50 -215q-2 -6 -14 -6q-14 0 -14 6q8 38 8 69q0 131 -128 131q-79 0 -143.5 -62.5t-97.5 -154t-33 -185.5q0 -93 42.5 -141t112.5 -48q66 0 119 35.5t82 100.5l26 -11q-35 -92 -107.5 -145t-173.5 -53
q-112 0 -176 62.5t-64 171.5q0 123 58.5 233t159 177t215.5 67zM618 816l-206 -112l-24 6l125 128h103q13 0 13 -9q-2 -8 -11 -13z" />
    <glyph glyph-name="cacute" unicode="&#x107;" horiz-adv-x="392" 
d="M406 396q0 -36 -18.5 -55.5t-43.5 -19.5q-47 0 -47 55q0 36 -5.5 48.5t-26.5 12.5q-47 0 -93 -78t-46 -185q0 -53 23.5 -78.5t61.5 -25.5q34 0 66 22t51 65l21 -11q-24 -75 -77.5 -117t-115.5 -42q-61 0 -97.5 39.5t-36.5 118.5q0 85 40 164t106 127.5t137 48.5
q51 0 76 -24t25 -65zM449 653l-179 -132l-24 7l113 150h89q8 0 11 -2.5t2 -8.5t-12 -14z" />
    <glyph glyph-name="Ccircumflex" unicode="&#x108;" horiz-adv-x="603" 
d="M468 694q47 0 83.5 -5t57 -10.5t26.5 -5.5q11 0 11 -11l-50 -215q-2 -6 -14 -6q-14 0 -14 6q8 38 8 69q0 131 -128 131q-79 0 -143.5 -62.5t-97.5 -154t-33 -185.5q0 -93 42.5 -141t112.5 -48q66 0 119 35.5t82 100.5l26 -11q-35 -92 -107.5 -145t-173.5 -53
q-112 0 -176 62.5t-64 171.5q0 123 58.5 233t159 177t215.5 67zM330 712l119 121q16 16 45 16q28 0 35 -15l69 -122l-25 -4l-100 68l-122 -68z" />
    <glyph glyph-name="ccircumflex" unicode="&#x109;" horiz-adv-x="392" 
d="M406 396q0 -36 -18.5 -55.5t-43.5 -19.5q-47 0 -47 55q0 36 -5.5 48.5t-26.5 12.5q-47 0 -93 -78t-46 -185q0 -53 23.5 -78.5t61.5 -25.5q34 0 66 22t51 65l21 -11q-24 -75 -77.5 -117t-115.5 -42q-61 0 -97.5 39.5t-36.5 118.5q0 85 40 164t106 127.5t137 48.5
q51 0 76 -24t25 -65zM177 529l118 135q15 18 43 18q26 0 33 -17l61 -136l-23 -6l-93 76l-118 -76z" />
    <glyph glyph-name="Cdotaccent" unicode="&#x10a;" horiz-adv-x="603" 
d="M468 694q47 0 83.5 -5t57 -10.5t26.5 -5.5q11 0 11 -11l-50 -215q-2 -6 -14 -6q-14 0 -14 6q8 38 8 69q0 131 -128 131q-79 0 -143.5 -62.5t-97.5 -154t-33 -185.5q0 -93 42.5 -141t112.5 -48q66 0 119 35.5t82 100.5l26 -11q-35 -92 -107.5 -145t-173.5 -53
q-112 0 -176 62.5t-64 171.5q0 123 58.5 233t159 177t215.5 67zM480 837q23 0 39 -17t15 -42q-1 -24 -18.5 -41t-40.5 -17t-39 17t-15 41q1 25 18.5 42t40.5 17z" />
    <glyph glyph-name="cdotaccent" unicode="&#x10b;" horiz-adv-x="392" 
d="M406 396q0 -36 -18.5 -55.5t-43.5 -19.5q-47 0 -47 55q0 36 -5.5 48.5t-26.5 12.5q-47 0 -93 -78t-46 -185q0 -53 23.5 -78.5t61.5 -25.5q34 0 66 22t51 65l21 -11q-24 -75 -77.5 -117t-115.5 -42q-61 0 -97.5 39.5t-36.5 118.5q0 85 40 164t106 127.5t137 48.5
q51 0 76 -24t25 -65zM326 678q26 0 41.5 -18t12.5 -43q-4 -26 -24 -43.5t-45 -17.5q-26 0 -41.5 18t-11.5 43q3 26 23 43.5t45 17.5z" />
    <glyph glyph-name="Ccaron" unicode="&#x10c;" horiz-adv-x="603" 
d="M468 694q47 0 83.5 -5t57 -10.5t26.5 -5.5q11 0 11 -11l-50 -215q-2 -6 -14 -6q-14 0 -14 6q8 38 8 69q0 131 -128 131q-79 0 -143.5 -62.5t-97.5 -154t-33 -185.5q0 -93 42.5 -141t112.5 -48q66 0 119 35.5t82 100.5l26 -11q-35 -92 -107.5 -145t-173.5 -53
q-112 0 -176 62.5t-64 171.5q0 123 58.5 233t159 177t215.5 67zM631 850l-120 -121q-14 -16 -44 -16q-27 0 -35 15l-69 122l24 4l100 -68l122 68z" />
    <glyph glyph-name="ccaron" unicode="&#x10d;" horiz-adv-x="392" 
d="M406 396q0 -36 -18.5 -55.5t-43.5 -19.5q-47 0 -47 55q0 36 -5.5 48.5t-26.5 12.5q-47 0 -93 -78t-46 -185q0 -53 23.5 -78.5t61.5 -25.5q34 0 66 22t51 65l21 -11q-24 -75 -77.5 -117t-115.5 -42q-61 0 -97.5 39.5t-36.5 118.5q0 85 40 164t106 127.5t137 48.5
q51 0 76 -24t25 -65zM466 675l-117 -135q-17 -18 -43 -18q-27 0 -33 17l-62 136l24 6l93 -76l118 76z" />
    <glyph glyph-name="Dcaron" unicode="&#x10e;" horiz-adv-x="704" 
d="M319 634q-78 -293 -134 -520q-5 -16 -5 -33q0 -23 17.5 -32.5t59.5 -9.5q77 0 136.5 35.5t93 93.5t50 121.5t16.5 128.5q0 103 -46.5 159.5t-139.5 56.5h-48zM-12 0v28h10q23 0 36.5 17.5t25.5 68.5l113 450q9 38 9 56q0 30 -29 30h-10v28h215q172 0 251 -80t79 -208
q0 -80 -27 -149.5t-79.5 -123.5t-138.5 -85.5t-196 -31.5h-259zM577 850l-119 -121q-16 -16 -45 -16q-27 0 -35 15l-69 122l25 4l100 -68l122 68z" />
    <glyph glyph-name="dcaron" unicode="&#x10f;" 
d="M385 484l30 121q2 10 2 14q0 24 -29 24h-14l4 28q132 17 150 20q8 2 10 2q11 0 13 -7q-12 -31 -63.5 -209t-90.5 -334q-8 -32 -8 -52q0 -25 23 -25q17 0 34 15t23 40q4 -2 11.5 -5t10.5 -5q-9 -43 -52 -81t-84 -38q-51 0 -51 60q0 41 18 98l-7 2q-33 -77 -87 -121.5
t-113 -44.5q-47 0 -73 31t-26 89q0 93 55 181.5t141 142.5t173 54zM375 445h-11q-66 0 -122 -49.5t-84.5 -118t-28.5 -134.5q0 -76 48 -76q37 0 80 48.5t68 143.5zM686 654l-114 -140l-24 7q26 72 59 157h74q12 0 12 -8t-7 -16z" />
    <glyph glyph-name="Dcroat" unicode="&#x110;" horiz-adv-x="704" 
d="M110 313h-81l17 70h81l46 181q9 38 9 56q0 30 -29 30h-10v28h215q172 0 251 -80t79 -208q0 -80 -27 -149.5t-79.5 -123.5t-138.5 -85.5t-196 -31.5h-259v28h10q23 0 36.5 17.5t25.5 68.5zM235 313q-29 -109 -50 -199q-5 -16 -5 -33q0 -23 17.5 -32.5t59.5 -9.5
q77 0 136.5 35.5t93 93.5t50 121.5t16.5 128.5q0 103 -46.5 159.5t-139.5 56.5h-48l-66 -251h131l-17 -70h-132z" />
    <glyph glyph-name="dcroat" unicode="&#x111;" 
d="M320 595h92l3 10q2 10 2 14q0 24 -29 24h-14l4 28q132 17 150 20q8 2 10 2q11 0 13 -7l-29 -91h42q-5 -21 -17 -63h-44q-64 -222 -106 -389q-8 -32 -8 -52q0 -25 23 -25q17 0 34 15t23 40q4 -2 11.5 -5t10.5 -5q-9 -43 -52 -81t-84 -38q-51 0 -51 60q0 41 18 98l-7 2
q-33 -77 -87 -121.5t-113 -44.5q-47 0 -73 31t-26 89q0 93 55 181.5t141 142.5t173 54l12 48h-94q12 42 17 63zM375 445h-11q-66 0 -122 -49.5t-84.5 -118t-28.5 -134.5q0 -76 48 -76q37 0 80 48.5t68 143.5z" />
    <glyph glyph-name="Emacron" unicode="&#x112;" horiz-adv-x="627" 
d="M248 365h66q52 0 86 28t51 93h28q-46 -188 -70 -282h-28q8 30 8 54q0 36 -18 52t-67 16h-66q-11 -41 -28 -111.5t-24 -96.5q-5 -18 -5 -31q0 -27 23.5 -37.5t81.5 -10.5q106 0 167.5 41.5t92.5 122.5h28l-60 -203h-526v28h10q23 0 36.5 17.5t25.5 68.5l113 452q8 33 8 56
q0 16 -6.5 22t-21.5 6h-10v28h506l-42 -186h-28q4 28 4 41q0 104 -158 104h-105zM325 786h233l-15 -68h-233z" />
    <glyph glyph-name="emacron" unicode="&#x113;" horiz-adv-x="396" 
d="M272 440q-42 0 -78 -38.5t-58 -114.5q87 0 132 36t45 75q0 18 -11 30t-30 12zM130 260q-8 -38 -8 -86q0 -54 24.5 -80.5t62.5 -26.5q33 0 64.5 19t46.5 51l20 -10q-21 -67 -73 -104t-109 -37q-65 0 -102 41.5t-37 113.5q0 53 21 112t58 111.5t96 86.5t127 34
q42 0 65 -22.5t23 -56.5q0 -24 -11.5 -47.5t-36.5 -47t-75.5 -38t-119.5 -14.5q-24 0 -36 1zM202 635h244l-16 -76h-244z" />
    <glyph glyph-name="Ebreve" unicode="&#x114;" horiz-adv-x="627" 
d="M248 365h66q52 0 86 28t51 93h28q-46 -188 -70 -282h-28q8 30 8 54q0 36 -18 52t-67 16h-66q-11 -41 -28 -111.5t-24 -96.5q-5 -18 -5 -31q0 -27 23.5 -37.5t81.5 -10.5q106 0 167.5 41.5t92.5 122.5h28l-60 -203h-526v28h10q23 0 36.5 17.5t25.5 68.5l113 452q8 33 8 56
q0 16 -6.5 22t-21.5 6h-10v28h506l-42 -186h-28q4 28 4 41q0 104 -158 104h-105zM566 852q-16 -67 -58.5 -102.5t-91.5 -35.5q-41 0 -66.5 24t-25.5 73q0 16 5 41h29q-1 -6 -1 -16q0 -54 75 -54q88 0 105 70h29z" />
    <glyph glyph-name="ebreve" unicode="&#x115;" horiz-adv-x="396" 
d="M272 440q-42 0 -78 -38.5t-58 -114.5q87 0 132 36t45 75q0 18 -11 30t-30 12zM130 260q-8 -38 -8 -86q0 -54 24.5 -80.5t62.5 -26.5q33 0 64.5 19t46.5 51l20 -10q-21 -67 -73 -104t-109 -37q-65 0 -102 41.5t-37 113.5q0 53 21 112t58 111.5t96 86.5t127 34
q42 0 65 -22.5t23 -56.5q0 -24 -11.5 -47.5t-36.5 -47t-75.5 -38t-119.5 -14.5q-24 0 -36 1zM458 678q-16 -68 -59 -108.5t-91 -40.5q-40 0 -66 28.5t-26 78.5q0 17 5 42h29q-1 -6 -1 -16q0 -59 75 -59q38 0 67 18.5t38 56.5h29z" />
    <glyph glyph-name="Edotaccent" unicode="&#x116;" horiz-adv-x="627" 
d="M248 365h66q52 0 86 28t51 93h28q-46 -188 -70 -282h-28q8 30 8 54q0 36 -18 52t-67 16h-66q-11 -41 -28 -111.5t-24 -96.5q-5 -18 -5 -31q0 -27 23.5 -37.5t81.5 -10.5q106 0 167.5 41.5t92.5 122.5h28l-60 -203h-526v28h10q23 0 36.5 17.5t25.5 68.5l113 452q8 33 8 56
q0 16 -6.5 22t-21.5 6h-10v28h506l-42 -186h-28q4 28 4 41q0 104 -158 104h-105zM430 831q23 0 38.5 -16t15.5 -39q0 -26 -16.5 -44t-41.5 -18q-23 0 -39 16.5t-16 39.5q0 25 17.5 43t41.5 18z" />
    <glyph glyph-name="edotaccent" unicode="&#x117;" horiz-adv-x="396" 
d="M272 440q-42 0 -78 -38.5t-58 -114.5q87 0 132 36t45 75q0 18 -11 30t-30 12zM130 260q-8 -38 -8 -86q0 -54 24.5 -80.5t62.5 -26.5q33 0 64.5 19t46.5 51l20 -10q-21 -67 -73 -104t-109 -37q-65 0 -102 41.5t-37 113.5q0 53 21 112t58 111.5t96 86.5t127 34
q42 0 65 -22.5t23 -56.5q0 -24 -11.5 -47.5t-36.5 -47t-75.5 -38t-119.5 -14.5q-24 0 -36 1zM315 652q23 0 39 -17.5t15 -41.5t-18 -41.5t-40 -17.5t-39.5 17.5t-15.5 41.5q2 24 19 41.5t40 17.5z" />
    <glyph glyph-name="Eogonek" unicode="&#x118;" horiz-adv-x="627" 
d="M248 365h66q52 0 86 28t51 93h28q-46 -188 -70 -282h-28q8 32 8 56q0 34 -18.5 50t-66.5 16h-66q-11 -41 -28 -111.5t-24 -96.5q-5 -18 -5 -36q1 -24 24.5 -33.5t80.5 -9.5q106 0 167.5 41.5t92.5 122.5h28l-60 -203h-62q-35 -19 -53 -46t-18 -53q0 -25 18.5 -41.5
t51.5 -16.5t53 11l6 -18q-60 -40 -122 -40q-38 0 -57.5 20t-19.5 51q0 39 28 77t78 56h-429v28h10q23 0 36.5 17.5t25.5 68.5l117 468q6 24 6 38q0 30 -30 30h-10v28h506l-42 -186h-28q5 27 5 45q0 100 -159 100h-105z" />
    <glyph glyph-name="eogonek" unicode="&#x119;" horiz-adv-x="396" 
d="M130 260q-8 -38 -8 -86q0 -54 24.5 -80.5t62.5 -26.5q33 0 64.5 19t46.5 51l20 -10q-20 -62 -67.5 -98.5t-101.5 -41.5q-43 -33 -48 -76q-3 -29 15 -48.5t54 -19.5q33 0 53 11l6 -18q-61 -41 -121 -41q-42 0 -61.5 24t-14.5 59q2 31 22.5 61t55.5 49q-53 8 -83 48.5
t-30 104.5q0 53 21 112t58 111.5t96 86.5t127 34q42 0 65 -22.5t23 -56.5q0 -24 -11.5 -47.5t-36.5 -47t-75.5 -38t-119.5 -14.5q-24 0 -36 1zM272 440q-42 0 -78 -38.5t-58 -114.5q87 0 132 36t45 75q0 18 -11 30t-30 12z" />
    <glyph glyph-name="Ecaron" unicode="&#x11a;" horiz-adv-x="627" 
d="M248 365h66q52 0 86 28t51 93h28q-46 -188 -70 -282h-28q8 30 8 54q0 36 -18 52t-67 16h-66q-11 -41 -28 -111.5t-24 -96.5q-5 -18 -5 -31q0 -27 23.5 -37.5t81.5 -10.5q106 0 167.5 41.5t92.5 122.5h28l-60 -203h-526v28h10q23 0 36.5 17.5t25.5 68.5l113 452q8 33 8 56
q0 16 -6.5 22t-21.5 6h-10v28h506l-42 -186h-28q4 28 4 41q0 104 -158 104h-105zM592 850l-120 -121q-16 -16 -44 -16t-35 15l-69 122l24 4l100 -68l122 68z" />
    <glyph glyph-name="ecaron" unicode="&#x11b;" horiz-adv-x="396" 
d="M272 440q-42 0 -78 -38.5t-58 -114.5q87 0 132 36t45 75q0 18 -11 30t-30 12zM130 260q-8 -38 -8 -86q0 -54 24.5 -80.5t62.5 -26.5q33 0 64.5 19t46.5 51l20 -10q-21 -67 -73 -104t-109 -37q-65 0 -102 41.5t-37 113.5q0 53 21 112t58 111.5t96 86.5t127 34
q42 0 65 -22.5t23 -56.5q0 -24 -11.5 -47.5t-36.5 -47t-75.5 -38t-119.5 -14.5q-24 0 -36 1zM466 675l-117 -135q-17 -18 -43 -18q-27 0 -33 17l-62 136l24 6l93 -76l118 76z" />
    <glyph glyph-name="Gcircumflex" unicode="&#x11c;" horiz-adv-x="707" 
d="M484 694q50 0 88 -5t61 -11t28 -6q11 0 11 -12l-49 -206q-5 -6 -15 -6t-13 6q4 32 4 46q0 70 -30 108.5t-90 38.5q-133 0 -219.5 -122t-86.5 -292q0 -95 45 -149.5t121 -54.5q90 0 105 58q8 33 38 151q3 12 3 22q0 22 -22 29.5t-82 7.5v28h313v-28q-40 0 -58 -14t-29 -59
l-43 -173q-75 -38 -139 -52.5t-147 -14.5q-117 0 -180.5 66t-63.5 176q0 84 34 167.5t92 150.5t143.5 108.5t180.5 41.5zM343 712l119 121q16 16 45 16q27 0 35 -15l69 -122l-25 -4l-100 68l-122 -68z" />
    <glyph glyph-name="gcircumflex" unicode="&#x11d;" horiz-adv-x="475" 
d="M90 10q-45 -16 -45 -56q0 -36 44 -62t121 -26q57 0 93.5 21.5t36.5 53.5q0 21 -18.5 32.5t-65.5 15.5q-123 10 -166 21zM279 483q24 0 63.5 -8t76.5 -8q22 0 51 3t32 3q5 0 5 -14q0 -16 -6 -35t-14 -19q-71 0 -114 16q21 -17 35 -47.5t14 -60.5q0 -64 -53 -111.5
t-155 -47.5q-106 0 -106 -36q0 -10 9 -16.5t31 -10.5t39 -6t54 -4.5t55 -4.5q63 -6 88.5 -29.5t25.5 -66.5q0 -67 -71 -124t-188 -57q-88 0 -141.5 31.5t-53.5 80.5q0 35 31 66.5t81 44.5q-45 15 -45 60q0 32 35 58t97 37q-82 37 -82 124q0 71 55.5 126.5t150.5 55.5z
M270 445q-45 0 -72 -51t-27 -116q0 -91 60 -91q40 0 68.5 51.5t28.5 118.5q0 88 -58 88zM174 529l118 135q15 18 43 18q26 0 33 -17l61 -136l-23 -6l-93 76l-118 -76z" />
    <glyph glyph-name="Gbreve" unicode="&#x11e;" horiz-adv-x="707" 
d="M484 694q50 0 88 -5t61 -11t28 -6q11 0 11 -12l-49 -206q-5 -6 -15 -6t-13 6q4 32 4 46q0 70 -30 108.5t-90 38.5q-133 0 -219.5 -122t-86.5 -292q0 -95 45 -149.5t121 -54.5q90 0 105 58q8 33 38 151q3 12 3 22q0 22 -22 29.5t-82 7.5v28h313v-28q-40 0 -58 -14t-29 -59
l-43 -173q-75 -38 -139 -52.5t-147 -14.5q-117 0 -180.5 66t-63.5 176q0 84 34 167.5t92 150.5t143.5 108.5t180.5 41.5zM628 852q-16 -67 -58.5 -102.5t-91.5 -35.5q-41 0 -66.5 24t-25.5 73q0 16 5 41h29q-1 -6 -1 -16q0 -54 75 -54q88 0 105 70h29z" />
    <glyph glyph-name="gbreve" unicode="&#x11f;" horiz-adv-x="475" 
d="M90 10q-45 -16 -45 -56q0 -36 44 -62t121 -26q57 0 93.5 21.5t36.5 53.5q0 21 -18.5 32.5t-65.5 15.5q-123 10 -166 21zM279 483q24 0 63.5 -8t76.5 -8q22 0 51 3t32 3q5 0 5 -14q0 -16 -6 -35t-14 -19q-71 0 -114 16q21 -17 35 -47.5t14 -60.5q0 -64 -53 -111.5
t-155 -47.5q-106 0 -106 -36q0 -10 9 -16.5t31 -10.5t39 -6t54 -4.5t55 -4.5q63 -6 88.5 -29.5t25.5 -66.5q0 -67 -71 -124t-188 -57q-88 0 -141.5 31.5t-53.5 80.5q0 35 31 66.5t81 44.5q-45 15 -45 60q0 32 35 58t97 37q-82 37 -82 124q0 71 55.5 126.5t150.5 55.5z
M270 445q-45 0 -72 -51t-27 -116q0 -91 60 -91q40 0 68.5 51.5t28.5 118.5q0 88 -58 88zM442 678q-16 -68 -59 -108.5t-91 -40.5q-40 0 -66 28.5t-26 78.5q0 17 5 42h29q-1 -6 -1 -16q0 -59 75 -59q38 0 67 18.5t38 56.5h29z" />
    <glyph glyph-name="Gdotaccent" unicode="&#x120;" horiz-adv-x="707" 
d="M484 694q50 0 88 -5t61 -11t28 -6q11 0 11 -12l-49 -206q-5 -6 -15 -6t-13 6q4 32 4 46q0 70 -30 108.5t-90 38.5q-133 0 -219.5 -122t-86.5 -292q0 -95 45 -149.5t121 -54.5q90 0 105 58q8 33 38 151q3 12 3 22q0 22 -22 29.5t-82 7.5v28h313v-28q-40 0 -58 -14t-29 -59
l-43 -173q-75 -38 -139 -52.5t-147 -14.5q-117 0 -180.5 66t-63.5 176q0 84 34 167.5t92 150.5t143.5 108.5t180.5 41.5zM494 837q23 0 39 -17t15 -42q-1 -24 -18.5 -41t-40.5 -17t-39 17t-15 41q1 25 18.5 42t40.5 17z" />
    <glyph glyph-name="gdotaccent" unicode="&#x121;" horiz-adv-x="475" 
d="M90 10q-45 -16 -45 -56q0 -36 44 -62t121 -26q57 0 93.5 21.5t36.5 53.5q0 21 -18.5 32.5t-65.5 15.5q-123 10 -166 21zM279 483q24 0 63.5 -8t76.5 -8q22 0 51 3t32 3q5 0 5 -14q0 -16 -6 -35t-14 -19q-71 0 -114 16q21 -17 35 -47.5t14 -60.5q0 -64 -53 -111.5
t-155 -47.5q-106 0 -106 -36q0 -10 9 -16.5t31 -10.5t39 -6t54 -4.5t55 -4.5q63 -6 88.5 -29.5t25.5 -66.5q0 -67 -71 -124t-188 -57q-88 0 -141.5 31.5t-53.5 80.5q0 35 31 66.5t81 44.5q-45 15 -45 60q0 32 35 58t97 37q-82 37 -82 124q0 71 55.5 126.5t150.5 55.5z
M270 445q-45 0 -72 -51t-27 -116q0 -91 60 -91q40 0 68.5 51.5t28.5 118.5q0 88 -58 88zM318 678q26 0 41.5 -18t12.5 -43q-4 -26 -24 -43.5t-45 -17.5q-26 0 -41.5 18t-11.5 43q3 26 23 43.5t45 17.5z" />
    <glyph glyph-name="Gcommaaccent" unicode="&#x122;" horiz-adv-x="707" 
d="M484 694q50 0 88 -5t61 -11t28 -6q11 0 11 -12l-49 -206q-5 -3 -15 -3t-13 3q4 32 4 46q0 70 -30 108.5t-90 38.5q-133 0 -219.5 -122t-86.5 -292q0 -95 45 -149.5t121 -54.5q90 0 105 58q8 33 38 151q3 12 3 22q0 22 -22 29.5t-82 7.5v28h313v-28q-40 0 -58 -14t-29 -59
l-43 -173q-75 -38 -139 -52.5t-147 -14.5q-117 0 -180.5 66t-63.5 176q0 84 34 167.5t92 150.5t143.5 108.5t180.5 41.5zM202 -294l-12 25q111 49 111 107q0 8 -10 12t-21.5 6t-21.5 11.5t-10 26.5q0 25 20.5 43.5t49.5 18.5t45 -18t16 -47q0 -49 -39 -98.5t-128 -86.5z" />
    <glyph glyph-name="gcommaaccent" unicode="&#x123;" horiz-adv-x="475" 
d="M403 761l12 -25q-111 -49 -111 -107q0 -15 21 -15q19 0 30.5 -11.5t11.5 -29.5q0 -25 -20.5 -43.5t-49.5 -18.5t-45 18t-16 47q0 49 39 98.5t128 86.5zM90 10q-45 -16 -45 -56q0 -36 44 -62t121 -26q57 0 93.5 21.5t36.5 53.5q0 21 -18.5 32.5t-65.5 15.5
q-123 10 -166 21zM279 483q24 0 63.5 -8t76.5 -8q22 0 51 3t32 3q5 0 5 -14q0 -16 -6 -35t-14 -19q-71 0 -114 16q21 -17 35 -47.5t14 -60.5q0 -64 -53 -111.5t-155 -47.5q-106 0 -106 -36q0 -10 9 -16.5t31 -10.5t39 -6t54 -4.5t55 -4.5q63 -6 88.5 -29.5t25.5 -66.5
q0 -67 -71 -124t-188 -57q-88 0 -141.5 31.5t-53.5 80.5q0 35 31 66.5t81 44.5q-45 15 -45 60q0 32 35 58t97 37q-82 37 -82 124q0 71 55.5 126.5t150.5 55.5zM270 445q-45 0 -72 -51t-27 -116q0 -91 60 -91q40 0 68.5 51.5t28.5 118.5q0 88 -58 88z" />
    <glyph glyph-name="Hcircumflex" unicode="&#x124;" horiz-adv-x="746" 
d="M516 325h-278l-58 -228q-5 -20 -5 -38t6.5 -24.5t22.5 -6.5h10v-28h-226v28h10q23 0 36.5 17.5t25.5 68.5l116 466q6 24 6 38q0 32 -29 32h-10v28h230v-28h-10q-23 0 -35.5 -17t-26.5 -69q-40 -147 -51 -193h277l52 209q6 24 6 38q0 32 -29 32h-10v28h230v-28h-10
q-23 0 -36 -17.5t-26 -68.5q-41 -150 -117 -450l-4 -17q-5 -20 -5 -38t6.5 -24.5t22.5 -6.5h10v-28h-226v28h10q23 0 36.5 17.5t25.5 68.5q21 88 53 211zM331 712l119 121q16 16 45 16q27 0 35 -15l69 -122l-25 -4l-100 68l-122 -68z" />
    <glyph glyph-name="hcircumflex" unicode="&#x125;" horiz-adv-x="525" 
d="M195 327q43 72 102 115t117 43q35 0 56 -21.5t21 -61.5q0 -37 -44 -155.5t-44 -150.5q0 -29 21 -29q16 0 31 15t21 38l23 -10q-10 -43 -52.5 -80t-92.5 -37q-29 0 -42 12.5t-13 40.5q0 32 24 113q4 14 21.5 65.5t27.5 88.5t10 59q0 43 -33 43q-37 0 -89.5 -57t-82.5 -145
l-12 -38q-10 -34 -38 -162q-3 -15 -53 -15t-50 15l149 592q2 10 2 14q0 24 -29 24h-15l5 28q131 16 150 20q6 2 9 2q12 0 12 -7q-72 -215 -112 -359zM165 712l119 121q16 16 45 16q27 0 35 -15l69 -122l-25 -4l-100 68l-122 -68z" />
    <glyph glyph-name="Hbar" unicode="&#x126;" horiz-adv-x="746" 
d="M516 325h-278l-58 -228q-5 -20 -5 -38t6.5 -24.5t22.5 -6.5h10v-28h-226v28h10q23 0 36.5 17.5t25.5 68.5l94 377h-73l12 48h73l10 41q6 24 6 38q0 32 -29 32h-10v28h230v-28h-10q-23 0 -35.5 -17t-26.5 -69q-3 -16 -7 -25h275l10 41q6 24 6 38q0 32 -29 32h-10v28h230
v-28h-10q-23 0 -36 -17.5t-26 -68.5l-7 -25h71l-12 -48h-72q-10 -35 -97 -377l-4 -17q-5 -20 -5 -38t6.5 -24.5t22.5 -6.5h10v-28h-226v28h10q23 0 36.5 17.5t25.5 68.5q21 88 53 211zM250 371h277l30 120h-276q-11 -40 -31 -120z" />
    <glyph glyph-name="hbar" unicode="&#x127;" horiz-adv-x="525" 
d="M195 327q43 72 102 115t117 43q35 0 56 -21.5t21 -61.5q0 -27 -13 -65l-61 -174q-14 -39 -14 -67q0 -29 21 -29q16 0 31 15t21 38l23 -10q-10 -43 -52.5 -80t-92.5 -37q-29 0 -42 12.5t-13 40.5q0 34 31 135l16 53q4 12 12 37.5t12.5 40t8 32t3.5 28.5q0 43 -33 43
q-40 0 -96.5 -65t-83.5 -162l-3 -11q-23 -82 -39 -164q-3 -15 -53 -15t-50 15l130 519h-62q5 21 17 63h61l3 10q2 10 2 14q0 24 -29 24h-15l5 28q131 16 150 20q6 2 9 2q12 0 12 -7l-30 -91h76q-12 -42 -17 -63h-79q-52 -170 -62 -205z" />
    <glyph glyph-name="Itilde" unicode="&#x128;" horiz-adv-x="343" 
d="M301 564q-41 -150 -117 -450q-9 -36 -9 -55q0 -18 6.5 -24.5t22.5 -6.5h10v-28h-226v28h10q23 0 36.5 17.5t25.5 68.5l113 450q9 36 9 54q0 32 -29 32h-10v28h230v-28h-10q-23 0 -36 -17.5t-26 -68.5zM149 714h-27q12 53 44 89t72 36q36 0 73 -33.5t56 -33.5
q24 0 42.5 18.5t23.5 46.5h26q-12 -67 -46.5 -97t-74.5 -30q-32 0 -69.5 33.5t-55.5 33.5q-22 0 -40 -16.5t-24 -46.5z" />
    <glyph glyph-name="itilde" unicode="&#x129;" horiz-adv-x="266" 
d="M243 478q-104 -342 -104 -386q0 -24 18 -24q17 0 32.5 14.5t21.5 37.5l23 -10q-10 -43 -53.5 -80t-94.5 -37q-54 0 -54 53q0 32 37 177t41 168v8q0 28 -44 28l5 29q55 9 165 29zM62 544h-26q12 54 44 92.5t73 38.5q27 0 48.5 -17.5t38.5 -34.5t33 -17q24 0 42.5 19.5
t23.5 47.5h25q-14 -66 -46.5 -99.5t-76.5 -33.5q-25 0 -45.5 17t-37.5 34.5t-34 17.5q-21 0 -38 -17t-24 -48z" />
    <glyph glyph-name="Imacron" unicode="&#x12a;" horiz-adv-x="343" 
d="M301 564q-41 -150 -117 -450q-9 -36 -9 -55q0 -18 6.5 -24.5t22.5 -6.5h10v-28h-226v28h10q23 0 36.5 17.5t25.5 68.5l113 450q9 36 9 54q0 32 -29 32h-10v28h230v-28h-10q-23 0 -36 -17.5t-26 -68.5zM169 786h233l-15 -68h-233z" />
    <glyph glyph-name="imacron" unicode="&#x12b;" horiz-adv-x="266" 
d="M243 478q-104 -342 -104 -386q0 -24 18 -24q17 0 32.5 14.5t21.5 37.5l23 -10q-10 -43 -53.5 -80t-94.5 -37q-54 0 -54 53q0 32 37 177t41 168v8q0 28 -44 28l5 29q55 9 165 29zM76 635h244l-15 -76h-244z" />
    <glyph glyph-name="Ibreve" unicode="&#x12c;" horiz-adv-x="343" 
d="M301 564q-41 -150 -117 -450q-9 -36 -9 -55q0 -18 6.5 -24.5t22.5 -6.5h10v-28h-226v28h10q23 0 36.5 17.5t25.5 68.5l113 450q9 36 9 54q0 32 -29 32h-10v28h230v-28h-10q-23 0 -36 -17.5t-26 -68.5zM417 852q-16 -67 -58.5 -102.5t-91.5 -35.5q-41 0 -66.5 24t-25.5 73
q0 16 5 41h29q-1 -6 -1 -16q0 -54 75 -54q88 0 105 70h29z" />
    <glyph glyph-name="ibreve" unicode="&#x12d;" horiz-adv-x="266" 
d="M243 478q-104 -342 -104 -386q0 -24 18 -24q17 0 32.5 14.5t21.5 37.5l23 -10q-10 -43 -53.5 -80t-94.5 -37q-54 0 -54 53q0 32 37 177t41 168v8q0 28 -44 28l5 29q55 9 165 29zM324 678q-16 -68 -59 -108.5t-91 -40.5q-40 0 -66 28.5t-26 78.5q0 17 5 42h29
q-1 -6 -1 -16q0 -59 75 -59q38 0 67 18.5t38 56.5h29z" />
    <glyph glyph-name="Iogonek" unicode="&#x12e;" horiz-adv-x="343" 
d="M301 564q-41 -150 -117 -450q-9 -33 -9 -57q0 -17 7 -23t22 -6h10v-28h-72q-71 -38 -71 -97q0 -26 18.5 -43t51.5 -17t53 11l6 -18q-60 -40 -121 -40q-40 0 -59 21.5t-19 54.5q0 37 29 74t77 54h-119v28h10q23 0 36.5 17.5t25.5 68.5l113 450q8 31 8 53q0 18 -6.5 25.5
t-21.5 7.5h-10v28h230v-28h-10q-23 0 -36 -17.5t-26 -68.5z" />
    <glyph glyph-name="iogonek" unicode="&#x12f;" horiz-adv-x="266" 
d="M243 478q-104 -342 -104 -386q0 -24 18 -24q17 0 32.5 14.5t21.5 37.5l23 -10q-9 -36 -43 -70t-77 -43q-63 -39 -63 -95q0 -26 18 -42.5t52 -16.5q33 0 53 11l6 -18q-60 -40 -122 -40q-37 0 -56.5 19.5t-19.5 50.5q0 37 23 72.5t66 55.5q-39 6 -39 52q0 32 37 178.5
t41 166.5v8q0 28 -44 28l5 29q55 9 165 29zM224 682q24 0 41 -16.5t17 -40.5t-17 -41t-41 -17t-40.5 17t-16.5 41t16.5 40.5t40.5 16.5z" />
    <glyph glyph-name="Idotaccent" unicode="&#x130;" horiz-adv-x="343" 
d="M301 564q-41 -150 -117 -450q-9 -36 -9 -55q0 -18 6.5 -24.5t22.5 -6.5h10v-28h-226v28h10q23 0 36.5 17.5t25.5 68.5l113 450q9 36 9 54q0 32 -29 32h-10v28h230v-28h-10q-23 0 -36 -17.5t-26 -68.5zM277 837q23 0 39 -17t15 -42q-1 -24 -18.5 -41t-40.5 -17t-39 17
t-15 41q1 25 18.5 42t40.5 17z" />
    <glyph glyph-name="dotlessi" unicode="&#x131;" horiz-adv-x="266" 
d="M243 478q-104 -342 -104 -386q0 -24 18 -24q17 0 32.5 14.5t21.5 37.5l23 -10q-10 -43 -53.5 -80t-94.5 -37q-54 0 -54 53q0 32 37 177t41 168v8q0 28 -44 28l5 29q55 9 165 29z" />
    <glyph glyph-name="IJ" unicode="&#x132;" horiz-adv-x="783" 
d="M301 564q-41 -150 -117 -450q-9 -36 -9 -55q0 -18 6.5 -24.5t22.5 -6.5h10v-28h-226v28h10q23 0 36.5 17.5t25.5 68.5l113 450q9 36 9 54q0 32 -29 32h-10v28h230v-28h-10q-23 0 -36 -17.5t-26 -68.5zM658 212q-58 -228 -255 -228q-101 0 -101 73q0 26 19 48t49 22
q54 0 54 -55q0 -2 -1 -7t-1 -8q0 -29 25 -29q41 0 62 83l113 453q9 38 9 56q0 30 -29 30h-26v28h245v-28h-10q-23 0 -36.5 -17.5t-26.5 -68.5q-43 -163 -90 -352z" />
    <glyph glyph-name="ij" unicode="&#x133;" horiz-adv-x="522" 
d="M510 478q-27 -77 -100 -365q-13 -51 -22.5 -82t-24 -70.5t-30.5 -63t-38 -45.5t-50 -32t-63 -10q-34 0 -54.5 19t-20.5 42q0 25 14 39.5t33 14.5q17 0 29 -11.5t12 -32.5q0 -16 5 -21.5t18 -5.5q6 0 11 2t9 6t7 8.5t6.5 13t5.5 15.5t5 18.5t5 20t5.5 23t5.5 24.5
q13 54 49 197t48 199q2 16 2 18q0 28 -44 28l5 29q55 9 165 29zM243 478q-104 -342 -104 -386q0 -24 18 -24q17 0 32.5 14.5t21.5 37.5l23 -10q-10 -43 -53.5 -80t-94.5 -37q-54 0 -54 53q0 32 37 177t41 168v8q0 28 -44 28l5 29q55 9 165 29zM490 682q24 0 41 -16.5
t17 -40.5t-17 -41t-41 -17t-40.5 17t-16.5 41t16.5 40.5t40.5 16.5zM224 682q24 0 41 -16.5t17 -40.5t-17 -41t-41 -17t-40.5 17t-16.5 41t16.5 40.5t40.5 16.5z" />
    <glyph glyph-name="Jcircumflex" unicode="&#x134;" horiz-adv-x="440" 
d="M315 212q-58 -228 -255 -228q-101 0 -101 73q0 26 19 48t49 22q54 0 54 -55q0 -2 -1 -7t-1 -8q0 -29 25 -29q41 0 62 83l113 453q9 38 9 56q0 30 -29 30h-26v28h245v-28h-10q-23 0 -36.5 -17.5t-26.5 -68.5q-43 -163 -90 -352zM230 712l119 121q16 16 45 16q28 0 35 -15
l69 -122l-25 -4l-100 68l-122 -68z" />
    <glyph glyph-name="jcircumflex" unicode="&#x135;" horiz-adv-x="255" 
d="M244 478q-27 -77 -100 -365q-13 -51 -22.5 -82t-24 -70.5t-30.5 -63t-38 -45.5t-50 -32t-63 -10q-34 0 -54.5 19t-20.5 42q0 25 14 39.5t33 14.5q17 0 29 -11.5t12 -32.5q0 -16 5 -21.5t18 -5.5q6 0 11 2t9 6t7 8.5t6.5 13t5.5 15.5t5 18.5t5 20t5.5 23t5.5 24.5
q13 54 49 197t48 199q2 16 2 18q0 28 -44 28l5 29q55 9 165 29zM50 529l118 135q15 18 43 18q27 0 34 -17l60 -136l-23 -6q-31 26 -93 76q-104 -67 -118 -76z" />
    <glyph glyph-name="Kcommaaccent" unicode="&#x136;" horiz-adv-x="680" 
d="M435 0q-32 49 -64 103t-71 123t-56 98l242 219q48 43 48 74q0 15 -11.5 24t-31.5 9v28h262v-28q-76 -4 -175 -86l-217 -185q49 -79 75 -131q77 -129 114.5 -172.5t63.5 -47.5v-28h-179zM301 564q-41 -150 -117 -450q-9 -38 -9 -56q0 -30 29 -30h10v-28h-226v28h10
q23 0 36.5 17.5t25.5 68.5l113 450q9 38 9 56q0 30 -29 30h-10v28h230v-28h-10q-23 0 -36 -17.5t-26 -68.5zM167 -294l-12 25q111 49 111 106q0 15 -21 15q-19 0 -30.5 11.5t-11.5 30.5q0 24 20.5 42.5t49.5 18.5t45 -17.5t16 -46.5q0 -49 -39 -98.5t-128 -86.5z" />
    <glyph glyph-name="kcommaaccent" unicode="&#x137;" horiz-adv-x="472" 
d="M166 613v7q0 23 -28 23h-15l5 28q131 16 150 20q6 2 9 2q12 0 12 -7q-8 -24 -37 -125.5t-72.5 -264.5t-70.5 -283q-3 -15 -53 -15t-50 15l141 562zM293 0q-19 35 -39.5 76.5t-43 90t-32.5 69.5l144 133q23 22 23 42q0 30 -33 30l4 28h188l-2 -28q-36 -2 -91 -49
l-139 -120q24 -44 46 -88l33 -66q44 -90 79 -90l-3 -28h-134zM95 -294l-12 25q111 49 111 107q0 9 -16 13t-31.5 12.5t-15.5 30.5q0 25 20.5 43.5t49.5 18.5t45 -18t16 -47q0 -49 -39 -98.5t-128 -86.5z" />
    <glyph glyph-name="Lacute" unicode="&#x139;" horiz-adv-x="564" 
d="M173 564q9 38 9 56q0 30 -29 30h-10v28h237v-28h-18q-23 0 -36.5 -17.5t-26.5 -68.5q-78 -300 -111 -435q-5 -17 -5 -36q0 -27 19 -38t62 -11q107 0 168 42t100 142h28l-72 -228h-500v28h10q23 0 36.5 17.5t25.5 68.5zM450 813q-174 -95 -205 -112l-25 6l125 129h104
q12 0 12 -8q0 -7 -11 -15z" />
    <glyph glyph-name="lacute" unicode="&#x13a;" horiz-adv-x="262" 
d="M136 92q0 -24 18 -24q17 0 32.5 14.5t21.5 37.5l23 -10q-10 -43 -53 -80t-94 -37q-55 0 -55 53q0 31 17 96l117 463q2 10 2 14q0 24 -29 24h-15l5 28q131 16 150 20q6 2 9 2q12 0 12 -7q-17 -49 -65 -213t-88 -330q-8 -34 -8 -51zM392 813q-174 -95 -205 -112l-25 6
l125 129h104q12 0 12 -8q0 -7 -11 -15z" />
    <glyph glyph-name="Lcommaaccent" unicode="&#x13b;" horiz-adv-x="564" 
d="M173 564q9 38 9 56q0 30 -29 30h-10v28h237v-28h-18q-23 0 -36.5 -17.5t-26.5 -68.5q-78 -300 -111 -435q-5 -17 -5 -36q0 -27 19 -38t62 -11q107 0 168 42t100 142h28l-72 -228h-500v28h10q23 0 36.5 17.5t25.5 68.5zM132 -294l-12 25q111 49 111 107q0 8 -10 12
t-21.5 6t-21.5 11.5t-10 26.5q0 25 20.5 43.5t49.5 18.5t45 -18t16 -47q0 -49 -39 -98.5t-128 -86.5z" />
    <glyph glyph-name="lcommaaccent" unicode="&#x13c;" horiz-adv-x="262" 
d="M136 92q0 -24 18 -24q17 0 32.5 14.5t21.5 37.5l23 -10q-10 -43 -53 -80t-94 -37q-55 0 -55 53q0 31 17 96l117 463q2 10 2 14q0 24 -29 24h-15l5 28q131 16 150 20q6 2 9 2q12 0 12 -7q-17 -49 -65 -213t-88 -330q-8 -34 -8 -51zM-30 -294l-12 25q110 48 110 107
q0 9 -15.5 13t-31 12.5t-15.5 30.5q0 25 20 43.5t49 18.5t45.5 -18t16.5 -47q0 -49 -39.5 -98.5t-127.5 -86.5z" />
    <glyph glyph-name="Lcaron" unicode="&#x13d;" horiz-adv-x="564" 
d="M173 564q9 38 9 56q0 30 -29 30h-10v28h237v-28h-18q-23 0 -36.5 -17.5t-26.5 -68.5q-78 -300 -111 -435q-5 -17 -5 -36q0 -27 19 -38t62 -11q107 0 168 42t100 142h28l-72 -228h-500v28h10q23 0 36.5 17.5t25.5 68.5zM530 654l-114 -140l-24 7q33 85 59 157h75
q12 0 12 -10q-1 -7 -8 -14z" />
    <glyph glyph-name="lcaron" unicode="&#x13e;" horiz-adv-x="262" 
d="M136 92q0 -24 18 -24q17 0 32.5 14.5t21.5 37.5l23 -10q-10 -43 -53 -80t-94 -37q-55 0 -55 53q0 31 17 96l117 463q2 10 2 14q0 24 -29 24h-15l5 28q131 16 150 20q6 2 9 2q12 0 12 -7q-17 -49 -65 -213t-88 -330q-8 -34 -8 -51zM436 654l-114 -140l-24 7q33 85 59 157
h75q12 0 12 -10q-1 -7 -8 -14z" />
    <glyph glyph-name="Lslash" unicode="&#x141;" horiz-adv-x="564" 
d="M259 402l213 95l-17 -66l-213 -96q-5 -21 -17.5 -65t-19.5 -70.5t-13.5 -58t-6.5 -49.5q0 -26 18 -37t62 -11q108 0 169 42.5t99 141.5h28l-71 -228h-500v28h10q22 0 35 17.5t26 68.5l40 156l-94 -42l16 67l94 41l61 244q5 27 5 38q0 18 -6.5 25t-22.5 7h-10v28h238v-28
h-18q-23 0 -36 -17.5t-26 -68.5q-15 -54 -43 -162z" />
    <glyph glyph-name="lslash" unicode="&#x142;" horiz-adv-x="262" 
d="M85 297q-9 -6 -82 -55q7 26 16 62l81 53l63 248q2 10 2 14q0 24 -29 24h-15l5 28q131 16 150 20q6 2 9 2q12 0 12 -7q-28 -80 -75 -248l73 48l-15 -63l-75 -48q-41 -146 -61 -235q-8 -32 -8 -48q0 -24 18 -24q17 0 32.5 14.5t21.5 37.5l23 -10q-10 -43 -53 -80t-94 -37
q-55 0 -55 53q0 29 26 133z" />
    <glyph glyph-name="Nacute" unicode="&#x143;" horiz-adv-x="700" 
d="M521 209q14 68 27 117l54 217q7 33 7 48q0 59 -73 59h-12v28h226v-28h-10q-24 0 -48 -23t-38 -80l-137 -547q-2 -8 -25 -8q-8 0 -13 3l-200 455q-30 65 -43 109q-5 -28 -27 -119l-73 -293q-9 -37 -9 -60q0 -33 20 -46t64 -13h14v-28h-242v28h10q30 0 51 26.5t37 90.5
l105 421q4 13 4 27q0 29 -16.5 43t-37.5 14h-10v28h197l155 -358q34 -79 43 -111zM603 813l-206 -112l-24 6l125 129h103q13 0 13 -10q-2 -6 -11 -13z" />
    <glyph glyph-name="nacute" unicode="&#x144;" horiz-adv-x="527" 
d="M424 67q16 0 31 15t21 38l23 -10q-10 -43 -52.5 -80t-92.5 -37q-29 0 -42 12.5t-13 40.5q0 29 31 135l18 61q34 102 34 130q0 43 -33 43q-40 0 -96.5 -65t-83.5 -162q-21 -72 -42 -175q-3 -15 -53 -15t-50 15l95 377v8q0 17 -10.5 23t-33.5 6l5 29q58 11 149 29l8 -6
q-20 -47 -41 -150q42 71 101 113.5t117 42.5q35 0 56 -21.5t21 -61.5q0 -27 -13 -65l-61 -174q-14 -39 -14 -67q0 -29 21 -29zM467 654q-60 -45 -180 -133l-24 7l113 150h90q12 0 12 -10q-1 -7 -11 -14z" />
    <glyph glyph-name="Ncommaaccent" unicode="&#x145;" horiz-adv-x="700" 
d="M521 209q14 68 27 117l54 217q7 33 7 48q0 59 -73 59h-12v28h226v-28h-10q-24 0 -48 -23t-38 -80l-137 -547q-2 -8 -25 -8q-8 0 -13 3l-200 455q-30 65 -43 109q-5 -28 -27 -119l-73 -293q-9 -37 -9 -60q0 -33 20 -46t64 -13h14v-28h-242v28h10q30 0 51 26.5t37 90.5
l105 421q4 13 4 27q0 29 -16.5 43t-37.5 14h-10v28h197l155 -358q34 -79 43 -111zM171 -301l-11 25q110 48 110 106q0 15 -21 15q-19 0 -30 11.5t-11 30.5q0 24 20 42.5t49 18.5t45.5 -17.5t16.5 -46.5q0 -49 -39.5 -98.5t-128.5 -86.5z" />
    <glyph glyph-name="ncommaaccent" unicode="&#x146;" horiz-adv-x="527" 
d="M424 67q16 0 31 15t21 38l23 -10q-10 -43 -52.5 -80t-92.5 -37q-29 0 -42 12.5t-13 40.5q0 29 31 135l18 61q34 102 34 130q0 43 -33 43q-40 0 -96.5 -65t-83.5 -162q-21 -72 -42 -175q-3 -15 -53 -15t-50 15l95 377v8q0 17 -10.5 23t-33.5 6l5 29q58 11 149 29l8 -6
q-20 -47 -41 -150q42 71 101 113.5t117 42.5q35 0 56 -21.5t21 -61.5q0 -27 -13 -65l-61 -174q-14 -39 -14 -67q0 -29 21 -29zM97 -294l-12 25q111 49 111 107q0 9 -16 13t-31.5 12.5t-15.5 30.5q0 25 20.5 43.5t49.5 18.5t45 -18t16 -47q0 -49 -39 -98.5t-128 -86.5z" />
    <glyph glyph-name="Ncaron" unicode="&#x147;" horiz-adv-x="700" 
d="M521 209q14 68 27 117l54 217q7 33 7 48q0 59 -73 59h-12v28h226v-28h-10q-24 0 -48 -23t-38 -80l-137 -547q-2 -8 -25 -8q-8 0 -13 3l-200 455q-30 65 -43 109q-5 -28 -27 -119l-73 -293q-9 -37 -9 -60q0 -33 20 -46t64 -13h14v-28h-242v28h10q30 0 51 26.5t37 90.5
l105 421q4 13 4 27q0 29 -16.5 43t-37.5 14h-10v28h197l155 -358q34 -79 43 -111zM611 850l-120 -121q-14 -16 -44 -16q-27 0 -35 15l-69 122l24 4l100 -68l122 68z" />
    <glyph glyph-name="ncaron" unicode="&#x148;" horiz-adv-x="527" 
d="M424 67q16 0 31 15t21 38l23 -10q-10 -43 -52.5 -80t-92.5 -37q-29 0 -42 12.5t-13 40.5q0 29 31 135l18 61q34 102 34 130q0 43 -33 43q-40 0 -96.5 -65t-83.5 -162q-21 -72 -42 -175q-3 -15 -53 -15t-50 15l95 377v8q0 17 -10.5 23t-33.5 6l5 29q58 11 149 29l8 -6
q-20 -47 -41 -150q42 71 101 113.5t117 42.5q35 0 56 -21.5t21 -61.5q0 -27 -13 -65l-61 -174q-14 -39 -14 -67q0 -29 21 -29zM477 675l-118 -135q-15 -18 -43 -18q-26 0 -33 17l-61 136l24 6q17 -15 50.5 -42t41.5 -34l119 76z" />
    <glyph glyph-name="napostrophe" unicode="&#x149;" horiz-adv-x="527" 
d="M424 67q16 0 31 15t21 38l23 -10q-10 -43 -52.5 -80t-92.5 -37q-29 0 -42 12.5t-13 40.5q0 29 31 135l18 61q34 102 34 130q0 43 -33 43q-40 0 -96.5 -65t-83.5 -162q-21 -72 -42 -175q-3 -15 -53 -15t-50 15l95 377v8q0 17 -10.5 23t-33.5 6l5 29q58 11 149 29l8 -6
q-20 -47 -41 -150q42 71 101 113.5t117 42.5q35 0 56 -21.5t21 -61.5q0 -27 -13 -65l-61 -174q-14 -39 -14 -67q0 -29 21 -29zM127 504l-10 20q91 38 91 83q0 8 -13 10.5t-25.5 9.5t-12.5 24q0 19 17 33.5t40 14.5q24 0 37.5 -14t13.5 -36q0 -38 -32 -77t-106 -68z" />
    <glyph glyph-name="eng" unicode="&#x14b;" horiz-adv-x="527" 
d="M424 67q16 0 31 15t21 38l23 -10q-10 -43 -52.5 -80t-92.5 -37q-29 0 -42 12.5t-13 40.5q0 29 31 135l18 61q3 10 13.5 43.5t15.5 53.5t5 33q0 43 -33 43q-40 0 -96.5 -65t-83.5 -162q-21 -72 -42 -175q-3 -15 -53 -15t-50 15l95 377v8q0 17 -10.5 23t-33.5 6l5 29
q58 11 149 29l8 -6q-20 -47 -41 -150q42 71 101 113.5t117 42.5q35 0 56 -21.5t21 -61.5q0 -27 -13 -65l-61 -174q-14 -39 -14 -67q0 -29 21 -29z" />
    <glyph glyph-name="Omacron" unicode="&#x14c;" horiz-adv-x="715" 
d="M313 581q-63 -69 -98 -180.5t-35 -211.5q0 -79 28.5 -121t78.5 -42q79 0 143.5 76.5t97 183.5t32.5 211q0 73 -28.5 111.5t-80.5 38.5q-75 0 -138 -66zM699 433q0 -111 -55.5 -214.5t-153 -169t-208.5 -65.5q-109 0 -176.5 63.5t-67.5 184.5q0 126 61 233.5t156.5 167.5
t198.5 60q110 0 177.5 -69.5t67.5 -190.5zM353 786h232l-15 -68h-232z" />
    <glyph glyph-name="omacron" unicode="&#x14d;" horiz-adv-x="454" 
d="M307 485q68 0 103 -44t35 -114q0 -51 -20.5 -109t-56 -110.5t-92 -87t-120.5 -34.5q-70 0 -105 43.5t-35 114.5q0 127 87.5 234t203.5 107zM270 436q-55 0 -98.5 -87.5t-43.5 -197.5q0 -121 59 -121q56 0 99.5 88.5t43.5 197.5q0 120 -60 120zM197 635h244l-16 -76h-244z
" />
    <glyph glyph-name="Obreve" unicode="&#x14e;" horiz-adv-x="715" 
d="M451 647q-52 0 -98 -31.5t-77 -81t-53 -111t-32.5 -122t-10.5 -112.5q0 -79 28.5 -121t78.5 -42q79 0 143.5 76.5t97 183.5t32.5 211q0 73 -28.5 111.5t-80.5 38.5zM454 693q110 0 177.5 -69.5t67.5 -190.5q0 -111 -55.5 -214.5t-153 -169t-208.5 -65.5
q-109 0 -176.5 63.5t-67.5 184.5q0 126 61 233.5t156.5 167.5t198.5 60zM594 852q-16 -67 -58.5 -102.5t-91.5 -35.5q-41 0 -66.5 24t-25.5 73q0 16 5 41h29q-1 -6 -1 -16q0 -54 75 -54q88 0 105 70h29z" />
    <glyph glyph-name="obreve" unicode="&#x14f;" horiz-adv-x="454" 
d="M307 485q68 0 103 -44t35 -114q0 -51 -20.5 -109t-56 -110.5t-92 -87t-120.5 -34.5q-70 0 -105 43.5t-35 114.5q0 127 87.5 234t203.5 107zM270 436q-55 0 -98.5 -87.5t-43.5 -197.5q0 -121 59 -121q56 0 99.5 88.5t43.5 197.5q0 120 -60 120zM435 678
q-16 -68 -59 -108.5t-91 -40.5q-40 0 -66 28.5t-26 78.5q0 17 5 42h29q-1 -6 -1 -16q0 -59 75 -59q38 0 67 18.5t38 56.5h29z" />
    <glyph glyph-name="Ohungarumlaut" unicode="&#x150;" horiz-adv-x="715" 
d="M313 581q-63 -69 -98 -180.5t-35 -211.5q0 -79 28.5 -121t78.5 -42q79 0 143.5 76.5t97 183.5t32.5 211q0 73 -28.5 111.5t-80.5 38.5q-75 0 -138 -66zM699 433q0 -111 -55.5 -214.5t-153 -169t-208.5 -65.5q-109 0 -176.5 63.5t-67.5 184.5q0 126 61 233.5t156.5 167.5
t198.5 60q110 0 177.5 -69.5t67.5 -190.5zM511 818l-173 -111l-22 6l112 126h82q12 0 12 -7t-11 -14zM669 818l-172 -111l-23 6l112 126h83q13 0 13 -8q-1 -5 -13 -13z" />
    <glyph glyph-name="ohungarumlaut" unicode="&#x151;" horiz-adv-x="454" 
d="M307 485q68 0 103 -44t35 -114q0 -51 -20.5 -109t-56 -110.5t-92 -87t-120.5 -34.5q-70 0 -105 43.5t-35 114.5q0 127 87.5 234t203.5 107zM270 436q-55 0 -98.5 -87.5t-43.5 -197.5q0 -121 59 -121q56 0 99.5 88.5t43.5 197.5q0 120 -60 120zM357 653l-162 -132l-22 7
l106 150h77q12 0 12 -10q-2 -8 -11 -15zM506 653l-162 -132l-22 7l106 150h78q11 0 11 -8q0 -9 -11 -17z" />
    <glyph glyph-name="OE" unicode="&#x152;" horiz-adv-x="1019" 
d="M450 647q-53 0 -99 -32.5t-76.5 -83t-52.5 -113t-32 -121t-10 -108.5q0 -79 28.5 -121t78.5 -42q78 0 142.5 76.5t97.5 183.5t33 211q0 73 -29 111.5t-81 38.5zM387 0q-54 -16 -105 -16q-110 0 -177 63.5t-67 184.5q0 125 60.5 232.5t156 168t199.5 60.5q52 0 92 -15h494
l-42 -186h-28q4 19 4 40q0 105 -157 105h-205q74 -68 74 -204q0 -39 -5 -68h24q52 0 87 28t51 93h28q-24 -94 -70 -282h-28q9 38 9 57q0 65 -86 65h-22q-20 -64 -47.5 -113.5t-48 -71.5t-35 -38.5t-14.5 -25.5q0 -38 119 -38q228 0 290 164h28l-60 -203h-519z" />
    <glyph glyph-name="oe" unicode="&#x153;" horiz-adv-x="689" 
d="M328 63q-75 -77 -172 -77q-71 0 -105.5 43.5t-34.5 114.5q0 127 87.5 234t203.5 107q89 0 123 -79q79 79 184 79q42 0 65 -22.5t23 -56.5q0 -24 -11.5 -47.5t-36.5 -47t-75.5 -38t-119.5 -14.5q-24 0 -36 1q-8 -38 -8 -86q0 -54 24.5 -80.5t62.5 -26.5q33 0 64.5 19
t46.5 51l20 -10q-21 -67 -73 -104t-109 -37q-91 0 -123 77zM270 436q-55 0 -98.5 -87.5t-43.5 -197.5q0 -121 59 -121q56 0 99.5 88.5t43.5 197.5q0 120 -60 120zM565 440q-42 0 -78 -38.5t-58 -114.5q87 0 132 36t45 75q0 18 -11 30t-30 12z" />
    <glyph glyph-name="Racute" unicode="&#x154;" horiz-adv-x="673" 
d="M232 305l-48 -191q-9 -38 -9 -57q0 -29 29 -29h13v-28h-229v28h10q23 0 36.5 17.5t25.5 68.5l113 450q9 38 9 56q0 30 -29 30h-10v28h257q238 0 238 -176q0 -65 -57 -119.5t-157 -66.5q45 -118 101 -211q20 -34 36.5 -51t26.5 -21t27 -5v-28h-182q-51 89 -126 300
q-38 0 -75 5zM242 342q37 -5 73 -5q93 0 143 51t50 127q0 55 -32 89t-97 34q-26 0 -59 -5q-31 -108 -78 -291zM549 813l-206 -112l-24 6l125 129h103q13 0 13 -10q-2 -6 -11 -13z" />
    <glyph glyph-name="racute" unicode="&#x155;" horiz-adv-x="399" 
d="M308 407q-24 0 -66 -62t-67 -151q-25 -85 -43 -181q-3 -15 -53 -15t-50 15l91 359q5 22 5 26q0 29 -45 29l5 29q58 11 149 29l8 -6q-15 -35 -40 -140q87 144 165 144q29 0 45 -18.5t16 -50.5q0 -38 -21 -65t-49 -27q-17 0 -28.5 12t-11.5 32q0 5 1 13.5t1 11.5
q0 16 -12 16zM441 654q-16 -12 -181 -133l-24 7l114 150h89q12 0 12 -8q0 -7 -10 -16z" />
    <glyph glyph-name="Rcommaaccent" unicode="&#x156;" horiz-adv-x="673" 
d="M232 305l-48 -191q-9 -38 -9 -57q0 -29 29 -29h13v-28h-229v28h10q23 0 36.5 17.5t25.5 68.5l113 450q9 38 9 56q0 30 -29 30h-10v28h257q238 0 238 -176q0 -65 -57 -119.5t-157 -66.5q45 -118 101 -211q20 -34 36.5 -51t26.5 -21t27 -5v-28h-182q-51 89 -126 300
q-38 0 -75 5zM242 342q37 -5 73 -5q93 0 143 51t50 127q0 55 -32 89t-97 34q-26 0 -59 -5q-31 -108 -78 -291zM200 -294q-2 5 -6 13.5t-5 11.5q110 48 110 107q0 9 -15.5 13t-31 12.5t-15.5 30.5q0 25 20 43.5t49 18.5t45.5 -18t16.5 -47q0 -49 -39.5 -98.5t-128.5 -86.5z
" />
    <glyph glyph-name="rcommaaccent" unicode="&#x157;" horiz-adv-x="399" 
d="M308 407q-24 0 -66 -62t-67 -151q-25 -85 -43 -181q-3 -15 -53 -15t-50 15l91 359q5 22 5 26q0 29 -45 29l5 29q58 11 149 29l8 -6q-15 -35 -40 -140q87 144 165 144q29 0 45 -18.5t16 -50.5q0 -38 -21 -65t-49 -27q-17 0 -28.5 12t-11.5 32q0 5 1 13.5t1 11.5
q0 16 -12 16zM-29 -294l-12 25q110 48 110 107q0 9 -15.5 13t-31 12.5t-15.5 30.5q0 25 20 43.5t49 18.5t45.5 -18t16.5 -47q0 -49 -39.5 -98.5t-127.5 -86.5z" />
    <glyph glyph-name="Rcaron" unicode="&#x158;" horiz-adv-x="673" 
d="M232 305l-48 -191q-9 -38 -9 -57q0 -29 29 -29h13v-28h-229v28h10q23 0 36.5 17.5t25.5 68.5l113 450q9 38 9 56q0 30 -29 30h-10v28h257q238 0 238 -176q0 -65 -57 -119.5t-157 -66.5q45 -118 101 -211q20 -34 36.5 -51t26.5 -21t27 -5v-28h-182q-51 89 -126 300
q-38 0 -75 5zM242 342q37 -5 73 -5q93 0 143 51t50 127q0 55 -32 89t-97 34q-26 0 -59 -5q-31 -108 -78 -291zM570 850l-120 -121q-16 -16 -44 -16t-35 15l-69 122l24 4l100 -68l122 68z" />
    <glyph glyph-name="rcaron" unicode="&#x159;" horiz-adv-x="399" 
d="M308 407q-24 0 -66 -62t-67 -151q-25 -85 -43 -181q-3 -15 -53 -15t-50 15l91 359q5 22 5 26q0 29 -45 29l5 29q58 11 149 29l8 -6q-15 -35 -40 -140q87 144 165 144q29 0 45 -18.5t16 -50.5q0 -38 -21 -65t-49 -27q-17 0 -28.5 12t-11.5 32q0 5 1 13.5t1 11.5
q0 16 -12 16zM439 675l-118 -135q-15 -18 -43 -18q-26 0 -33 17l-61 136l24 6q17 -15 50.5 -42t41.5 -34l119 76z" />
    <glyph glyph-name="Sacute" unicode="&#x15a;" horiz-adv-x="549" 
d="M213 -16q-47 0 -89.5 7t-73.5 16t-38 10q-11 2 -11 11l48 191h30q-4 -28 -4 -40q0 -72 37.5 -112t103.5 -40q55 0 92.5 27.5t37.5 84.5q0 44 -23.5 75.5t-82.5 79.5t-90 92t-31 104q0 81 65 142.5t173 61.5q63 0 120.5 -11t59.5 -11q11 0 11 -12l-52 -194q-2 -8 -16 -8
q-13 0 -13 8q4 30 4 43q0 69 -32.5 105.5t-89.5 36.5q-51 0 -82 -30.5t-31 -78.5q0 -42 21.5 -72t77.5 -77q75 -62 109 -108t34 -101q0 -86 -68.5 -143t-196.5 -57zM512 813l-205 -112l-25 6l125 129h104q7 0 10 -2.5t2 -7.5q0 -5 -11 -13z" />
    <glyph glyph-name="sacute" unicode="&#x15b;" horiz-adv-x="377" 
d="M372 455l-27 -134q-1 -5 -13 -5q-15 0 -15 17q1 5 1 13q0 45 -22.5 72.5t-58.5 27.5q-29 0 -47 -17t-18 -47q0 -26 24 -56t52.5 -54.5t52.5 -62t24 -76.5q0 -71 -50 -108.5t-132 -37.5q-24 0 -70.5 7t-63.5 7q-9 0 -9 9q0 5 1 9q22 107 31 145h27q-3 -16 -3 -32
q0 -49 27 -79t69 -30q37 0 57.5 19t20.5 53q0 22 -15.5 44t-37 42.5t-43.5 43t-37.5 52.5t-15.5 63q0 64 46.5 104.5t118.5 40.5q28 0 67.5 -8.5t45.5 -8.5q13 0 13 -11v-2zM394 654q-60 -45 -180 -133l-24 7l113 150h90q12 0 12 -10q-1 -7 -11 -14z" />
    <glyph glyph-name="Scircumflex" unicode="&#x15c;" horiz-adv-x="549" 
d="M213 -16q-47 0 -89.5 7t-73.5 16t-38 10q-11 2 -11 11l48 191h30q-4 -28 -4 -40q0 -72 37.5 -112t103.5 -40q55 0 92.5 27.5t37.5 84.5q0 44 -23.5 75.5t-82.5 79.5t-90 92t-31 104q0 81 65 142.5t173 61.5q63 0 120.5 -11t59.5 -11q11 0 11 -12l-52 -194q-2 -8 -16 -8
q-13 0 -13 8q4 30 4 43q0 69 -32.5 105.5t-89.5 36.5q-51 0 -82 -30.5t-31 -78.5q0 -42 21.5 -72t77.5 -77q75 -62 109 -108t34 -101q0 -86 -68.5 -143t-196.5 -57zM243 712l119 121q16 16 45 16q27 0 35 -15l69 -122l-25 -4l-100 68l-122 -68z" />
    <glyph glyph-name="scircumflex" unicode="&#x15d;" horiz-adv-x="377" 
d="M372 455l-27 -134q-1 -5 -13 -5q-15 0 -15 17q1 5 1 13q0 45 -22.5 72.5t-58.5 27.5q-29 0 -47 -17t-18 -47q0 -26 24 -56t52.5 -54.5t52.5 -62t24 -76.5q0 -71 -50 -108.5t-132 -37.5q-24 0 -70.5 7t-63.5 7q-9 0 -9 9q0 5 1 9q22 107 31 145h27q-3 -16 -3 -32
q0 -49 27 -79t69 -30q37 0 57.5 19t20.5 53q0 22 -15.5 44t-37 42.5t-43.5 43t-37.5 52.5t-15.5 63q0 64 46.5 104.5t118.5 40.5q28 0 67.5 -8.5t45.5 -8.5q13 0 13 -11v-2zM125 529l118 135q15 18 43 18q26 0 33 -17l61 -136l-23 -6l-93 76l-118 -76z" />
    <glyph glyph-name="Scedilla" unicode="&#x15e;" horiz-adv-x="549" 
d="M134 -83l52 68q-41 2 -77.5 9t-63 14.5t-33.5 8.5q-11 2 -11 11l48 191h30q-4 -28 -4 -40q0 -72 37.5 -112t103.5 -40q55 0 92.5 27.5t37.5 84.5q0 44 -23.5 75.5t-82.5 79.5t-90 92t-31 104q0 81 65 142.5t173 61.5q63 0 120.5 -11t59.5 -11q11 0 11 -12l-52 -194
q-2 -8 -16 -8q-13 0 -13 8q4 30 4 43q0 69 -32.5 105.5t-89.5 36.5q-51 0 -82 -30.5t-31 -78.5q0 -42 21.5 -72t77.5 -77q75 -62 109 -108t34 -101q0 -84 -66 -140.5t-189 -59.5l-33 -37q43 0 66 -22t19 -54q-5 -40 -46.5 -68t-112.5 -28q-47 0 -64 11l17 25q16 -7 44 -7
q77 0 84 53q2 16 -11.5 27.5t-41.5 11.5q-17 0 -17 10q1 3 7 11z" />
    <glyph glyph-name="Scedilla" unicode="&#xf6c1;" horiz-adv-x="549" 
d="M134 -83l52 68q-41 2 -77.5 9t-63 14.5t-33.5 8.5q-11 2 -11 11l48 191h30q-4 -28 -4 -40q0 -72 37.5 -112t103.5 -40q55 0 92.5 27.5t37.5 84.5q0 44 -23.5 75.5t-82.5 79.5t-90 92t-31 104q0 81 65 142.5t173 61.5q63 0 120.5 -11t59.5 -11q11 0 11 -12l-52 -194
q-2 -8 -16 -8q-13 0 -13 8q4 30 4 43q0 69 -32.5 105.5t-89.5 36.5q-51 0 -82 -30.5t-31 -78.5q0 -42 21.5 -72t77.5 -77q75 -62 109 -108t34 -101q0 -84 -66 -140.5t-189 -59.5l-33 -37q43 0 66 -22t19 -54q-5 -40 -46.5 -68t-112.5 -28q-47 0 -64 11l17 25q16 -7 44 -7
q77 0 84 53q2 16 -11.5 27.5t-41.5 11.5q-17 0 -17 10q1 3 7 11z" />
    <glyph glyph-name="scedilla" unicode="&#x15f;" horiz-adv-x="377" 
d="M64 -83l55 71q-12 1 -52.5 7t-57.5 6q-9 0 -9 9q0 5 1 9q22 107 31 145h27q-3 -16 -3 -32q0 -49 27 -79t69 -30q37 0 57.5 19t20.5 53q0 22 -15.5 44t-37 42.5t-43.5 43t-37.5 52.5t-15.5 63q0 64 46 104t117 40q29 0 70 -8t45 -8q13 0 13 -11v-2l-27 -134q-1 -5 -13 -5
q-15 0 -15 17q1 5 1 13q0 45 -22.5 72.5t-58.5 27.5q-29 0 -47 -17t-18 -47q0 -26 24 -56t52.5 -55t52.5 -62.5t24 -75.5q0 -68 -46 -105t-122 -40q-36 -39 -37 -40q40 0 62.5 -19.5t22.5 -48.5q0 -43 -41.5 -73.5t-117.5 -30.5q-46 0 -63 11q5 8 17 24q14 -7 44 -7
q39 0 61.5 15.5t22.5 40.5q0 16 -13.5 26t-39.5 10q-17 0 -17 9q0 5 6 12z" />
    <glyph glyph-name="scedilla" unicode="&#xf6c2;" horiz-adv-x="377" 
d="M64 -83l55 71q-12 1 -52.5 7t-57.5 6q-9 0 -9 9q0 5 1 9q22 107 31 145h27q-3 -16 -3 -32q0 -49 27 -79t69 -30q37 0 57.5 19t20.5 53q0 22 -15.5 44t-37 42.5t-43.5 43t-37.5 52.5t-15.5 63q0 64 46 104t117 40q29 0 70 -8t45 -8q13 0 13 -11v-2l-27 -134q-1 -5 -13 -5
q-15 0 -15 17q1 5 1 13q0 45 -22.5 72.5t-58.5 27.5q-29 0 -47 -17t-18 -47q0 -26 24 -56t52.5 -55t52.5 -62.5t24 -75.5q0 -68 -46 -105t-122 -40q-36 -39 -37 -40q40 0 62.5 -19.5t22.5 -48.5q0 -43 -41.5 -73.5t-117.5 -30.5q-46 0 -63 11q5 8 17 24q14 -7 44 -7
q39 0 61.5 15.5t22.5 40.5q0 16 -13.5 26t-39.5 10q-17 0 -17 9q0 5 6 12z" />
    <glyph glyph-name="Scaron" unicode="&#x160;" horiz-adv-x="549" 
d="M213 -16q-47 0 -89.5 7t-73.5 16t-38 10q-12 2 -11 11l48 191h30q-4 -28 -4 -40q0 -72 37.5 -112t103.5 -40q55 0 92.5 27.5t37.5 84.5q0 44 -23.5 75.5t-82.5 79.5t-90 92t-31 104q0 81 65 142.5t173 61.5q63 0 120.5 -11t59.5 -11q11 0 11 -12l-52 -194q-2 -8 -16 -8
q-13 0 -13 8q4 30 4 43q0 69 -32.5 105.5t-89.5 36.5q-51 0 -82 -30.5t-31 -78.5q0 -42 21.5 -72t77.5 -77q75 -62 109 -108t34 -101q0 -86 -68.5 -143t-196.5 -57zM530 847l-119 -121q-16 -16 -45 -16q-28 0 -35 15l-69 122l25 4l100 -68l122 68z" />
    <glyph glyph-name="scaron" unicode="&#x161;" horiz-adv-x="377" 
d="M372 455l-27 -134q-1 -5 -13 -5q-15 0 -15 17q1 5 1 13q0 45 -22.5 72.5t-58.5 27.5q-29 0 -47 -17t-18 -47q0 -26 24 -56t52.5 -54.5t52.5 -62t24 -76.5q0 -71 -50 -108.5t-132 -37.5q-24 0 -70.5 7t-63.5 7q-9 0 -9 9q0 5 1 9q22 107 31 145h27q-3 -16 -3 -32
q0 -49 27 -79t69 -30q37 0 57.5 19t20.5 53q0 22 -15.5 44t-37 42.5t-43.5 43t-37.5 52.5t-15.5 63q0 64 46.5 104.5t118.5 40.5q28 0 67.5 -8.5t45.5 -8.5q13 0 13 -11v-2zM413 675l-117 -135q-16 -18 -43 -18t-33 17l-62 136l24 6q31 -26 93 -76q104 67 118 76z" />
    <glyph glyph-name="Tcommaaccent" unicode="&#x162;" horiz-adv-x="592" 
d="M315 634q-117 -3 -170 -42t-71 -108h-28l52 194h580l-44 -194h-28q6 24 6 47q0 47 -38 73.5t-132 29.5q-72 -273 -133 -520q-8 -32 -8 -57q0 -29 27 -29h10v-28h-226v28h10q23 0 37 18t26 68q97 390 130 520zM92 -294l-12 25q111 49 111 107q0 8 -10 12t-21.5 6
t-21.5 11.5t-10 26.5q0 25 20.5 43.5t49.5 18.5t45 -18t16 -47q0 -49 -39 -98.5t-128 -86.5z" />
    <glyph glyph-name="Tcommaaccent" unicode="&#x21a;" horiz-adv-x="592" 
d="M315 634q-117 -3 -170 -42t-71 -108h-28l52 194h580l-44 -194h-28q6 24 6 47q0 47 -38 73.5t-132 29.5q-72 -273 -133 -520q-8 -32 -8 -57q0 -29 27 -29h10v-28h-226v28h10q23 0 37 18t26 68q97 390 130 520zM92 -294l-12 25q111 49 111 107q0 8 -10 12t-21.5 6
t-21.5 11.5t-10 26.5q0 25 20.5 43.5t49.5 18.5t45 -18t16 -47q0 -49 -39 -98.5t-128 -86.5z" />
    <glyph glyph-name="tcommaaccent" unicode="&#x163;" horiz-adv-x="319" 
d="M302 139q-24 -55 -77 -101.5t-113 -46.5q-31 0 -50 19.5t-19 58.5q0 13 5 35l74 306h-77l6 28q141 22 207 167h30q-30 -87 -43 -136h107l-13 -59h-111q-78 -269 -78 -304q0 -34 32 -34q25 0 52 20.5t47 57.5zM8 -301l-12 25q111 49 111 106q0 15 -21 15q-19 0 -30.5 11.5
t-11.5 30.5q0 24 20.5 42.5t49.5 18.5t45 -17.5t16 -46.5q0 -49 -39 -98.5t-128 -86.5z" />
    <glyph glyph-name="tcommaaccent" unicode="&#x21b;" horiz-adv-x="319" 
d="M302 139q-24 -55 -77 -101.5t-113 -46.5q-31 0 -50 19.5t-19 58.5q0 13 5 35l74 306h-77l6 28q141 22 207 167h30q-30 -87 -43 -136h107l-13 -59h-111q-78 -269 -78 -304q0 -34 32 -34q25 0 52 20.5t47 57.5zM8 -301l-12 25q111 49 111 106q0 15 -21 15q-19 0 -30.5 11.5
t-11.5 30.5q0 24 20.5 42.5t49.5 18.5t45 -17.5t16 -46.5q0 -49 -39 -98.5t-128 -86.5z" />
    <glyph glyph-name="Tcaron" unicode="&#x164;" horiz-adv-x="592" 
d="M315 634q-117 -3 -170 -42t-71 -108h-28l52 194h580l-44 -194h-28q6 24 6 47q0 47 -38 73.5t-132 29.5q-72 -273 -133 -520q-8 -32 -8 -57q0 -29 27 -29h10v-28h-226v28h10q23 0 37 18t26 68q97 390 130 520zM552 850l-120 -121q-16 -16 -44 -16t-35 15l-69 122l24 4
l100 -68l122 68z" />
    <glyph glyph-name="tcaron" unicode="&#x165;" horiz-adv-x="319" 
d="M302 139q-24 -55 -77 -101.5t-113 -46.5q-31 0 -50 19.5t-19 58.5q0 13 5 35l74 306h-77l6 28q141 22 207 167h30q-30 -87 -43 -136h107l-13 -59h-111q-78 -269 -78 -304q0 -34 32 -34q25 0 52 20.5t47 57.5zM456 654l-114 -140l-24 7l59 157h74q7 0 10 -2.5t2 -7.5
q0 -6 -7 -14z" />
    <glyph glyph-name="Tbar" unicode="&#x166;" horiz-adv-x="592" 
d="M179 322h57q52 208 79 312q-117 -3 -170 -42t-71 -108h-28l52 194h580l-44 -194h-28q6 24 6 47q0 47 -38 73.5t-132 29.5q-31 -115 -81 -312h50l-12 -58h-53l-37 -150q-8 -32 -8 -57q0 -29 27 -29h10v-28h-226v28h10q23 0 37 18t26 68q24 100 37 150h-55z" />
    <glyph glyph-name="tbar" unicode="&#x167;" horiz-adv-x="319" 
d="M302 139q-24 -55 -77 -101.5t-113 -46.5q-31 0 -50 19.5t-19 58.5q0 13 5 35l32 134h-52l17 62h50l27 110h-77l6 28q141 22 207 167h30q-30 -87 -43 -136h107l-13 -59h-111l-32 -110h93l-17 -62h-94q-28 -103 -28 -132q0 -34 32 -34q25 0 52 20.5t47 57.5z" />
    <glyph glyph-name="Utilde" unicode="&#x168;" horiz-adv-x="701" 
d="M677 532q-20 -76 -76 -304q-29 -114 -117.5 -179t-204.5 -65q-92 0 -154 49t-62 135q0 26 8 60l87 352q6 24 6 39q0 31 -29 31h-10v28h239v-28h-20q-23 0 -36.5 -17.5t-26.5 -68.5q-17 -65 -46 -181t-39 -154q-5 -19 -5 -49q0 -60 41.5 -92t102.5 -32q72 0 132 45.5
t83 137.5q42 167 71 286q10 40 10 68q0 57 -51 57h-21v28h211v-28h-10q-21 0 -44 -26.5t-39 -91.5zM332 714h-27q12 53 44 89t72 36q36 0 73 -33.5t56 -33.5q24 0 42.5 18.5t23.5 46.5h26q-12 -67 -46.5 -97t-74.5 -30q-32 0 -69.5 33.5t-55.5 33.5q-22 0 -40 -16.5
t-24 -46.5z" />
    <glyph glyph-name="utilde" unicode="&#x169;" horiz-adv-x="520" 
d="M320 145q-34 -69 -93 -110.5t-110 -41.5q-77 0 -77 85q2 29 40.5 151.5t38.5 166.5q0 30 -47 30l5 29l166 30l7 -6l-74 -256q-25 -87 -25 -118q0 -39 33 -39q36 0 86 58t79 161q25 90 43 177q3 16 53 16t50 -16l-89 -326q-7 -24 -7 -44q0 -25 24 -25q17 0 33.5 14.5
t22.5 39.5q3 -2 10.5 -5t11.5 -5q-8 -42 -51.5 -80.5t-87.5 -38.5q-55 0 -55 57q0 39 13 96zM193 544h-26q12 54 44 92.5t73 38.5q27 0 48.5 -17.5t38.5 -34.5t33 -17q24 0 42.5 19.5t23.5 47.5h25q-14 -66 -46.5 -99.5t-76.5 -33.5q-25 0 -45.5 17t-37.5 34.5t-34 17.5
q-21 0 -38 -17t-24 -48z" />
    <glyph glyph-name="Umacron" unicode="&#x16a;" horiz-adv-x="701" 
d="M677 532q-20 -76 -76 -304q-29 -114 -117.5 -179t-204.5 -65q-92 0 -154 49t-62 135q0 26 8 60l87 352q6 24 6 39q0 31 -29 31h-10v28h239v-28h-20q-23 0 -36.5 -17.5t-26.5 -68.5q-17 -65 -46 -181t-39 -154q-5 -19 -5 -49q0 -60 41.5 -92t102.5 -32q72 0 132 45.5
t83 137.5q42 167 71 286q10 40 10 68q0 57 -51 57h-21v28h211v-28h-10q-21 0 -44 -26.5t-39 -91.5zM359 786h233l-15 -68h-233z" />
    <glyph glyph-name="umacron" unicode="&#x16b;" horiz-adv-x="520" 
d="M320 145q-34 -69 -93 -110.5t-110 -41.5q-77 0 -77 85q2 29 40.5 151.5t38.5 166.5q0 30 -47 30l5 29l166 30l7 -6l-74 -256q-25 -87 -25 -118q0 -39 33 -39q36 0 86 58t79 161q25 90 43 177q3 16 53 16t50 -16l-89 -326q-7 -24 -7 -44q0 -25 24 -25q17 0 33.5 14.5
t22.5 39.5q3 -2 10.5 -5t11.5 -5q-8 -42 -51.5 -80.5t-87.5 -38.5q-55 0 -55 57q0 39 13 96zM231 635h244l-15 -76h-244z" />
    <glyph glyph-name="Ubreve" unicode="&#x16c;" horiz-adv-x="701" 
d="M677 532q-20 -76 -76 -304q-29 -114 -117.5 -179t-204.5 -65q-92 0 -154 49t-62 135q0 26 8 60l87 352q6 24 6 39q0 31 -29 31h-10v28h239v-28h-20q-23 0 -36.5 -17.5t-26.5 -68.5q-17 -65 -46 -181t-39 -154q-5 -19 -5 -49q0 -60 41.5 -92t102.5 -32q72 0 132 45.5
t83 137.5q42 167 71 286q10 40 10 68q0 57 -51 57h-21v28h211v-28h-10q-21 0 -44 -26.5t-39 -91.5zM595 852q-16 -67 -58.5 -102.5t-91.5 -35.5q-41 0 -66.5 24t-25.5 73q0 16 5 41h29q-1 -6 -1 -16q0 -54 75 -54q88 0 105 70h29z" />
    <glyph glyph-name="ubreve" unicode="&#x16d;" horiz-adv-x="520" 
d="M320 145q-34 -69 -93 -110.5t-110 -41.5q-77 0 -77 85q2 29 40.5 151.5t38.5 166.5q0 30 -47 30l5 29l166 30l7 -6l-74 -256q-25 -87 -25 -118q0 -39 33 -39q36 0 86 58t79 161q25 90 43 177q3 16 53 16t50 -16l-89 -326q-7 -24 -7 -44q0 -25 24 -25q17 0 33.5 14.5
t22.5 39.5q3 -2 10.5 -5t11.5 -5q-8 -42 -51.5 -80.5t-87.5 -38.5q-55 0 -55 57q0 39 13 96zM464 678q-16 -68 -59 -108.5t-91 -40.5q-40 0 -66 28.5t-26 78.5q0 17 5 42h29q-1 -6 -1 -16q0 -59 75 -59q38 0 67 18.5t38 56.5h29z" />
    <glyph glyph-name="Uring" unicode="&#x16e;" horiz-adv-x="701" 
d="M677 532q-20 -76 -76 -304q-29 -114 -117.5 -179t-204.5 -65q-92 0 -154 49t-62 135q0 26 8 60l87 352q6 24 6 39q0 31 -29 31h-10v28h239v-28h-20q-23 0 -36.5 -17.5t-26.5 -68.5q-17 -65 -46 -181t-39 -154q-5 -19 -5 -49q0 -60 41.5 -92t102.5 -32q72 0 132 45.5
t83 137.5q42 167 71 286q10 40 10 68q0 57 -51 57h-21v28h211v-28h-10q-21 0 -44 -26.5t-39 -91.5zM498 862q36 0 60 -22t24 -54q0 -44 -39 -76.5t-85 -32.5q-36 0 -60 21t-24 54q0 43 39 76.5t85 33.5zM490 828q-24 0 -41 -23.5t-17 -54.5q0 -39 33 -39q25 0 42 22.5
t17 54.5q0 40 -34 40z" />
    <glyph glyph-name="uring" unicode="&#x16f;" horiz-adv-x="520" 
d="M320 145q-34 -69 -93 -110.5t-110 -41.5q-77 0 -77 85q2 29 40.5 151.5t38.5 166.5q0 30 -47 30l5 29l166 30l7 -6l-74 -256q-25 -87 -25 -118q0 -39 33 -39q36 0 86 58t79 161q25 90 43 177q3 16 53 16t50 -16l-89 -326q-7 -24 -7 -44q0 -25 24 -25q17 0 33.5 14.5
t22.5 39.5q3 -2 10.5 -5t11.5 -5q-8 -42 -51.5 -80.5t-87.5 -38.5q-55 0 -55 57q0 39 13 96zM366 695q36 0 60 -22t24 -54q0 -44 -39 -76.5t-85 -32.5q-36 0 -60 21t-24 54q0 43 39 76.5t85 33.5zM358 661q-24 0 -41 -24t-17 -54q0 -39 33 -39q25 0 42 22.5t17 54.5
q0 40 -34 40z" />
    <glyph glyph-name="Uhungarumlaut" unicode="&#x170;" horiz-adv-x="701" 
d="M677 532q-20 -76 -76 -304q-29 -114 -117.5 -179t-204.5 -65q-92 0 -154 49t-62 135q0 26 8 60l87 352q6 24 6 39q0 31 -29 31h-10v28h239v-28h-20q-23 0 -36.5 -17.5t-26.5 -68.5q-17 -65 -46 -181t-39 -154q-5 -19 -5 -49q0 -60 41.5 -92t102.5 -32q72 0 132 45.5
t83 137.5q42 167 71 286q10 40 10 68q0 57 -51 57h-21v28h211v-28h-10q-21 0 -44 -26.5t-39 -91.5zM511 818l-173 -111l-22 6l112 126h82q12 0 12 -7t-11 -14zM669 818l-172 -111l-23 6l112 126h83q13 0 13 -8q-1 -5 -13 -13z" />
    <glyph glyph-name="uhungarumlaut" unicode="&#x171;" horiz-adv-x="520" 
d="M320 145q-34 -69 -93 -110.5t-110 -41.5q-77 0 -77 85q2 29 40.5 151.5t38.5 166.5q0 30 -47 30l5 29l166 30l7 -6l-74 -256q-25 -87 -25 -118q0 -39 33 -39q36 0 86 58t79 161q25 90 43 177q3 16 53 16t50 -16l-89 -326q-7 -24 -7 -44q0 -25 24 -25q17 0 33.5 14.5
t22.5 39.5q3 -2 10.5 -5t11.5 -5q-8 -42 -51.5 -80.5t-87.5 -38.5q-55 0 -55 57q0 39 13 96zM540 653l-162 -132l-21 7l105 150h78q12 0 12 -9t-12 -16zM391 653l-162 -132l-21 7l105 150h78q11 0 11 -8q0 -10 -11 -17z" />
    <glyph glyph-name="Uogonek" unicode="&#x172;" horiz-adv-x="701" 
d="M677 532q-20 -76 -76 -304q-28 -110 -112 -174t-193 -69q-47 -36 -47 -82q0 -26 18.5 -43t51.5 -17t53 11l6 -18q-60 -40 -121 -40q-39 0 -58.5 20.5t-19.5 52.5q0 31 20 63.5t55 53.5q-84 6 -137.5 54t-53.5 130q0 24 8 58l87 352q6 24 6 39q0 31 -29 31h-10v28h239v-28
h-20q-23 0 -36.5 -17.5t-26.5 -68.5q-17 -65 -46 -181t-39 -154q-5 -19 -5 -49q0 -59 41 -91.5t101 -32.5q74 0 134 45t83 138q42 167 71 286q10 40 10 68q0 57 -51 57h-21v28h211v-28h-10q-21 0 -44 -26.5t-39 -91.5z" />
    <glyph glyph-name="uogonek" unicode="&#x173;" horiz-adv-x="520" 
d="M320 145q-34 -67 -91 -109.5t-108 -42.5q-36 0 -59 19.5t-23 55.5q0 27 40 154.5t40 173.5q0 30 -47 30l5 29l166 30l7 -6l-70 -239q-29 -100 -29 -135q0 -39 33 -39q36 0 86 58t79 161q25 90 43 177q3 16 53 16t50 -16l-89 -326q-7 -24 -7 -44q0 -25 24 -25
q17 0 33.5 14.5t22.5 39.5q3 -2 10.5 -5t11.5 -5q-6 -37 -44 -73.5t-78 -42.5q-38 -6 -58 -36.5t-20 -57.5q0 -25 19.5 -41.5t51.5 -16.5q33 0 53 11l6 -18q-62 -40 -115 -40q-42 0 -63 18.5t-21 51.5q0 38 26.5 76t73.5 57q-25 11 -25 50q0 36 13 96z" />
    <glyph glyph-name="Wcircumflex" unicode="&#x174;" horiz-adv-x="954" 
d="M514 466l-258 -473h-50l-80 520q-14 92 -26 114.5t-41 22.5v28h260v-28q-45 0 -63 -12.5t-14 -45.5l40 -307q9 -76 12 -135q28 61 69 135l204 374h46l35 -374q7 -72 6 -133q42 84 70 131l155 255q27 46 27 73q0 39 -54 39v28h213v-28q-34 0 -73 -42t-111 -167l-269 -448
h-48zM459 712l119 121q16 16 45 16q27 0 35 -15l69 -122l-25 -4l-100 68l-122 -68z" />
    <glyph glyph-name="wcircumflex" unicode="&#x175;" horiz-adv-x="630" 
d="M576 483q30 0 49.5 -19.5t19.5 -57.5t-34 -96q-26 -47 -57 -94.5t-52.5 -77.5t-56.5 -76t-51 -68h-40q-3 109 -23 242q-21 -34 -45 -69t-40 -57.5t-43.5 -59.5t-41.5 -56h-40q-30 305 -75 420q-11 27 -23 27l3 28h120q20 -76 38 -182t21 -179q41 50 74.5 123.5
t33.5 128.5q0 41 -12 60.5t-29 20.5l3 28h108q19 -71 36 -178.5t19 -182.5q48 67 83 137t35 102q0 20 -21 39.5t-21 40.5q0 25 18 40.5t44 15.5zM219 529l118 135q15 18 43 18q26 0 33 -17l61 -136l-23 -6l-93 76l-118 -76z" />
    <glyph glyph-name="Ycircumflex" unicode="&#x176;" horiz-adv-x="617" 
d="M369 291q-3 -13 -15 -58t-18.5 -72t-13 -59t-6.5 -45q0 -29 29 -29h13v-28h-232v28h13q23 0 36.5 17.5t25.5 68.5l42 167l-108 296q-16 39 -34 56t-44 17v28h276v-28q-65 -1 -65 -47q0 -14 8 -35l81 -224l179 210q28 34 28 60q0 36 -60 36v28h229v-28q-26 -1 -57 -21
t-88 -86zM275 712l119 121q16 16 45 16q27 0 35 -15l69 -122l-25 -4l-100 68l-122 -68z" />
    <glyph glyph-name="ycircumflex" unicode="&#x177;" horiz-adv-x="398" 
d="M344 483q30 0 50 -18t20 -55q0 -34 -42.5 -130.5t-103 -201.5t-138 -186.5t-137.5 -81.5q-38 0 -56.5 18.5t-18.5 43.5q0 24 15 42.5t38 18.5q16 0 24 -9t10 -19.5t9 -19.5t21 -9q38 0 69 49t31 133q0 73 -19.5 164t-47.5 155t-51 64q1 5 2 14t2 14h125q73 -190 80 -386
q41 58 68.5 143t27.5 123q0 19 -20 38t-20 41q0 25 18 40t44 15zM99 529l118 135q15 18 43 18q26 0 33 -17l61 -136l-23 -6l-93 76l-118 -76z" />
    <glyph glyph-name="Ydieresis" unicode="&#x178;" horiz-adv-x="617" 
d="M369 291q-3 -13 -15 -58t-18.5 -72t-13 -59t-6.5 -45q0 -29 29 -29h13v-28h-232v28h13q23 0 36.5 17.5t25.5 68.5l42 167l-108 296q-16 39 -34 56t-44 17v28h276v-28q-65 -1 -65 -47q0 -14 8 -35l81 -224l179 210q28 34 28 60q0 36 -60 36v28h229v-28q-26 -1 -57 -21
t-88 -86zM320 825q23 0 40 -17t17 -42q0 -24 -17 -41t-40 -17t-39.5 17t-16.5 41q0 25 16.5 42t39.5 17zM534 825q23 0 39.5 -17t16.5 -42q0 -24 -16.5 -41t-39.5 -17t-40 17t-17 41q0 25 17 42t40 17z" />
    <glyph glyph-name="Zacute" unicode="&#x179;" horiz-adv-x="629" 
d="M-36 0q-3 3 -3 10q0 2 0.5 5t0.5 4l550 616h-173q-67 0 -126.5 -55t-81.5 -131q-2 -2 -13 -2q-12 0 -14 3l70 228h516q2 -4 2 -11v-6l-549 -617h190q81 0 143.5 51t85.5 120l27 -3q-15 -48 -68 -212h-557zM585 813q-174 -95 -205 -112l-25 6l125 129h104q12 0 12 -8
q0 -7 -11 -15z" />
    <glyph glyph-name="zacute" unicode="&#x17a;" horiz-adv-x="420" 
d="M355 170h29l-37 -170h-350q-7 0 -7 11q0 5 2 7l322 365h-109q-58 0 -79.5 -17.5t-34.5 -68.5q-5 -3 -14 -3q-11 0 -14 3q27 127 37 172h333q8 0 8 -12q0 -4 -2 -6l-320 -366h105q58 0 86.5 15t44.5 70zM422 654q-60 -45 -180 -133l-24 7l113 150h90q12 0 12 -10
q-1 -7 -11 -14z" />
    <glyph glyph-name="Zdotaccent" unicode="&#x17b;" horiz-adv-x="629" 
d="M-36 0q-3 3 -3 10q0 2 0.5 5t0.5 4l550 616h-173q-67 0 -126.5 -55t-81.5 -131q-2 -2 -13 -2q-12 0 -14 3l70 228h516q2 -4 2 -11v-6l-549 -617h190q81 0 143.5 51t85.5 120l27 -3q-15 -48 -68 -212h-557zM426 831q23 0 38.5 -16.5t15.5 -40.5q0 -25 -17.5 -42.5
t-41.5 -17.5q-23 0 -38.5 16.5t-15.5 39.5q0 25 17.5 43t41.5 18z" />
    <glyph glyph-name="zdotaccent" unicode="&#x17c;" horiz-adv-x="420" 
d="M355 170h29l-37 -170h-350q-7 0 -7 11q0 5 2 7l322 365h-109q-58 0 -79.5 -17.5t-34.5 -68.5q-5 -3 -14 -3q-11 0 -14 3q27 127 37 172h333q8 0 8 -12q0 -4 -2 -6l-320 -366h105q58 0 86.5 15t44.5 70zM275 652q22 0 38 -16.5t16 -39.5q0 -25 -17 -43.5t-41 -18.5
q-23 0 -39 17t-16 40q0 25 18 43t41 18z" />
    <glyph glyph-name="Zcaron" unicode="&#x17d;" horiz-adv-x="629" 
d="M-36 0q-3 3 -3 10q0 2 0.5 5t0.5 4l550 616h-173q-67 0 -126.5 -55t-81.5 -131q-2 -2 -13 -2q-12 0 -14 3l70 228h516q2 -4 2 -11v-6l-549 -617h190q81 0 143.5 51t85.5 120l27 -3q-15 -48 -68 -212h-557zM586 847l-120 -121q-16 -16 -44 -16t-35 15l-69 122l24 4
l100 -68l122 68z" />
    <glyph glyph-name="zcaron" unicode="&#x17e;" horiz-adv-x="420" 
d="M355 170h29l-37 -170h-350q-7 0 -7 11q0 5 2 7l322 365h-109q-58 0 -79.5 -17.5t-34.5 -68.5q-5 -3 -14 -3q-11 0 -14 3q27 127 37 172h333q8 0 8 -12q0 -4 -2 -6l-320 -366h105q58 0 86.5 15t44.5 70zM437 675l-118 -135q-15 -18 -43 -18q-26 0 -33 17l-61 136l24 6
q17 -15 50.5 -42t41.5 -34l119 76z" />
    <glyph glyph-name="florin" unicode="&#x192;" horiz-adv-x="298" 
d="M-28 -145q18 0 28.5 18t21.5 70l105 467h-69l5 28q74 7 83 49q42 207 187 207q46 0 65.5 -21t19.5 -51q0 -29 -18.5 -47t-38.5 -18q-18 0 -32 13t-14 34q0 36 -28 36q-26 0 -37.5 -31.5t-11.5 -76.5q0 -33 7 -63h99l-13 -59h-96q-8 -33 -44 -165t-57 -216
q-55 -219 -195 -219q-39 0 -58 17.5t-19 45.5q0 25 14.5 41t36.5 16q17 0 25.5 -11.5t9.5 -26t6.5 -26t17.5 -11.5z" />
    <glyph glyph-name="AEacute" unicode="&#x1fc;" horiz-adv-x="969" 
d="M437 254l69 279q-36 -43 -93 -104l-167 -175h191zM426 211h-218l-60 -63q-55 -57 -55 -90q0 -30 56 -30v-28h-241v28q28 0 92.5 54t221.5 219q44 45 94.5 96t112 112.5t94.5 95.5q1 6 1 16q0 17 -7 23t-22 6h-10v28h505l-42 -186h-28q4 19 4 40q0 105 -157 105h-106
q-55 -208 -71 -272h65q52 0 87 28t51 93h28q-24 -94 -70 -282h-28q9 38 9 57q0 65 -86 65h-66q-33 -127 -53 -208q-5 -20 -5 -31q0 -26 23.5 -37t81.5 -11q107 0 168.5 41t92.5 123h28l-60 -203h-527v28h10q10 0 18 3.5t15 13t11.5 18.5t10.5 28t9.5 33t10.5 41.5t12 45.5z
M879 813l-206 -112l-24 6l125 129h103q13 0 13 -10q-2 -6 -11 -13z" />
    <glyph glyph-name="aeacute" unicode="&#x1fd;" horiz-adv-x="679" 
d="M434 420q-26 13 -70 13q-65 0 -121 -49.5t-85 -115.5t-29 -125q0 -76 48 -76q33 0 71.5 39t61.5 114q43 133 124 200zM472 448q61 37 132 37q42 0 65 -22.5t23 -56.5q0 -24 -11.5 -47.5t-36.5 -47t-75.5 -38t-119.5 -14.5q-24 0 -36 1q-8 -38 -8 -86q0 -54 24.5 -80.5
t62.5 -26.5q33 0 64.5 19t46.5 51l20 -10q-21 -67 -73 -104t-109 -37q-61 0 -97.5 37.5t-40.5 103.5q-35 -66 -84.5 -103.5t-103.5 -37.5q-47 0 -73 31t-26 89q0 89 54.5 175t137.5 138t164 52q61 0 100 -23zM555 440q-42 0 -78 -38.5t-58 -114.5q87 0 132 36t45 75
q0 18 -11 30t-30 12zM600 654l-180 -133l-24 7l113 150h90q12 0 12 -10q-1 -7 -11 -14z" />
    <glyph glyph-name="Oslashacute" unicode="&#x1fe;" horiz-adv-x="715" 
d="M569 813l-206 -112l-24 6l125 129h103q13 0 13 -10q-2 -6 -11 -13zM559 515l-371 -397q21 -92 99 -92q81 0 145.5 80t95.5 190t31 219zM181 182l367 393q-26 72 -98 72q-65 0 -119 -47t-85 -119.5t-48 -150.5t-17 -148zM114 39l-37 -39h-67l71 76q-43 60 -43 156
q0 95 36 181.5t94 147t133.5 96.5t152.5 36q94 0 157 -51l33 36h68l-66 -71q52 -69 52 -174q0 -111 -54.5 -214t-152 -169t-209.5 -66q-103 0 -168 55z" />
    <glyph glyph-name="oslashacute" unicode="&#x1ff;" horiz-adv-x="454" 
d="M419 654l-180 -133l-24 7l113 150h90q12 0 12 -10q-1 -7 -11 -14zM411 439l31 30h56l-67 -65q14 -36 14 -77q0 -51 -20.5 -109t-56 -110.5t-92 -87t-120.5 -34.5q-69 0 -105 44l-30 -30h-55l64 64q-14 36 -14 80q0 127 87.5 234t203.5 107q69 0 104 -46zM330 304
l-200 -197q10 -77 57 -77q56 0 95.5 81t47.5 193zM129 161l200 197q-10 78 -59 78q-55 0 -94.5 -82t-46.5 -193z" />
    <glyph glyph-name="Scommaaccent" unicode="&#x218;" horiz-adv-x="549" 
d="M213 -16q-47 0 -89.5 7t-73.5 16t-38 10q-11 2 -11 11l48 191h30q-4 -28 -4 -40q0 -72 37.5 -112t103.5 -40q55 0 92.5 27.5t37.5 84.5q0 44 -23.5 75.5t-82.5 79.5t-90 92t-31 104q0 81 65 142.5t173 61.5q63 0 120.5 -11t59.5 -11q11 0 11 -12l-52 -194q-2 -8 -16 -8
q-13 0 -13 8q4 30 4 43q0 69 -32.5 105.5t-89.5 36.5q-51 0 -82 -30.5t-31 -78.5q0 -42 21.5 -72t77.5 -77q75 -62 109 -108t34 -101q0 -86 -68.5 -143t-196.5 -57zM78 -298l-12 25q111 49 111 107q0 15 -21 15q-19 0 -30.5 11.5t-11.5 29.5q0 25 20.5 43.5t49.5 18.5
t45 -18t16 -47q0 -49 -39 -98.5t-128 -86.5z" />
    <glyph glyph-name="scommaaccent" unicode="&#x219;" horiz-adv-x="377" 
d="M372 455l-27 -134q-1 -5 -13 -5q-15 0 -15 17q1 5 1 13q0 45 -22.5 72.5t-58.5 27.5q-29 0 -47 -17t-18 -47q0 -26 24 -56t52.5 -54.5t52.5 -62t24 -76.5q0 -71 -50 -108.5t-132 -37.5q-24 0 -70.5 7t-63.5 7q-9 0 -9 9q0 5 1 9q22 107 31 145h27q-3 -16 -3 -32
q0 -49 27 -79t69 -30q37 0 57.5 19t20.5 53q0 22 -15.5 44t-37 42.5t-43.5 43t-37.5 52.5t-15.5 63q0 64 46.5 104.5t118.5 40.5q28 0 67.5 -8.5t45.5 -8.5q13 0 13 -11v-2zM14 -301q-2 5 -6 13.5t-5 11.5q110 48 110 107q0 9 -15.5 13t-31 12.5t-15.5 30.5q0 25 20 43.5
t49 18.5t45.5 -18t16.5 -47q0 -49 -39.5 -98.5t-128.5 -86.5z" />
    <glyph glyph-name="circumflex" unicode="&#x2c6;" horiz-adv-x="355" 
d="M50 529l118 135q15 18 43 18q26 0 33 -17l61 -136l-23 -6l-93 76l-118 -76z" />
    <glyph glyph-name="caron" unicode="&#x2c7;" horiz-adv-x="355" 
d="M305 675l-118 -135q-15 -18 -43 -18q-26 0 -33 17l-61 136l24 6l92 -76l119 76z" />
    <glyph glyph-name="breve" unicode="&#x2d8;" horiz-adv-x="342" 
d="M292 678q-16 -68 -59 -108.5t-91 -40.5q-40 0 -66 28.5t-26 78.5q0 17 5 42h29q-1 -6 -1 -16q0 -59 75 -59q38 0 67 18.5t38 56.5h29z" />
    <glyph glyph-name="dotaccent" unicode="&#x2d9;" horiz-adv-x="224" 
d="M119 678q26 0 41.5 -18t12.5 -43q-4 -26 -24 -43.5t-45 -17.5q-26 0 -41.5 18t-11.5 43q3 26 23 43.5t45 17.5z" />
    <glyph glyph-name="ring" unicode="&#x2da;" horiz-adv-x="308" 
d="M174 695q41 0 65.5 -27.5t16.5 -65.5t-44.5 -65t-77.5 -27t-65.5 27t-16.5 65t44.5 65.5t77.5 27.5zM166 661q-20 0 -35 -17t-21 -42q-5 -26 3 -42t28 -16q21 0 36.5 16t20.5 42q5 25 -3 42t-29 17z" />
    <glyph glyph-name="ogonek" unicode="&#x2db;" horiz-adv-x="299" 
d="M191 0q-71 -37 -71 -100q0 -25 19 -41t51 -16q33 0 53 11l6 -18q-60 -40 -122 -40q-36 0 -56.5 19.5t-20.5 49.5q0 40 27.5 78.5t78.5 56.5h35z" />
    <glyph glyph-name="tilde" unicode="&#x2dc;" horiz-adv-x="428" 
d="M76 544h-26q12 54 44 92.5t73 38.5q27 0 48.5 -17.5t38.5 -34.5t33 -17q24 0 42.5 19.5t23.5 47.5h25q-14 -66 -46.5 -99.5t-76.5 -33.5q-25 0 -45.5 17t-37.5 34.5t-34 17.5q-21 0 -38 -17t-24 -48z" />
    <glyph glyph-name="hungarumlaut" unicode="&#x2dd;" horiz-adv-x="445" 
d="M233 653l-162 -132l-21 7l105 150h78q6 0 9 -2.5t2 -7.5q0 -8 -11 -15zM382 653l-162 -132l-21 7l105 150h78q6 0 9.5 -2.5t2.5 -7.5q0 -6 -12 -15z" />
    <glyph glyph-name="Delta" unicode="&#x394;" horiz-adv-x="623" 
d="M55 52h390l-74 450zM451 694l112 -694h-598z" />
    <glyph glyph-name="Delta" unicode="&#x2206;" horiz-adv-x="623" 
d="M55 52h390l-74 450zM451 694l112 -694h-598z" />
    <glyph glyph-name="Omega" unicode="&#x3a9;" horiz-adv-x="745" 
d="M499 157l-11 -43q-8 -31 -8 -53q0 -16 6 -20.5t22 -4.5h95l-6 -36h-226l39 158q136 32 188 241q15 59 15 108q0 72 -34.5 112t-100.5 40q-91 0 -152 -67t-90 -182q-13 -51 -13 -94q0 -118 83 -152l-41 -164h-218l6 36h95q23 0 34 14t23 64l10 40q-122 48 -122 179
q0 64 29.5 128t81 116t128.5 84.5t165 32.5q105 0 176 -55t71 -153q0 -115 -71 -203t-174 -126z" />
    <glyph glyph-name="Omega" unicode="&#x2126;" horiz-adv-x="745" 
d="M499 157l-11 -43q-8 -31 -8 -53q0 -16 6 -20.5t22 -4.5h95l-6 -36h-226l39 158q136 32 188 241q15 59 15 108q0 72 -34.5 112t-100.5 40q-91 0 -152 -67t-90 -182q-13 -51 -13 -94q0 -118 83 -152l-41 -164h-218l6 36h95q23 0 34 14t23 64l10 40q-122 48 -122 179
q0 64 29.5 128t81 116t128.5 84.5t165 32.5q105 0 176 -55t71 -153q0 -115 -71 -203t-174 -126z" />
    <glyph glyph-name="pi" unicode="&#x3c0;" horiz-adv-x="604" 
d="M163 441l-71 -31v36q164 82 250 82q48 0 96.5 -23t85.5 -23h17q33 0 97 19v-34l-79 -24l-82 -329q-9 -38 -9 -57q0 -29 24 -29l5 -7v-21h-195v28q30 3 43 19t26 66q27 103 77 309q-14 -3 -26 -3q-26 0 -65.5 26.5t-57.5 26.5q-11 0 -23 -4q-100 -383 -100 -415
q0 -15 6 -20t21 -5l8 -7v-21h-193v28q25 1 37.5 18.5t25.5 67.5q54 218 82 327z" />
    <glyph glyph-name="Wgrave" unicode="&#x1e80;" horiz-adv-x="954" 
d="M514 466l-258 -473h-50l-80 520q-14 92 -26 114.5t-41 22.5v28h260v-28q-45 0 -63 -12.5t-14 -45.5l40 -307q9 -76 12 -135q28 61 69 135l204 374h46l35 -374q7 -72 6 -133q42 84 70 131l155 255q27 46 27 73q0 39 -54 39v28h213v-28q-34 0 -73 -42t-111 -167l-269 -448
h-48zM478 811q-8 6 -8 14q0 11 15 11h90l77 -128l-24 -6z" />
    <glyph glyph-name="wgrave" unicode="&#x1e81;" horiz-adv-x="630" 
d="M576 483q30 0 49.5 -19.5t19.5 -57.5t-34 -96q-26 -47 -57 -94.5t-52.5 -77.5t-56.5 -76t-51 -68h-40q-3 109 -23 242q-21 -34 -45 -69t-40 -57.5t-43.5 -59.5t-41.5 -56h-40q-30 305 -75 420q-11 27 -23 27l3 28h120q20 -76 38 -182t21 -179q41 50 74.5 123.5
t33.5 128.5q0 41 -12 60.5t-29 20.5l3 28h108q19 -71 36 -178.5t19 -182.5q48 67 83 137t35 102q0 20 -21 39.5t-21 40.5q0 25 18 40.5t44 15.5zM243 653q-6 7 -6 14q2 11 17 11h81l57 -150l-23 -7z" />
    <glyph glyph-name="Wacute" unicode="&#x1e82;" horiz-adv-x="954" 
d="M514 466l-258 -473h-50l-80 520q-14 92 -26 114.5t-41 22.5v28h260v-28q-45 0 -63 -12.5t-14 -45.5l40 -307q9 -76 12 -135q28 61 69 135l204 374h46l35 -374q7 -72 6 -133q42 84 70 131l155 255q27 46 27 73q0 39 -54 39v28h213v-28q-34 0 -73 -42t-111 -167l-269 -448
h-48zM753 813l-206 -112l-24 6l125 129h103q13 0 13 -10q-2 -6 -11 -13z" />
    <glyph glyph-name="wacute" unicode="&#x1e83;" horiz-adv-x="630" 
d="M576 483q30 0 49.5 -19.5t19.5 -57.5t-34 -96q-26 -47 -57 -94.5t-52.5 -77.5t-56.5 -76t-51 -68h-40q-3 109 -23 242q-21 -34 -45 -69t-40 -57.5t-43.5 -59.5t-41.5 -56h-40q-30 305 -75 420q-11 27 -23 27l3 28h120q20 -76 38 -182t21 -179q41 50 74.5 123.5
t33.5 128.5q0 41 -12 60.5t-29 20.5l3 28h108q19 -71 36 -178.5t19 -182.5q48 67 83 137t35 102q0 20 -21 39.5t-21 40.5q0 25 18 40.5t44 15.5zM474 654l-180 -133l-24 7l113 150h90q12 0 12 -10q-1 -7 -11 -14z" />
    <glyph glyph-name="Wdieresis" unicode="&#x1e84;" horiz-adv-x="954" 
d="M514 466l-258 -473h-50l-80 520q-14 92 -26 114.5t-41 22.5v28h260v-28q-45 0 -63 -12.5t-14 -45.5l40 -307q9 -76 12 -135q28 61 69 135l204 374h46l35 -374q7 -72 6 -133q42 84 70 131l155 255q27 46 27 73q0 39 -54 39v28h213v-28q-34 0 -73 -42t-111 -167l-269 -448
h-48zM496 825q23 0 40 -17t17 -42q0 -24 -17 -41t-40 -17t-39.5 17t-16.5 41q0 25 16.5 42t39.5 17zM710 825q23 0 39.5 -17t16.5 -42q0 -24 -16.5 -41t-39.5 -17t-40 17t-17 41q0 25 17 42t40 17z" />
    <glyph glyph-name="wdieresis" unicode="&#x1e85;" horiz-adv-x="630" 
d="M576 483q30 0 49.5 -19.5t19.5 -57.5t-34 -96q-26 -47 -57 -94.5t-52.5 -77.5t-56.5 -76t-51 -68h-40q-3 109 -23 242q-21 -34 -45 -69t-40 -57.5t-43.5 -59.5t-41.5 -56h-40q-30 305 -75 420q-11 27 -23 27l3 28h120q20 -76 38 -182t21 -179q41 50 74.5 123.5
t33.5 128.5q0 41 -12 60.5t-29 20.5l3 28h108q19 -71 36 -178.5t19 -182.5q48 67 83 137t35 102q0 20 -21 39.5t-21 40.5q0 25 18 40.5t44 15.5zM261 652q23 0 39 -17.5t15 -41.5t-18 -41.5t-40 -17.5t-39.5 17.5t-15.5 41.5q2 24 19 41.5t40 17.5zM462 652q23 0 39 -17.5
t15 -41.5t-18 -41.5t-40 -17.5t-39.5 17.5t-15.5 41.5q2 24 19 41.5t40 17.5z" />
    <glyph glyph-name="Ygrave" unicode="&#x1ef2;" horiz-adv-x="617" 
d="M369 291q-3 -13 -15 -58t-18.5 -72t-13 -59t-6.5 -45q0 -29 29 -29h13v-28h-232v28h13q23 0 36.5 17.5t25.5 68.5l42 167l-108 296q-16 39 -34 56t-44 17v28h276v-28q-65 -1 -65 -47q0 -14 8 -35l81 -224l179 210q28 34 28 60q0 36 -60 36v28h229v-28q-26 -1 -57 -21
t-88 -86zM313 811q-8 6 -8 14q0 11 15 11h90l77 -128l-24 -6z" />
    <glyph glyph-name="ygrave" unicode="&#x1ef3;" horiz-adv-x="398" 
d="M344 483q30 0 50 -18t20 -55q0 -34 -42.5 -130.5t-103 -201.5t-138 -186.5t-137.5 -81.5q-38 0 -56.5 18.5t-18.5 43.5q0 24 15 42.5t38 18.5q16 0 24 -9t10 -19.5t9 -19.5t21 -9q38 0 69 49t31 133q0 73 -19.5 164t-47.5 155t-51 64q1 5 2 14t2 14h125q73 -190 80 -386
q41 58 68.5 143t27.5 123q0 19 -20 38t-20 41q0 25 18 40t44 15zM151 653q-6 7 -6 14q2 11 17 11h81l57 -150l-23 -7z" />
    <glyph glyph-name="endash" unicode="&#x2013;" horiz-adv-x="557" 
d="M539 217h-511l17 70h511z" />
    <glyph glyph-name="emdash" unicode="&#x2014;" horiz-adv-x="1039" 
d="M1019 217h-991l17 70h991z" />
    <glyph glyph-name="quoteleft" unicode="&#x2018;" horiz-adv-x="269" 
d="M326 729l14 -32q-131 -63 -131 -136q0 -20 25 -20q22 0 35.5 -14.5t13.5 -37.5q0 -31 -24 -55t-58 -24q-35 0 -54.5 22.5t-19.5 60.5q0 63 46.5 126t152.5 110z" />
    <glyph glyph-name="quoteright" unicode="&#x2019;" horiz-adv-x="269" 
d="M122 395l-14 32q131 63 131 137q0 19 -25 19q-22 0 -35.5 14.5t-13.5 38.5q0 31 24 54.5t58 23.5q35 0 54.5 -22.5t19.5 -59.5q0 -63 -46.5 -126.5t-152.5 -110.5z" />
    <glyph glyph-name="quotesinglbase" unicode="&#x201a;" horiz-adv-x="269" 
d="M-18 -185l-14 32q132 63 132 137q0 19 -25 19q-23 0 -36.5 14.5t-13.5 38.5q0 31 24 54.5t59 23.5q34 0 53.5 -22.5t19.5 -59.5q0 -63 -46.5 -126.5t-152.5 -110.5z" />
    <glyph glyph-name="quotedblleft" unicode="&#x201c;" horiz-adv-x="498" 
d="M554 730l14 -32q-131 -63 -131 -137q0 -19 25 -19q22 0 35.5 -14.5t13.5 -38.5q0 -31 -24 -54.5t-58 -23.5q-35 0 -54.5 22.5t-19.5 59.5q0 63 46.5 126.5t152.5 110.5zM327 730l14 -32q-131 -63 -131 -137q0 -19 25 -19q22 0 35.5 -14.5t13.5 -38.5q0 -31 -24 -54.5
t-58 -23.5q-35 0 -54.5 22.5t-19.5 59.5q0 63 46.5 126.5t152.5 110.5z" />
    <glyph glyph-name="quotedblright" unicode="&#x201d;" horiz-adv-x="498" 
d="M123 395l-14 32q132 63 132 137q0 19 -25 19q-23 0 -36.5 14.5t-13.5 38.5q0 31 24 54.5t59 23.5q34 0 53.5 -22.5t19.5 -59.5q0 -63 -46.5 -126.5t-152.5 -110.5zM350 395l-14 32q132 63 132 137q0 19 -25 19q-23 0 -36.5 14.5t-13.5 38.5q0 31 24 54.5t59 23.5
q34 0 53.5 -22.5t19.5 -59.5q0 -63 -46.5 -126.5t-152.5 -110.5z" />
    <glyph glyph-name="quotedblbase" unicode="&#x201e;" horiz-adv-x="498" 
d="M-18 -185l-14 32q132 63 132 137q0 19 -25 19q-23 0 -36.5 14.5t-13.5 38.5q0 31 24 54.5t59 23.5q34 0 53.5 -22.5t19.5 -59.5q0 -63 -46.5 -126.5t-152.5 -110.5zM209 -185l-14 32q132 63 132 137q0 19 -25 19q-23 0 -36.5 14.5t-13.5 38.5q0 31 24 54.5t59 23.5
q34 0 53.5 -22.5t19.5 -59.5q0 -63 -46.5 -126.5t-152.5 -110.5z" />
    <glyph glyph-name="dagger" unicode="&#x2020;" horiz-adv-x="528" 
d="M180 -190h-34q41 173 57.5 273.5t15 134t-12.5 66.5q70 45 98 153q-25 -2 -84 -29t-84 -27q-28 0 -38.5 20t-3.5 48t28.5 48.5t49.5 20.5q19 0 65 -26t74 -27q4 28 -9 80t-6 81q7 31 33 48.5t55 17.5q28 0 44 -17.5t9 -48.5q-8 -29 -48 -81t-49 -80q26 1 87 26.5t84 25.5
q29 0 40.5 -21t4.5 -48q-6 -27 -27.5 -47.5t-49.5 -20.5q-26 0 -73 27.5t-73 29.5q-20 -113 23 -153q-37 -45 -72.5 -133.5t-103.5 -340.5z" />
    <glyph glyph-name="daggerdbl" unicode="&#x2021;" horiz-adv-x="528" 
d="M349 252q-69 -53 -106 -194q25 2 84 29t84 27q28 0 38.5 -20t3.5 -48q-7 -29 -28 -49t-50 -20q-19 0 -65 26t-74 27q-4 -28 9 -80t6 -81q-7 -31 -32.5 -48.5t-54.5 -17.5q-28 0 -44.5 17.5t-9.5 48.5q8 29 48 81t49 80q-26 -1 -87 -26.5t-84 -25.5q-29 0 -40.5 21
t-4.5 48q6 27 27.5 47.5t49.5 20.5q26 0 73 -27.5t73 -29.5q29 139 -15 195q71 53 105 184q-25 -2 -84 -29t-84 -27q-28 0 -38.5 20t-3.5 48t28.5 48.5t49.5 20.5q19 0 65 -26t74 -27q4 28 -9 80t-6 81q7 31 33 48.5t55 17.5q28 0 44 -17.5t9 -48.5q-8 -29 -48 -81t-49 -80
q26 1 87 26.5t84 25.5q29 0 40.5 -21t4.5 -48q-6 -27 -27.5 -47.5t-49.5 -20.5q-26 0 -73 27.5t-73 29.5q-27 -142 16 -185z" />
    <glyph glyph-name="bullet" unicode="&#x2022;" horiz-adv-x="375" 
d="M193 477q58 0 99.5 -42t41.5 -101t-41.5 -101t-99.5 -42t-99.5 42t-41.5 101t41.5 101t99.5 42z" />
    <glyph glyph-name="ellipsis" unicode="&#x2026;" horiz-adv-x="863" 
d="M148 142q31 0 53 -22t22 -53t-22 -52.5t-53 -21.5t-52.5 21.5t-21.5 52.5t21.5 53t52.5 22zM422 142q31 0 52.5 -22t21.5 -53t-21.5 -52.5t-52.5 -21.5t-53 21.5t-22 52.5t22 53t53 22zM696 142q31 0 53 -22t22 -53t-22 -52.5t-53 -21.5t-52.5 21.5t-21.5 52.5t21.5 53
t52.5 22z" />
    <glyph glyph-name="perthousand" unicode="&#x2030;" horiz-adv-x="1159" 
d="M721 678h80l-685 -678h-79zM240 336q-62 0 -95 33.5t-33 96.5q0 85 59.5 154.5t145.5 69.5q63 0 96 -39.5t33 -97.5q0 -90 -62.5 -153.5t-143.5 -63.5zM254 371q44 0 72.5 67.5t28.5 143.5q0 73 -48 73q-41 0 -73 -65t-32 -138q0 -81 52 -81zM525 -7q-62 0 -95 33.5
t-33 96.5q0 85 59.5 154t144.5 69q63 0 96 -39t33 -97q0 -91 -62 -154t-143 -63zM539 27q42 0 71 65.5t29 140.5q0 78 -47 78q-43 0 -74 -65t-31 -140q0 -79 52 -79zM892 -7q-62 0 -95 33.5t-33 96.5q0 85 59.5 154t144.5 69q63 0 96 -39t33 -97q0 -91 -62 -154t-143 -63z
M906 27q42 0 71 65.5t29 140.5q0 78 -47 78q-43 0 -74 -65t-31 -140q0 -79 52 -79z" />
    <glyph glyph-name="guilsinglleft" unicode="&#x2039;" horiz-adv-x="348" 
d="M186 253l66 -232l-24 -19l-160 202q-13 18 -9 35q4 16 27 34l259 199l15 -18z" />
    <glyph glyph-name="guilsinglright" unicode="&#x203a;" horiz-adv-x="348" 
d="M184 238l-71 215l24 19l160 -200q13 -17 10 -34q-4 -17 -27 -35l-260 -201l-15 18z" />
    <glyph glyph-name="fraction" unicode="&#x2044;" horiz-adv-x="610" 
d="M629 678h70l-655 -678h-70z" />
    <glyph glyph-name="fraction" unicode="&#x2215;" horiz-adv-x="610" 
d="M629 678h70l-655 -678h-70z" />
    <glyph glyph-name="Euro" unicode="&#x20ac;" horiz-adv-x="603" 
d="M17 396q14 36 22 54h72q52 110 142 177t195 67q42 0 74.5 -5t51.5 -10.5t24 -5.5q10 0 10 -11l-45 -215q-1 -6 -12 -6q-13 0 -13 6q7 42 7 69q0 131 -115 131q-68 0 -124 -54t-89 -143h209l-25 -54h-200q-11 -43 -16 -95h180l-26 -55h-157q0 -91 39.5 -140.5t101.5 -49.5
q59 0 106.5 35.5t74.5 100.5l12 -6t11 -5q-31 -92 -96.5 -144.5t-156.5 -52.5q-101 0 -159 62.5t-58 171.5q0 19 1 28h-81l22 55h65q8 51 24 95h-71z" />
    <glyph glyph-name="trademark" unicode="&#x2122;" horiz-adv-x="740" 
d="M153 651q-47 -1 -63 -13t-16 -41h-20l2 81h244l2 -81h-21q0 29 -16 41t-63 13v-174q0 -33 17 -33h4v-18h-90v18h4q9 0 12.5 7t3.5 26v174zM505 493q6 18 24 63l49 122h81v-19h-4q-9 0 -12.5 -6.5t-3.5 -25.5v-152q0 -19 3.5 -25t12.5 -6h4v-18h-90v18h6q9 0 13 6t4 25
v124v20t0.5 13.5t0.5 5.5h-3q-9 -29 -29 -77l-58 -135q-1 -2 -6.5 -2t-7.5 2l-64 134q-27 56 -30 78h-3v-5.5t0.5 -13.5t0.5 -20v-118q0 -23 6.5 -30t26.5 -7h7v-18h-89v18h4q16 0 16 36v147q0 19 -3.5 25.5t-12.5 6.5h-4v19h82l51 -119q3 -8 13 -31t15 -35z" />
    <glyph glyph-name="partialdiff" unicode="&#x2202;" horiz-adv-x="518" 
d="M379 299q0 42 -17.5 65t-49.5 23q-49 0 -91 -55t-61.5 -118.5t-19.5 -109.5q0 -40 19 -62t47 -22q63 0 118 97.5t55 181.5zM194 692q140 0 228.5 -91t88.5 -230q0 -61 -19 -126.5t-55 -123.5t-95.5 -95.5t-131.5 -37.5q-83 0 -127 48.5t-44 124.5q0 104 70.5 191.5
t176.5 87.5q85 0 111 -75l5 2q0 121 -58 207t-158 96z" />
    <glyph glyph-name="product" unicode="&#x220f;" horiz-adv-x="750" 
d="M169 678h636v-28h-10q-23 0 -36 -17.5t-26 -68.5q-78 -300 -116 -450q-2 -10 -5.5 -28.5t-3.5 -26.5q0 -31 29 -31h10v-28h-229v28h13q23 0 36.5 17.5t25.5 68.5l129 517h-282q-38 -147 -77.5 -308t-49.5 -200q-12 -48 -12 -64q0 -31 29 -31h13v-28h-229v28h10
q23 0 36.5 17.5t25.5 68.5l117 466q5 27 5 38q0 18 -6.5 25t-22.5 7h-10v28z" />
    <glyph glyph-name="summation" unicode="&#x2211;" horiz-adv-x="639" 
d="M428 348l-273 -304h147q114 0 184.5 50t94.5 124l27 -3q-11 -36 -34 -107.5t-34 -107.5h-557q-2 4 -2 10q0 5 1 9l297 330l-125 312q3 13 9 17h516l-45 -231q-2 -6 -14 -6q-14 0 -14 4q0 9 3 24.5t3 23.5q0 62 -41.5 102t-121.5 40h-135z" />
    <glyph glyph-name="minus" unicode="&#x2212;" horiz-adv-x="576" 
d="M574 305h-519l17 70h519z" />
    <glyph glyph-name="radical" unicode="&#x221a;" horiz-adv-x="612" 
d="M391 178l327 757h59l-427 -974l-138 511l-111 -46l-7 42l207 86z" />
    <glyph glyph-name="infinity" unicode="&#x221e;" horiz-adv-x="766" 
d="M443 338q41 -96 71.5 -123t73.5 -27q46 0 83.5 39.5t37.5 103.5q0 80 -100 80q-80 0 -166 -73zM350 280q-31 68 -58 98t-74 30q-44 0 -75.5 -28.5t-43.5 -77.5l-2 -8q-3 -16 -3 -30q2 -64 86 -64q47 0 80 17t90 63zM433 361q106 135 206 135q55 0 82.5 -34t27.5 -94
q0 -30 -9 -65q-24 -94 -87 -145t-128 -51q-59 0 -97 32.5t-65 115.5q-61 -75 -106.5 -109t-99.5 -34q-44 0 -73 32.5t-29 91.5q0 32 8 64q17 68 57.5 114t79 62t73.5 16q65 0 101.5 -33t58.5 -98z" />
    <glyph glyph-name="integral" unicode="&#x222b;" horiz-adv-x="295" 
d="M38 2l117 502q22 93 71.5 141.5t121.5 48.5q76 0 76 -58q0 -32 -18.5 -51.5t-42.5 -19.5q-17 0 -27 9.5t-10 26.5v14q0 29 -28 29l-5 -2q-5 -3 -14.5 -10t-17.5 -17t-14.5 -28.5t-6.5 -40.5q0 -33 14 -77q-14 -58 -56 -215t-57 -218q-23 -98 -77 -163t-126 -65
q-81 0 -81 53q0 29 16.5 47t39.5 18q32 0 32 -32q0 -2 -0.5 -8t-0.5 -9q0 -24 24 -24q9 0 23.5 11.5t30.5 48t16 89.5z" />
    <glyph glyph-name="notequal" unicode="&#x2260;" horiz-adv-x="582" 
d="M195 212h-166l17 68h203l93 119h-266q5 23 17 69h302l111 140h71l-110 -140h155q-12 -46 -17 -69h-192l-93 -119h255l-17 -68h-292l-108 -139h-72z" />
    <glyph glyph-name="lessequal" unicode="&#x2264;" horiz-adv-x="573" 
d="M496 0h-519l18 69h519zM66 365l12 50l581 228l-18 -73l-466 -180l376 -182l-18 -72z" />
    <glyph glyph-name="greaterequal" unicode="&#x2265;" horiz-adv-x="573" 
d="M-22 0l18 69h519l-18 -69h-519zM590 365l-581 -229l18 72q372 145 467 182l-376 180l18 73l467 -228z" />
    <glyph glyph-name="dotlessj" unicode="&#xf6be;" horiz-adv-x="255" 
d="M244 478q-27 -77 -100 -365q-13 -51 -22.5 -82t-24 -70.5t-30.5 -63t-38 -45.5t-50 -32t-63 -10q-34 0 -54.5 19t-20.5 42q0 25 14 39.5t33 14.5q17 0 29 -11.5t12 -32.5q0 -16 5 -21.5t18 -5.5q6 0 11 2t9 6t7 8.5t6.5 13t5.5 15.5t5 18.5t5 20t5.5 23t5.5 24.5
q13 54 49 197t48 199q2 16 2 18q0 28 -44 28l5 29q55 9 165 29zM224 682q24 0 41 -16.5t17 -40.5t-17 -41t-41 -17t-40.5 17t-16.5 41t16.5 40.5t40.5 16.5z" />
    <glyph glyph-name="commaaccent" unicode="&#xf6c3;" horiz-adv-x="279" 
d="M61 -301l-11 25q110 48 110 106q0 15 -21 15q-19 0 -30 11.5t-11 30.5q0 24 20 42.5t49 18.5t45.5 -17.5t16.5 -46.5q0 -49 -39.5 -98.5t-128.5 -86.5z" />
    <glyph glyph-name="Acute" unicode="&#xf6c9;" horiz-adv-x="341" 
d="M280 813l-206 -112l-24 6l125 129h103q13 0 13 -10q-2 -6 -11 -13z" />
    <glyph glyph-name="Caron" unicode="&#xf6ca;" horiz-adv-x="368" 
d="M318 850l-120 -121q-14 -16 -44 -16q-28 0 -35 15l-69 122l24 4l100 -68l122 68z" />
    <glyph glyph-name="Dieresis" unicode="&#xf6cb;" horiz-adv-x="426" 
d="M106 825q23 0 40 -17t17 -42q0 -24 -17 -41t-40 -17t-39.5 17t-16.5 41q0 25 16.5 42t39.5 17zM320 825q23 0 39.5 -17t16.5 -42q0 -24 -16.5 -41t-39.5 -17t-40 17t-17 41q0 25 17 42t40 17z" />
    <glyph glyph-name="Grave" unicode="&#xf6ce;" horiz-adv-x="282" 
d="M58 811q-8 6 -8 14q0 11 15 11h90l77 -128l-24 -6z" />
    <glyph glyph-name="Hungarumlaut" unicode="&#xf6cf;" horiz-adv-x="466" 
d="M244 818l-172 -111l-22 6l112 126h82q12 0 12 -8q-2 -7 -12 -13zM403 818l-173 -111l-22 6l112 126h83q6 0 9.5 -2t2.5 -6q0 -4 -12 -13z" />
    <glyph glyph-name="Macron" unicode="&#xf6d0;" horiz-adv-x="347" 
d="M65 786h232l-15 -68h-232z" />
    <glyph glyph-name="Ldotaccent" horiz-adv-x="0" 
 />
    <glyph glyph-name="gacute" horiz-adv-x="475" 
d="M90 10q-45 -16 -45 -56q0 -36 44 -62t121 -26q57 0 93.5 21.5t36.5 53.5q0 21 -18.5 32.5t-65.5 15.5q-123 10 -166 21zM279 483q24 0 63.5 -8t76.5 -8q22 0 51 3t32 3q5 0 5 -14q0 -16 -6 -35t-14 -19q-71 0 -114 16q21 -17 35 -47.5t14 -60.5q0 -64 -53 -111.5
t-155 -47.5q-106 0 -106 -36q0 -10 9 -16.5t31 -10.5t39 -6t54 -4.5t55 -4.5q63 -6 88.5 -29.5t25.5 -66.5q0 -67 -71 -124t-188 -57q-88 0 -141.5 31.5t-53.5 80.5q0 35 31 66.5t81 44.5q-45 15 -45 60q0 32 35 58t97 37q-82 37 -82 124q0 71 55.5 126.5t150.5 55.5z
M270 445q-45 0 -72 -51t-27 -116q0 -91 60 -91q40 0 68.5 51.5t28.5 118.5q0 88 -58 88zM450 654l-180 -133l-24 7l113 150h90q12 0 12 -10q-1 -7 -11 -14z" />
    <glyph glyph-name="ldotaccent" horiz-adv-x="0" 
 />
    <glyph glyph-name="iacute_jacute" horiz-adv-x="266" 
d="M243 478q-104 -342 -104 -386q0 -24 18 -24q17 0 32.5 14.5t21.5 37.5l23 -10q-10 -43 -53.5 -80t-94.5 -37q-54 0 -54 53q0 32 37 177t41 168v8q0 28 -44 28l5 29q55 9 165 29zM317 654q-60 -45 -180 -133l-24 7l113 150h90q12 0 12 -10q-1 -7 -11 -14z" />
    <glyph glyph-name="caron.alt" horiz-adv-x="246" 
d="M188 654l-114 -140l-24 7l59 157h74q7 0 10 -2.5t2 -7.5q0 -6 -7 -14z" />
    <glyph glyph-name="Breve" horiz-adv-x="342" 
d="M292 852q-16 -67 -58.5 -102.5t-91.5 -35.5q-41 0 -66.5 24t-25.5 73q0 16 5 41h29q-1 -6 -1 -16q0 -54 75 -54q88 0 105 70h29z" />
    <glyph glyph-name="Circumflex" horiz-adv-x="368" 
d="M50 712l119 121q16 16 45 16q28 0 35 -15l69 -122l-25 -4l-100 68l-122 -68z" />
    <glyph glyph-name="Dotaccent" horiz-adv-x="214" 
d="M110 837q23 0 39 -17t15 -42q-1 -24 -18.5 -41t-40.5 -17t-39 17t-15 41q1 25 18.5 42t40.5 17z" />
    <glyph glyph-name="Ring" horiz-adv-x="308" 
d="M174 862q41 0 65.5 -27.5t16.5 -65.5t-44.5 -65t-77.5 -27t-65.5 27t-16.5 65t44.5 65.5t77.5 27.5zM166 828q-20 0 -35.5 -16.5t-20.5 -42.5t3 -42t28 -16q21 0 36.5 16t20.5 42t-3 42.5t-29 16.5z" />
    <glyph glyph-name="Tilde" horiz-adv-x="437" 
d="M77 714h-27q12 53 44 89t72 36q36 0 73 -33.5t56 -33.5q24 0 42.5 18.5t23.5 46.5h26q-12 -67 -46.5 -97t-74.5 -30q-32 0 -69.5 33.5t-55.5 33.5q-22 0 -40 -16.5t-24 -46.5z" />
    <glyph glyph-name="CR" horiz-adv-x="184" 
 />
    <glyph glyph-name="apple" horiz-adv-x="1636" 
d="M168 146l-22 163l-24 -163h-28l-10 60l-1 14h-1l-2 -14l-10 -60h-28l-25 187h34l9 -98l1 -13h1l1 13l15 98h26l-6 -40l8 -58l1 -13l1 13l11 98h58l9 -98l1 -13h1l1 13l14 98h27l-8 -40l10 -58v-13h1l1 13l11 98h58l9 -98l1 -13h1l1 13l14 98h27l-8 -40l9 -58l1 -13h1
l1 13l11 98h30l-27 -187h-28l-11 60l-1 14h-1l-1 -14l-11 -60h-28l-22 163l-23 -163h-28l-10 60l-2 14h-1l-1 -14l-10 -60h-28zM764 146v149q0 15 -6 22q2 -12 2 -20l-17 -22q0 16 -6 16q-9 0 -9 -31v-114h-32v149q0 16 -4 24l16 22q11 -8 9 -36h1q7 36 23 36q15 0 17 -22
l17 22q12 -8 10 -36h1q7 36 24 36t25 -30q7 30 24 30q14 0 22 -19.5t8 -51.5v-124h-31v115q0 28 -7 28q-9 0 -9 -28v-115h-31v115q0 28 -8 28q-7 0 -7 -28v-115h-32zM1469 146v149q0 16 -4 24l16 22q11 -9 10 -36h1q7 36 24 36t24 -30q8 30 25 30q13 0 21.5 -19.5t8.5 -51.5
v-124h-31v115q0 28 -8 28t-8 -28v-115h-31v115q0 28 -8 28q-7 0 -7 -28v-115h-33zM1064 61v236q0 15 -6 20l18 24q11 -6 9 -36h1q2 14 8.5 25t16.5 11q18 0 28.5 -27.5t10.5 -73.5q0 -44 -11 -71.5t-29 -27.5q-12 0 -15 12v-92h-31zM1411 141q-20 0 -31.5 27t-11.5 74
q0 99 43 99q20 0 32 -26.5t12 -72.5t-12 -73.5t-32 -27.5zM638 141q-20 0 -31.5 27t-11.5 74q0 99 43 99q20 0 32 -26.5t12 -72.5t-12 -73.5t-32 -27.5zM1026 333h28l-39 -240q-3 -23 -12 -29.5t-22 -4.5v42q5 -2 8 1.5t4 13.5l4 33q-2 1 -2 5l-29 179h33l12 -98l1 -15l2 15
zM1199 141q-20 0 -32 28t-12 73q0 44 11.5 71.5t31.5 27.5q45 0 38 -106h-49v-4q0 -45 12 -45q15 0 15 30l18 -32q-3 -24 -10 -33.5t-23 -9.5zM483 141q-32 0 -37 45l19 28q0 -34 17 -34q12 0 12 16q0 12 -14 13q-31 9 -31 66q0 28 9.5 47t26.5 19q29 0 34 -46l-18 -25
q0 30 -15 30q-11 0 -11 -14q0 -8 2.5 -10.5t12.5 -5.5q32 -8 32 -64q0 -32 -11 -48.5t-28 -16.5zM566 141q-18 0 -26 17.5t-8 59.5v73h-7v42h7v44l31 21v-65h23v-42h-23v-73q0 -30 6 -30q7 0 7 21l14 -29q-3 -39 -24 -39zM942 141q-32 0 -32 77v73h-9v42h9v44l30 21v-65h24
v-42h-24v-73q0 -30 6 -30q8 0 8 21l14 -29q-3 -39 -26 -39zM1335 141q-21 0 -32.5 26.5t-11.5 72.5t11.5 73.5t30.5 27.5q30 0 34 -46l-16 -28q0 28 -15 28q-14 0 -14 -55q0 -54 14 -54q6 0 10.5 8.5t4.5 21.5l16 -30q-4 -45 -32 -45zM1106 186q13 0 13 56q0 53 -13 53
q-11 0 -11 -30v-49q0 -30 11 -30zM638 188q12 0 12 54q0 53 -12 53t-12 -53q0 -54 12 -54zM1411 188q12 0 12 54q0 53 -12 53t-12 -53q0 -54 12 -54zM1265 142q-8 0 -13 9.5t-5 22.5q0 34 18 34q17 0 17 -34q0 -32 -17 -32zM424 142q-8 0 -13.5 9.5t-5.5 22.5q0 15 5.5 24.5
t13.5 9.5q7 0 12 -9.5t5 -24.5q0 -13 -5 -22.5t-12 -9.5zM1189 275h24q0 26 -13 26q-7 0 -11 -26z" />
    <glyph glyph-name="Ohm" horiz-adv-x="745" 
d="M499 157l-11 -43q-8 -31 -8 -53q0 -16 6 -20.5t22 -4.5h95l-6 -36h-226l39 158q136 32 188 241q15 59 15 108q0 72 -34.5 112t-100.5 40q-91 0 -152 -67t-90 -182q-13 -51 -13 -94q0 -118 83 -152l-41 -164h-218l6 36h95q23 0 34 14t23 64l10 40q-122 48 -122 179
q0 64 29.5 128t81 116t128.5 84.5t165 32.5q105 0 176 -55t71 -153q0 -115 -71 -203t-174 -126z" />
    <glyph glyph-name="fraction1" horiz-adv-x="610" 
d="M629 678h70l-655 -678h-70z" />
    <glyph glyph-name="OEacute" horiz-adv-x="1019" 
d="M450 647q-53 0 -99 -32.5t-76.5 -83t-52.5 -113t-32 -121t-10 -108.5q0 -79 28.5 -121t78.5 -42q78 0 142.5 76.5t97.5 183.5t33 211q0 73 -29 111.5t-81 38.5zM387 0q-54 -16 -105 -16q-110 0 -177 63.5t-67 184.5q0 125 60.5 232.5t156 168t199.5 60.5q52 0 92 -15h494
l-42 -186h-28q4 19 4 40q0 105 -157 105h-205q74 -68 74 -204q0 -39 -5 -68h24q52 0 87 28t51 93h28q-24 -94 -70 -282h-28q9 38 9 57q0 65 -86 65h-22q-20 -64 -47.5 -113.5t-48 -71.5t-35 -38.5t-14.5 -25.5q0 -38 119 -38q228 0 290 164h28l-60 -203h-519zM780 813
l-206 -112l-24 6l125 129h103q13 0 13 -10q-2 -6 -11 -13z" />
    <glyph glyph-name="oeacute" horiz-adv-x="689" 
d="M328 63q-75 -77 -172 -77q-71 0 -105.5 43.5t-34.5 114.5q0 127 87.5 234t203.5 107q89 0 123 -79q79 79 184 79q42 0 65 -22.5t23 -56.5q0 -24 -11.5 -47.5t-36.5 -47t-75.5 -38t-119.5 -14.5q-24 0 -36 1q-8 -38 -8 -86q0 -54 24.5 -80.5t62.5 -26.5q33 0 64.5 19
t46.5 51l20 -10q-21 -67 -73 -104t-109 -37q-91 0 -123 77zM270 436q-55 0 -98.5 -87.5t-43.5 -197.5q0 -121 59 -121q56 0 99.5 88.5t43.5 197.5q0 120 -60 120zM565 440q-42 0 -78 -38.5t-58 -114.5q87 0 132 36t45 75q0 18 -11 30t-30 12zM574 654l-180 -133l-24 7
l113 150h90q12 0 12 -10q-1 -7 -11 -14z" />
    </font>
</defs>
</svg>
